<svg width="21" height="21" viewBox="0 0 21 21" fill="none" xmlns="http://www.w3.org/2000/svg">
<path fill-rule="evenodd" clip-rule="evenodd" d="M5.93597 12.5975L8.16467 9.91644C6.60807 8.33414 5.08457 6.78584 3.49917 5.17364C4.04447 4.68814 4.51967 4.18714 5.07217 3.79234C5.71547 3.33254 6.46067 3.40684 7.17297 3.65314C8.80477 4.21904 10.4366 4.78914 12.0539 5.39524C12.4621 5.54884 12.7085 5.47974 13.0002 5.17774C13.8403 4.31084 14.6846 3.44494 15.5814 2.63884C16.505 1.80804 18.1523 1.08854 19.1985 2.13584C20.2448 3.18104 19.5263 4.82834 18.6955 5.75194C17.8884 6.64874 17.0225 7.49294 16.1556 8.33414C15.8546 8.62484 15.7845 8.87114 15.9381 9.28044C16.5452 10.8977 17.1142 12.5285 17.6801 14.1613C17.9275 14.8736 18.0007 15.6189 17.541 16.2621C17.1462 16.8136 16.6462 17.2898 16.1597 17.8351C14.5485 16.2487 11.4169 13.1686 11.4169 13.1686L8.72227 15.3838L9.00887 18.1557L7.55127 19.6143L5.36387 15.9693L1.71997 13.7819L3.17757 12.3244L5.93597 12.5975Z" stroke="white" stroke-width="1.5" stroke-linecap="round" stroke-linejoin="round"/>
</svg>
