<svg width="49" height="48" viewBox="0 0 49 48" fill="none" xmlns="http://www.w3.org/2000/svg">
<path d="M17.4602 6H9.86016C8.74006 6 8.18 6 7.75218 6.21799C7.37585 6.40973 7.06989 6.71569 6.87815 7.09202C6.66016 7.51984 6.66016 8.0799 6.66016 9.2V16.8C6.66016 17.9201 6.66016 18.4802 6.87815 18.908C7.06989 19.2843 7.37585 19.5903 7.75218 19.782C8.18 20 8.74006 20 9.86016 20H17.4602C18.5803 20 19.1404 20 19.5682 19.782C19.9445 19.5903 20.2505 19.2843 20.4422 18.908C20.6602 18.4802 20.6602 17.9201 20.6602 16.8V9.2C20.6602 8.0799 20.6602 7.51984 20.4422 7.09202C20.2505 6.71569 19.9445 6.40973 19.5682 6.21799C19.1404 6 18.5803 6 17.4602 6Z" stroke="url(#paint0_linear_1_1113)" stroke-width="2" stroke-linecap="round" stroke-linejoin="round"/>
<path d="M39.4602 6H31.8602C30.7401 6 30.18 6 29.7522 6.21799C29.3759 6.40973 29.0699 6.71569 28.8782 7.09202C28.6602 7.51984 28.6602 8.0799 28.6602 9.2V16.8C28.6602 17.9201 28.6602 18.4802 28.8782 18.908C29.0699 19.2843 29.3759 19.5903 29.7522 19.782C30.18 20 30.7401 20 31.8602 20H39.4602C40.5803 20 41.1404 20 41.5682 19.782C41.9445 19.5903 42.2505 19.2843 42.4422 18.908C42.6602 18.4802 42.6602 17.9201 42.6602 16.8V9.2C42.6602 8.0799 42.6602 7.51984 42.4422 7.09202C42.2505 6.71569 41.9445 6.40973 41.5682 6.21799C41.1404 6 40.5803 6 39.4602 6Z" stroke="url(#paint1_linear_1_1113)" stroke-width="2" stroke-linecap="round" stroke-linejoin="round"/>
<path d="M39.4602 28H31.8602C30.7401 28 30.18 28 29.7522 28.218C29.3759 28.4097 29.0699 28.7157 28.8782 29.092C28.6602 29.5198 28.6602 30.0799 28.6602 31.2V38.8C28.6602 39.9201 28.6602 40.4802 28.8782 40.908C29.0699 41.2843 29.3759 41.5903 29.7522 41.782C30.18 42 30.7401 42 31.8602 42H39.4602C40.5803 42 41.1404 42 41.5682 41.782C41.9445 41.5903 42.2505 41.2843 42.4422 40.908C42.6602 40.4802 42.6602 39.9201 42.6602 38.8V31.2C42.6602 30.0799 42.6602 29.5198 42.4422 29.092C42.2505 28.7157 41.9445 28.4097 41.5682 28.218C41.1404 28 40.5803 28 39.4602 28Z" stroke="url(#paint2_linear_1_1113)" stroke-width="2" stroke-linecap="round" stroke-linejoin="round"/>
<path d="M17.4602 28H9.86016C8.74006 28 8.18 28 7.75218 28.218C7.37585 28.4097 7.06989 28.7157 6.87815 29.092C6.66016 29.5198 6.66016 30.0799 6.66016 31.2V38.8C6.66016 39.9201 6.66016 40.4802 6.87815 40.908C7.06989 41.2843 7.37585 41.5903 7.75218 41.782C8.18 42 8.74006 42 9.86016 42H17.4602C18.5803 42 19.1404 42 19.5682 41.782C19.9445 41.5903 20.2505 41.2843 20.4422 40.908C20.6602 40.4802 20.6602 39.9201 20.6602 38.8V31.2C20.6602 30.0799 20.6602 29.5198 20.4422 29.092C20.2505 28.7157 19.9445 28.4097 19.5682 28.218C19.1404 28 18.5803 28 17.4602 28Z" stroke="url(#paint3_linear_1_1113)" stroke-width="2" stroke-linecap="round" stroke-linejoin="round"/>
<defs>
<linearGradient id="paint0_linear_1_1113" x1="3.89737" y1="16.0286" x2="46.9382" y2="20.1968" gradientUnits="userSpaceOnUse">
<stop stop-color="white"/>
<stop offset="0.460554" stop-color="#99AEFF"/>
<stop offset="1" stop-color="white"/>
</linearGradient>
<linearGradient id="paint1_linear_1_1113" x1="3.89737" y1="16.0286" x2="46.9382" y2="20.1968" gradientUnits="userSpaceOnUse">
<stop stop-color="white"/>
<stop offset="0.460554" stop-color="#99AEFF"/>
<stop offset="1" stop-color="white"/>
</linearGradient>
<linearGradient id="paint2_linear_1_1113" x1="3.89737" y1="16.0286" x2="46.9382" y2="20.1968" gradientUnits="userSpaceOnUse">
<stop stop-color="white"/>
<stop offset="0.460554" stop-color="#99AEFF"/>
<stop offset="1" stop-color="white"/>
</linearGradient>
<linearGradient id="paint3_linear_1_1113" x1="3.89737" y1="16.0286" x2="46.9382" y2="20.1968" gradientUnits="userSpaceOnUse">
<stop stop-color="white"/>
<stop offset="0.460554" stop-color="#99AEFF"/>
<stop offset="1" stop-color="white"/>
</linearGradient>
</defs>
</svg>
