<svg width="287" height="32" viewBox="0 0 287 32" fill="none" xmlns="http://www.w3.org/2000/svg">
<g filter="url(#filter0_bi_29_5574)">
<rect width="287" height="32" rx="16" fill="#191133" fill-opacity="0.5"/>
<rect x="0.5" y="0.5" width="286" height="31" rx="15.5" stroke="#F8F6FE" stroke-opacity="0.2"/>
<g clip-path="url(#clip0_29_5574)">
<g clip-path="url(#clip1_29_5574)">
<g clip-path="url(#clip2_29_5574)">
<path d="M25.2331 21.7356C24.1205 21.7356 23.0328 21.4056 22.1077 20.7875C21.1826 20.1693 20.4615 19.2908 20.0358 18.2628C19.61 17.2349 19.4986 16.1037 19.7156 15.0125C19.9327 13.9212 20.4685 12.9188 21.2552 12.1321C22.042 11.3453 23.0444 10.8095 24.1356 10.5925C25.2269 10.3754 26.358 10.4868 27.3859 10.9126C28.4139 11.3384 29.2925 12.0594 29.9106 12.9846C30.5288 13.9097 30.8588 14.9973 30.8588 16.11C30.8571 17.6015 30.2639 19.0314 29.2093 20.0861C28.1546 21.1407 26.7247 21.734 25.2331 21.7356ZM25.2331 11.422C24.3059 11.422 23.3996 11.6969 22.6286 12.212C21.8577 12.7272 21.2568 13.4593 20.902 14.316C20.5472 15.1726 20.4543 16.1152 20.6352 17.0246C20.8161 17.9339 21.2626 18.7693 21.9182 19.4249C22.5738 20.0805 23.4092 20.527 24.3185 20.7079C25.2279 20.8888 26.1705 20.796 27.0272 20.4411C27.8837 20.0863 28.6159 19.4854 29.1311 18.7145C29.6462 17.9436 29.9211 17.0372 29.9211 16.11C29.9198 14.8671 29.4254 13.6754 28.5466 12.7966C27.6676 11.9177 26.4761 11.4233 25.2331 11.422Z" fill="#F78182"/>
<path d="M30.8588 21.7356C29.7461 21.7356 28.6584 21.4056 27.7333 20.7875C26.8082 20.1693 26.0871 19.2908 25.6614 18.2628C25.2356 17.2349 25.1242 16.1037 25.3412 15.0125C25.5583 13.9212 26.0941 12.9188 26.8808 12.1321C27.6676 11.3453 28.67 10.8095 29.7612 10.5925C30.8525 10.3754 31.9836 10.4868 33.0115 10.9126C34.0395 11.3384 34.9181 12.0594 35.5362 12.9846C36.1544 13.9097 36.4844 14.9973 36.4844 16.11C36.4827 17.6015 35.8895 19.0314 34.8349 20.0861C33.7802 21.1407 32.3502 21.734 30.8588 21.7356ZM30.8588 11.422C29.9315 11.422 29.0252 11.6969 28.2542 12.212C27.4833 12.7272 26.8824 13.4593 26.5276 14.316C26.1728 15.1726 26.0799 16.1152 26.2608 17.0246C26.4417 17.9339 26.8882 18.7693 27.5438 19.4249C28.1995 20.0805 29.0347 20.527 29.9442 20.7079C30.8536 20.8888 31.7961 20.796 32.6528 20.4411C33.5093 20.0863 34.2415 19.4854 34.7567 18.7145C35.2718 17.9436 35.5467 17.0372 35.5467 16.11C35.5454 14.8671 35.051 13.6754 34.1722 12.7966C33.2932 11.9177 32.1017 11.4233 30.8588 11.422Z" fill="#F78182"/>
</g>
</g>
</g>
<path d="M51.2074 14.1108H49.8778C49.8267 13.8267 49.7315 13.5767 49.5923 13.3608C49.4531 13.1449 49.2827 12.9616 49.081 12.8111C48.8793 12.6605 48.6534 12.5469 48.4034 12.4702C48.1563 12.3935 47.8935 12.3551 47.6151 12.3551C47.1122 12.3551 46.6619 12.4815 46.2642 12.7344C45.8693 12.9872 45.5568 13.358 45.3267 13.8466C45.0994 14.3352 44.9858 14.9318 44.9858 15.6364C44.9858 16.3466 45.0994 16.946 45.3267 17.4347C45.5568 17.9233 45.8707 18.2926 46.2685 18.5426C46.6662 18.7926 47.1136 18.9176 47.6108 18.9176C47.8864 18.9176 48.1477 18.8807 48.3949 18.8068C48.6449 18.7301 48.8707 18.6179 49.0724 18.4702C49.2741 18.3224 49.4446 18.142 49.5838 17.929C49.7259 17.7131 49.8239 17.4659 49.8778 17.1875L51.2074 17.1918C51.1364 17.6207 50.9986 18.0156 50.794 18.3764C50.5923 18.7344 50.3324 19.044 50.0142 19.3054C49.6989 19.5639 49.3381 19.7642 48.9318 19.9062C48.5256 20.0483 48.0824 20.1193 47.6023 20.1193C46.8466 20.1193 46.1733 19.9403 45.5824 19.5824C44.9915 19.2216 44.5256 18.706 44.1847 18.0355C43.8466 17.3651 43.6776 16.5653 43.6776 15.6364C43.6776 14.7045 43.848 13.9048 44.1889 13.2372C44.5298 12.5668 44.9957 12.0526 45.5866 11.6946C46.1776 11.3338 46.8494 11.1534 47.6023 11.1534C48.0653 11.1534 48.4972 11.2202 48.8977 11.3537C49.3011 11.4844 49.6634 11.6776 49.9844 11.9332C50.3054 12.1861 50.571 12.4957 50.7812 12.8622C50.9915 13.2259 51.1335 13.642 51.2074 14.1108ZM61.564 15.6364C61.564 16.5682 61.3935 17.3693 61.0526 18.0398C60.7117 18.7074 60.2444 19.2216 59.6506 19.5824C59.0597 19.9403 58.3879 20.1193 57.635 20.1193C56.8793 20.1193 56.2046 19.9403 55.6109 19.5824C55.02 19.2216 54.554 18.706 54.2131 18.0355C53.8722 17.3651 53.7018 16.5653 53.7018 15.6364C53.7018 14.7045 53.8722 13.9048 54.2131 13.2372C54.554 12.5668 55.02 12.0526 55.6109 11.6946C56.2046 11.3338 56.8793 11.1534 57.635 11.1534C58.3879 11.1534 59.0597 11.3338 59.6506 11.6946C60.2444 12.0526 60.7117 12.5668 61.0526 13.2372C61.3935 13.9048 61.564 14.7045 61.564 15.6364ZM60.26 15.6364C60.26 14.9261 60.145 14.3281 59.9148 13.8423C59.6876 13.3537 59.3751 12.9844 58.9773 12.7344C58.5825 12.4815 58.135 12.3551 57.635 12.3551C57.1322 12.3551 56.6833 12.4815 56.2884 12.7344C55.8935 12.9844 55.581 13.3537 55.3509 13.8423C55.1237 14.3281 55.01 14.9261 55.01 15.6364C55.01 16.3466 55.1237 16.946 55.3509 17.4347C55.581 17.9205 55.8935 18.2898 56.2884 18.5426C56.6833 18.7926 57.1322 18.9176 57.635 18.9176C58.135 18.9176 58.5825 18.7926 58.9773 18.5426C59.3751 18.2898 59.6876 17.9205 59.9148 17.4347C60.145 16.946 60.26 16.3466 60.26 15.6364ZM64.4057 20V11.2727H65.7224V18.8665H69.677V20H64.4057ZM72.3791 20V11.2727H73.6959V18.8665H77.6504V20H72.3791ZM81.5351 20H80.1374L83.278 11.2727H84.7993L87.9399 20H86.5422L84.0749 12.858H84.0067L81.5351 20ZM81.7695 16.5824H86.3036V17.6903H81.7695V16.5824ZM90.4002 20V11.2727H93.5962C94.2156 11.2727 94.7283 11.375 95.1346 11.5795C95.5408 11.7812 95.8448 12.0554 96.0465 12.402C96.2482 12.7457 96.3491 13.1335 96.3491 13.5653C96.3491 13.929 96.2823 14.2358 96.1488 14.4858C96.0153 14.733 95.8363 14.9318 95.6119 15.0824C95.3903 15.2301 95.146 15.3381 94.8789 15.4062V15.4915C95.1687 15.5057 95.4513 15.5994 95.7269 15.7727C96.0053 15.9432 96.2354 16.1861 96.4173 16.5014C96.5991 16.8168 96.69 17.2003 96.69 17.652C96.69 18.098 96.5849 18.4986 96.3746 18.8537C96.1673 19.206 95.8462 19.4858 95.4116 19.6932C94.9769 19.8977 94.4215 20 93.7454 20H90.4002ZM91.717 18.8707H93.6175C94.2482 18.8707 94.6999 18.7486 94.9727 18.5043C95.2454 18.2599 95.3817 17.9545 95.3817 17.5881C95.3817 17.3125 95.3121 17.0597 95.1729 16.8295C95.0337 16.5994 94.8349 16.4162 94.5763 16.2798C94.3207 16.1435 94.0167 16.0753 93.6644 16.0753H91.717V18.8707ZM91.717 15.0483H93.4812C93.7766 15.0483 94.0423 14.9915 94.2781 14.8778C94.5167 14.7642 94.7056 14.6051 94.8448 14.4006C94.9869 14.1932 95.0579 13.9489 95.0579 13.6676C95.0579 13.3068 94.9315 13.0043 94.6786 12.7599C94.4258 12.5156 94.038 12.3935 93.5153 12.3935H91.717V15.0483ZM107.033 15.6364C107.033 16.5682 106.862 17.3693 106.521 18.0398C106.18 18.7074 105.713 19.2216 105.119 19.5824C104.528 19.9403 103.857 20.1193 103.104 20.1193C102.348 20.1193 101.673 19.9403 101.08 19.5824C100.489 19.2216 100.023 18.706 99.6819 18.0355C99.341 17.3651 99.1705 16.5653 99.1705 15.6364C99.1705 14.7045 99.341 13.9048 99.6819 13.2372C100.023 12.5668 100.489 12.0526 101.08 11.6946C101.673 11.3338 102.348 11.1534 103.104 11.1534C103.857 11.1534 104.528 11.3338 105.119 11.6946C105.713 12.0526 106.18 12.5668 106.521 13.2372C106.862 13.9048 107.033 14.7045 107.033 15.6364ZM105.729 15.6364C105.729 14.9261 105.614 14.3281 105.384 13.8423C105.156 13.3537 104.844 12.9844 104.446 12.7344C104.051 12.4815 103.604 12.3551 103.104 12.3551C102.601 12.3551 102.152 12.4815 101.757 12.7344C101.362 12.9844 101.05 13.3537 100.82 13.8423C100.592 14.3281 100.479 14.9261 100.479 15.6364C100.479 16.3466 100.592 16.946 100.82 17.4347C101.05 17.9205 101.362 18.2898 101.757 18.5426C102.152 18.7926 102.601 18.9176 103.104 18.9176C103.604 18.9176 104.051 18.7926 104.446 18.5426C104.844 18.2898 105.156 17.9205 105.384 17.4347C105.614 16.946 105.729 16.3466 105.729 15.6364ZM109.874 20V11.2727H112.985C113.661 11.2727 114.222 11.3892 114.668 11.6222C115.117 11.8551 115.453 12.1776 115.674 12.5895C115.896 12.9986 116.007 13.4716 116.007 14.0085C116.007 14.5426 115.894 15.0128 115.67 15.419C115.448 15.8224 115.113 16.1364 114.664 16.3608C114.218 16.5852 113.657 16.6974 112.981 16.6974H110.624V15.5639H112.862C113.288 15.5639 113.634 15.5028 113.901 15.3807C114.171 15.2585 114.369 15.081 114.494 14.848C114.619 14.6151 114.681 14.3352 114.681 14.0085C114.681 13.679 114.617 13.3935 114.489 13.152C114.364 12.9105 114.167 12.7259 113.897 12.598C113.63 12.4673 113.279 12.402 112.845 12.402H111.191V20H109.874ZM114.183 16.0625L116.339 20H114.839L112.725 16.0625H114.183ZM119.546 20H118.148L121.289 11.2727H122.81L125.951 20H124.553L122.086 12.858H122.018L119.546 20ZM119.78 16.5824H124.314V17.6903H119.78V16.5824ZM126.95 12.4062V11.2727H133.704V12.4062H130.981V20H129.668V12.4062H126.95ZM137.713 11.2727V20H136.396V11.2727H137.713ZM141.593 11.2727L144.022 18.3807H144.12L146.549 11.2727H147.973L144.832 20H143.311L140.17 11.2727H141.593ZM150.433 20V11.2727H155.905V12.4062H151.75V15.0653H155.619V16.1946H151.75V18.8665H155.956V20H150.433ZM164.556 11.2727V20H163.239V11.2727H164.556ZM174.718 11.2727V20H173.507L169.071 13.5994H168.99V20H167.674V11.2727H168.892L173.333 17.6818H173.414V11.2727H174.718ZM177.408 12.4062V11.2727H184.162V12.4062H181.439V20H180.127V12.4062H177.408ZM186.855 20V11.2727H192.326V12.4062H188.172V15.0653H192.041V16.1946H188.172V18.8665H192.378V20H186.855ZM195.285 20V11.2727H196.602V18.8665H200.557V20H195.285ZM203.259 20V11.2727H204.576V18.8665H208.53V20H203.259ZM212.549 11.2727V20H211.232V11.2727H212.549ZM221.573 14.0298C221.49 13.7713 221.38 13.5398 221.24 13.3352C221.104 13.1278 220.941 12.9517 220.75 12.8068C220.56 12.6591 220.343 12.5469 220.098 12.4702C219.857 12.3935 219.591 12.3551 219.302 12.3551C218.81 12.3551 218.367 12.4815 217.972 12.7344C217.577 12.9872 217.265 13.358 217.035 13.8466C216.807 14.3324 216.694 14.9276 216.694 15.6321C216.694 16.3395 216.809 16.9375 217.039 17.4261C217.269 17.9148 217.584 18.2855 217.985 18.5384C218.385 18.7912 218.841 18.9176 219.353 18.9176C219.827 18.9176 220.24 18.821 220.593 18.6278C220.948 18.4347 221.222 18.1619 221.415 17.8097C221.611 17.4545 221.709 17.0369 221.709 16.5568L222.05 16.6207H219.553V15.5341H222.983V16.527C222.983 17.2599 222.827 17.8963 222.515 18.4361C222.205 18.973 221.776 19.3878 221.228 19.6804C220.682 19.973 220.057 20.1193 219.353 20.1193C218.563 20.1193 217.87 19.9375 217.273 19.5739C216.679 19.2102 216.216 18.6946 215.884 18.027C215.552 17.3565 215.385 16.5611 215.385 15.6406C215.385 14.9446 215.482 14.3196 215.675 13.7656C215.868 13.2116 216.14 12.7415 216.489 12.3551C216.841 11.9659 217.255 11.669 217.729 11.4645C218.206 11.2571 218.728 11.1534 219.293 11.1534C219.765 11.1534 220.204 11.223 220.61 11.3622C221.019 11.5014 221.383 11.6989 221.701 11.9545C222.022 12.2102 222.287 12.5142 222.498 12.8665C222.708 13.2159 222.85 13.6037 222.924 14.0298H221.573ZM225.855 20V11.2727H231.326V12.4062H227.172V15.0653H231.041V16.1946H227.172V18.8665H231.378V20H225.855ZM241.329 11.2727V20H240.119L235.683 13.5994H235.602V20H234.285V11.2727H235.504L239.944 17.6818H240.025V11.2727H241.329ZM251.699 14.1108H250.369C250.318 13.8267 250.223 13.5767 250.084 13.3608C249.945 13.1449 249.774 12.9616 249.572 12.8111C249.371 12.6605 249.145 12.5469 248.895 12.4702C248.648 12.3935 248.385 12.3551 248.106 12.3551C247.604 12.3551 247.153 12.4815 246.756 12.7344C246.361 12.9872 246.048 13.358 245.818 13.8466C245.591 14.3352 245.477 14.9318 245.477 15.6364C245.477 16.3466 245.591 16.946 245.818 17.4347C246.048 17.9233 246.362 18.2926 246.76 18.5426C247.158 18.7926 247.605 18.9176 248.102 18.9176C248.378 18.9176 248.639 18.8807 248.886 18.8068C249.136 18.7301 249.362 18.6179 249.564 18.4702C249.766 18.3224 249.936 18.142 250.075 17.929C250.217 17.7131 250.315 17.4659 250.369 17.1875L251.699 17.1918C251.628 17.6207 251.49 18.0156 251.285 18.3764C251.084 18.7344 250.824 19.044 250.506 19.3054C250.19 19.5639 249.829 19.7642 249.423 19.9062C249.017 20.0483 248.574 20.1193 248.094 20.1193C247.338 20.1193 246.665 19.9403 246.074 19.5824C245.483 19.2216 245.017 18.706 244.676 18.0355C244.338 17.3651 244.169 16.5653 244.169 15.6364C244.169 14.7045 244.339 13.9048 244.68 13.2372C245.021 12.5668 245.487 12.0526 246.078 11.6946C246.669 11.3338 247.341 11.1534 248.094 11.1534C248.557 11.1534 248.989 11.2202 249.389 11.3537C249.793 11.4844 250.155 11.6776 250.476 11.9332C250.797 12.1861 251.062 12.4957 251.273 12.8622C251.483 13.2259 251.625 13.642 251.699 14.1108ZM254.474 20V11.2727H259.946V12.4062H255.791V15.0653H259.661V16.1946H255.791V18.8665H259.997V20H254.474Z" fill="white"/>
</g>
<defs>
<filter id="filter0_bi_29_5574" x="-8" y="-8" width="303" height="48" filterUnits="userSpaceOnUse" color-interpolation-filters="sRGB">
<feFlood flood-opacity="0" result="BackgroundImageFix"/>
<feGaussianBlur in="BackgroundImageFix" stdDeviation="4"/>
<feComposite in2="SourceAlpha" operator="in" result="effect1_backgroundBlur_29_5574"/>
<feBlend mode="normal" in="SourceGraphic" in2="effect1_backgroundBlur_29_5574" result="shape"/>
<feColorMatrix in="SourceAlpha" type="matrix" values="0 0 0 0 0 0 0 0 0 0 0 0 0 0 0 0 0 0 127 0" result="hardAlpha"/>
<feMorphology radius="1" operator="erode" in="SourceAlpha" result="effect2_innerShadow_29_5574"/>
<feOffset dy="-8"/>
<feGaussianBlur stdDeviation="8"/>
<feComposite in2="hardAlpha" operator="arithmetic" k2="-1" k3="1"/>
<feColorMatrix type="matrix" values="0 0 0 0 0.968627 0 0 0 0 0.505882 0 0 0 0 0.509804 0 0 0 0.2 0"/>
<feBlend mode="normal" in2="shape" result="effect2_innerShadow_29_5574"/>
</filter>
<clipPath id="clip0_29_5574">
<rect width="17.58" height="16" fill="white" transform="translate(19.19 8.10986)"/>
</clipPath>
<clipPath id="clip1_29_5574">
<rect width="17.58" height="16" fill="white" transform="translate(19.19 8.10986)"/>
</clipPath>
<clipPath id="clip2_29_5574">
<rect width="17.58" height="11.2512" fill="white" transform="translate(19.19 10.4844)"/>
</clipPath>
</defs>
</svg>
