<svg width="180" height="32" viewBox="0 0 180 32" fill="none" xmlns="http://www.w3.org/2000/svg">
<g filter="url(#filter0_bi_29_5568)">
<rect width="180" height="32" rx="16" fill="#191133" fill-opacity="0.5"/>
<rect x="0.5" y="0.5" width="179" height="31" rx="15.5" stroke="#F8F6FE" stroke-opacity="0.2"/>
<g clip-path="url(#clip0_29_5568)">
<g clip-path="url(#clip1_29_5568)">
<path d="M17.7894 11.0799C17.1904 10.4104 16.8909 10.0757 16.8796 9.79119C16.8698 9.54405 16.976 9.30652 17.1667 9.14905C17.3863 8.96777 17.8354 8.96777 18.7338 8.96777H30.4892C31.3875 8.96777 31.8367 8.96777 32.0563 9.14905C32.247 9.30652 32.3532 9.54405 32.3433 9.79119C32.3321 10.0757 32.0325 10.4104 31.4336 11.0799L26.9143 16.1308C26.7949 16.2643 26.7351 16.331 26.6926 16.407C26.6548 16.4743 26.6271 16.5468 26.6103 16.6222C26.5914 16.7072 26.5914 16.7967 26.5914 16.9758V21.2106C26.5914 21.3655 26.5914 21.4429 26.5665 21.5099C26.5444 21.569 26.5085 21.622 26.4618 21.6645C26.4089 21.7126 26.337 21.7413 26.1931 21.7989L23.5004 22.8759C23.2093 22.9924 23.0638 23.0506 22.9469 23.0263C22.8448 23.0051 22.7551 22.9444 22.6975 22.8574C22.6315 22.758 22.6315 22.6012 22.6315 22.2877V16.9758C22.6315 16.7967 22.6315 16.7072 22.6126 16.6222C22.5958 16.5468 22.5681 16.4743 22.5304 16.407C22.4878 16.331 22.4281 16.2643 22.3087 16.1308L17.7894 11.0799Z" stroke="#2753FD" stroke-width="1.758" stroke-linecap="round" stroke-linejoin="round"/>
</g>
</g>
<path d="M49.5541 19.7998H46.7288V11.0725H49.6436C50.4987 11.0725 51.2331 11.2472 51.8467 11.5967C52.4603 11.9433 52.9305 12.4418 53.2572 13.0924C53.5868 13.7401 53.7515 14.5171 53.7515 15.4234C53.7515 16.3325 53.5853 17.1137 53.253 17.7671C52.9234 18.4205 52.4461 18.9234 51.8211 19.2757C51.1961 19.6251 50.4405 19.7998 49.5541 19.7998ZM48.0456 18.6492H49.4817C50.1464 18.6492 50.699 18.5242 51.1393 18.2742C51.5797 18.0214 51.9092 17.6563 52.128 17.1791C52.3467 16.699 52.4561 16.1137 52.4561 15.4234C52.4561 14.7387 52.3467 14.1578 52.128 13.6805C51.9121 13.2032 51.5896 12.841 51.1606 12.5938C50.7317 12.3467 50.199 12.2231 49.5626 12.2231H48.0456V18.6492ZM56.8926 19.7998H55.4949L58.6355 11.0725H60.1568L63.2974 19.7998H61.8997L59.4324 12.6578H59.3642L56.8926 19.7998ZM57.127 16.3822H61.6611V17.4901H57.127V16.3822ZM64.2961 12.2061V11.0725H71.0503V12.2061H68.3273V19.7998H67.0148V12.2061H64.2961ZM73.4488 19.7998H72.0511L75.1917 11.0725H76.713L79.8537 19.7998H78.4559L75.9886 12.6578H75.9204L73.4488 19.7998ZM73.6832 16.3822H78.2173V17.4901H73.6832V16.3822ZM88.0065 11.0725V19.7998H86.6897V11.0725H88.0065ZM98.1682 11.0725V19.7998H96.9579L92.5219 13.3992H92.4409V19.7998H91.1241V11.0725H92.3429L96.7832 17.4816H96.8642V11.0725H98.1682ZM106.049 13.3651C106.003 12.9617 105.816 12.6492 105.486 12.4276C105.157 12.2032 104.742 12.091 104.242 12.091C103.884 12.091 103.574 12.1478 103.313 12.2615C103.052 12.3722 102.849 12.5257 102.704 12.7217C102.562 12.9149 102.491 13.135 102.491 13.3822C102.491 13.5896 102.539 13.7686 102.636 13.9191C102.735 14.0697 102.864 14.1961 103.023 14.2984C103.185 14.3978 103.359 14.4816 103.543 14.5498C103.728 14.6151 103.905 14.6691 104.076 14.7117L104.928 14.9333C105.207 15.0015 105.492 15.0938 105.785 15.2103C106.077 15.3268 106.349 15.4802 106.599 15.6705C106.849 15.8609 107.05 16.0967 107.204 16.3779C107.36 16.6592 107.438 16.9958 107.438 17.3879C107.438 17.8822 107.31 18.3211 107.055 18.7046C106.802 19.0882 106.434 19.3907 105.951 19.6123C105.471 19.8339 104.89 19.9447 104.208 19.9447C103.555 19.9447 102.989 19.841 102.512 19.6336C102.035 19.4262 101.661 19.1322 101.391 18.7515C101.121 18.368 100.972 17.9134 100.944 17.3879H102.265C102.29 17.7032 102.393 17.966 102.572 18.1762C102.753 18.3836 102.985 18.5384 103.266 18.6407C103.55 18.7401 103.861 18.7899 104.199 18.7899C104.572 18.7899 104.903 18.7316 105.192 18.6151C105.485 18.4958 105.715 18.3311 105.883 18.1208C106.05 17.9078 106.134 17.6592 106.134 17.3751C106.134 17.1166 106.06 16.9049 105.913 16.7401C105.768 16.5754 105.57 16.439 105.32 16.3311C105.073 16.2231 104.793 16.1279 104.481 16.0455L103.449 15.7643C102.751 15.574 102.197 15.2941 101.788 14.9248C101.381 14.5555 101.178 14.0668 101.178 13.4589C101.178 12.9561 101.315 12.5171 101.587 12.1421C101.86 11.7671 102.229 11.4759 102.695 11.2686C103.161 11.0583 103.687 10.9532 104.272 10.9532C104.863 10.9532 105.384 11.0569 105.836 11.2643C106.29 11.4717 106.648 11.7572 106.91 12.1208C107.171 12.4816 107.307 12.8964 107.319 13.3651H106.049ZM111.528 11.0725V19.7998H110.212V11.0725H111.528ZM120.552 13.8296C120.47 13.5711 120.359 13.3396 120.22 13.135C120.084 12.9276 119.92 12.7515 119.73 12.6066C119.539 12.4589 119.322 12.3467 119.078 12.27C118.836 12.1933 118.571 12.1549 118.281 12.1549C117.789 12.1549 117.346 12.2813 116.951 12.5342C116.557 12.787 116.244 13.1578 116.014 13.6464C115.787 14.1322 115.673 14.7274 115.673 15.4319C115.673 16.1393 115.788 16.7373 116.018 17.2259C116.248 17.7146 116.564 18.0853 116.964 18.3382C117.365 18.591 117.821 18.7174 118.332 18.7174C118.807 18.7174 119.22 18.6208 119.572 18.4276C119.927 18.2345 120.201 17.9617 120.395 17.6095C120.591 17.2544 120.689 16.8367 120.689 16.3566L121.03 16.4205H118.532V15.3339H121.963V16.3268C121.963 17.0597 121.807 17.6961 121.494 18.2359C121.184 18.7728 120.755 19.1876 120.207 19.4802C119.662 19.7728 119.037 19.9191 118.332 19.9191C117.542 19.9191 116.849 19.7373 116.253 19.3737C115.659 19.01 115.196 18.4944 114.863 17.8268C114.531 17.1563 114.365 16.3609 114.365 15.4404C114.365 14.7444 114.461 14.1194 114.655 13.5654C114.848 13.0115 115.119 12.5413 115.468 12.1549C115.821 11.7657 116.234 11.4688 116.709 11.2643C117.186 11.0569 117.707 10.9532 118.272 10.9532C118.744 10.9532 119.183 11.0228 119.589 11.162C119.998 11.3012 120.362 11.4987 120.68 11.7543C121.001 12.01 121.267 12.314 121.477 12.6663C121.687 13.0157 121.829 13.4035 121.903 13.8296H120.552ZM124.834 19.7998V11.0725H126.151V14.8651H130.502V11.0725H131.823V19.7998H130.502V15.9944H126.151V19.7998H124.834ZM134.51 12.2061V11.0725H141.264V12.2061H138.541V19.7998H137.229V12.2061H134.51ZM148.717 13.3651C148.671 12.9617 148.484 12.6492 148.154 12.4276C147.825 12.2032 147.41 12.091 146.91 12.091C146.552 12.091 146.242 12.1478 145.981 12.2615C145.72 12.3722 145.517 12.5257 145.372 12.7217C145.23 12.9149 145.159 13.135 145.159 13.3822C145.159 13.5896 145.207 13.7686 145.304 13.9191C145.403 14.0697 145.532 14.1961 145.691 14.2984C145.853 14.3978 146.027 14.4816 146.211 14.5498C146.396 14.6151 146.573 14.6691 146.744 14.7117L147.596 14.9333C147.875 15.0015 148.16 15.0938 148.453 15.2103C148.745 15.3268 149.017 15.4802 149.267 15.6705C149.517 15.8609 149.718 16.0967 149.872 16.3779C150.028 16.6592 150.106 16.9958 150.106 17.3879C150.106 17.8822 149.978 18.3211 149.723 18.7046C149.47 19.0882 149.102 19.3907 148.619 19.6123C148.139 19.8339 147.558 19.9447 146.876 19.9447C146.223 19.9447 145.657 19.841 145.18 19.6336C144.703 19.4262 144.329 19.1322 144.059 18.7515C143.789 18.368 143.64 17.9134 143.612 17.3879H144.933C144.958 17.7032 145.061 17.966 145.24 18.1762C145.421 18.3836 145.653 18.5384 145.934 18.6407C146.218 18.7401 146.529 18.7899 146.867 18.7899C147.24 18.7899 147.571 18.7316 147.86 18.6151C148.153 18.4958 148.383 18.3311 148.551 18.1208C148.718 17.9078 148.802 17.6592 148.802 17.3751C148.802 17.1166 148.728 16.9049 148.581 16.7401C148.436 16.5754 148.238 16.439 147.988 16.3311C147.741 16.2231 147.461 16.1279 147.149 16.0455L146.117 15.7643C145.419 15.574 144.865 15.2941 144.456 14.9248C144.049 14.5555 143.846 14.0668 143.846 13.4589C143.846 12.9561 143.983 12.5171 144.255 12.1421C144.528 11.7671 144.897 11.4759 145.363 11.2686C145.829 11.0583 146.355 10.9532 146.94 10.9532C147.531 10.9532 148.052 11.0569 148.504 11.2643C148.958 11.4717 149.316 11.7572 149.578 12.1208C149.839 12.4816 149.975 12.8964 149.987 13.3651H148.717Z" fill="white"/>
</g>
<defs>
<filter id="filter0_bi_29_5568" x="-8" y="-8" width="196" height="48" filterUnits="userSpaceOnUse" color-interpolation-filters="sRGB">
<feFlood flood-opacity="0" result="BackgroundImageFix"/>
<feGaussianBlur in="BackgroundImageFix" stdDeviation="4"/>
<feComposite in2="SourceAlpha" operator="in" result="effect1_backgroundBlur_29_5568"/>
<feBlend mode="normal" in="SourceGraphic" in2="effect1_backgroundBlur_29_5568" result="shape"/>
<feColorMatrix in="SourceAlpha" type="matrix" values="0 0 0 0 0 0 0 0 0 0 0 0 0 0 0 0 0 0 127 0" result="hardAlpha"/>
<feMorphology radius="1" operator="erode" in="SourceAlpha" result="effect2_innerShadow_29_5568"/>
<feOffset dy="-8"/>
<feGaussianBlur stdDeviation="8"/>
<feComposite in2="hardAlpha" operator="arithmetic" k2="-1" k3="1"/>
<feColorMatrix type="matrix" values="0 0 0 0 0.552941 0 0 0 0 0.192157 0 0 0 0 0.960784 0 0 0 0.2 0"/>
<feBlend mode="normal" in2="shape" result="effect2_innerShadow_29_5568"/>
</filter>
<clipPath id="clip0_29_5568">
<rect width="17.58" height="16" fill="white" transform="translate(16 8)"/>
</clipPath>
<clipPath id="clip1_29_5568">
<rect width="17.58" height="15.822" fill="white" transform="translate(16 8.08887)"/>
</clipPath>
</defs>
</svg>
