<svg width="399" height="224" viewBox="0 0 399 224" fill="none" xmlns="http://www.w3.org/2000/svg">
<path d="M226.791 0.943359H37.7327C32.7143 0.943359 28.6461 5.01155 28.6461 10.0299V52.5283C28.6461 57.5467 32.7143 61.6149 37.7327 61.6149H226.791C231.809 61.6149 235.877 57.5467 235.877 52.5283V10.0299C235.877 5.01155 231.809 0.943359 226.791 0.943359Z" stroke="white" stroke-opacity="0.1" stroke-width="0.790137"/>
<mask id="mask0_30_121" style="mask-type:luminance" maskUnits="userSpaceOnUse" x="53" y="21" width="20" height="20">
<path d="M72.4988 21.9434H53.5355V40.9066H72.4988V21.9434Z" fill="white"/>
</mask>
<g mask="url(#mask0_30_121)">
<path d="M63.0168 22.3389C65.4453 22.3389 67.7256 23.2829 69.4419 25.0001C71.1591 26.7164 72.104 28.9976 72.104 31.4252C72.104 33.8528 71.1591 36.1339 69.4419 37.8502C67.7256 39.5674 65.4453 40.5115 63.0168 40.5115C60.5892 40.5115 58.3089 39.5674 56.5918 37.8502C54.8754 36.1339 53.9305 33.8528 53.9305 31.4252C53.9305 28.9976 54.8754 26.7164 56.5918 25.0001C58.3089 23.2829 60.5892 22.3389 63.0168 22.3389ZM54.2516 31.4252C54.2516 36.2586 58.1834 40.1907 63.0168 40.1907C67.8511 40.1907 71.7824 36.2586 71.7824 31.4252C71.7824 26.5918 67.8511 22.6596 63.0168 22.6596C58.1834 22.6596 54.2516 26.5918 54.2516 31.4252Z" stroke="#2753FD" stroke-width="0.790137"/>
<path d="M63.1772 27.2995V27.6944H63.573H64.802C64.891 27.6944 64.9624 27.7658 64.9624 27.8548C64.9624 27.9437 64.891 28.0151 64.802 28.0151H62.4224C61.5263 28.0151 60.7976 28.7439 60.7976 29.6399C60.7976 30.536 61.5254 31.2647 62.4224 31.2647H63.6122C64.6844 31.2647 65.5578 32.1381 65.5578 33.2103C65.5578 34.2824 64.6844 35.1559 63.6122 35.1559H63.573H63.1772V35.5507V36.7807C63.1772 36.8696 63.1058 36.941 63.0169 36.941C62.9288 36.941 62.8565 36.8696 62.8565 36.7807V35.5507V35.1559H62.4616H61.2317C61.1436 35.1559 61.0713 35.0844 61.0713 34.9955C61.0713 34.9066 61.1436 34.8351 61.2317 34.8351H63.6122C64.5083 34.8351 65.237 34.1064 65.237 33.2103C65.237 32.3142 64.5083 31.5855 63.6122 31.5855H62.4224C61.3494 31.5855 60.4768 30.7121 60.4768 29.6399C60.4768 28.5678 61.3494 27.6944 62.4224 27.6944H62.4616H62.8565V27.2995V26.0696C62.8565 25.9807 62.9288 25.9092 63.0169 25.9092C63.1058 25.9092 63.1772 25.9807 63.1772 26.0696V27.2995Z" stroke="#2753FD" stroke-width="0.790137"/>
</g>
<path d="M83.1985 36.9434V26.0343H89.9634V27.4512H84.8445V30.775H89.4787V32.1866H84.8445V36.9434H83.1985ZM91.8597 36.9434V28.7615H93.4524V36.9434H91.8597ZM92.6641 27.4991C92.3871 27.4991 92.1491 27.4068 91.9503 27.2221C91.755 27.0339 91.6573 26.8102 91.6573 26.551C91.6573 26.2882 91.755 26.0645 91.9503 25.8798C92.1491 25.6916 92.3871 25.5975 92.6641 25.5975C92.9411 25.5975 93.1772 25.6916 93.3725 25.8798C93.5714 26.0645 93.6708 26.2882 93.6708 26.551C93.6708 26.8102 93.5714 27.0339 93.3725 27.2221C93.1772 27.4068 92.9411 27.4991 92.6641 27.4991ZM97.1878 32.0854V36.9434H95.5951V28.7615H97.1238V30.0932H97.2251C97.4133 29.66 97.708 29.312 98.1093 29.0492C98.5141 28.7864 99.0237 28.655 99.6381 28.655C100.196 28.655 100.684 28.7722 101.103 29.0066C101.522 29.2374 101.847 29.5819 102.078 30.04C102.309 30.498 102.424 31.0645 102.424 31.7392V36.9434H100.831V31.9309C100.831 31.3379 100.677 30.8745 100.368 30.5407C100.059 30.2033 99.6345 30.0346 99.0947 30.0346C98.7254 30.0346 98.3969 30.1145 98.1093 30.2743C97.8252 30.4341 97.5997 30.6685 97.4328 30.9775C97.2694 31.2828 97.1878 31.6522 97.1878 32.0854ZM106.941 37.1245C106.422 37.1245 105.954 37.0286 105.535 36.8368C105.116 36.6415 104.784 36.3592 104.539 35.9899C104.297 35.6206 104.176 35.1678 104.176 34.6316C104.176 34.1699 104.265 33.79 104.443 33.4917C104.62 33.1934 104.86 32.9572 105.162 32.7832C105.464 32.6092 105.801 32.4778 106.174 32.389C106.547 32.3002 106.927 32.2328 107.314 32.1866C107.804 32.1298 108.202 32.0836 108.507 32.0481C108.812 32.0091 109.034 31.9469 109.173 31.8617C109.311 31.7765 109.381 31.638 109.381 31.4462V31.4089C109.381 30.9437 109.249 30.5833 108.986 30.3276C108.727 30.0719 108.34 29.9441 107.825 29.9441C107.289 29.9441 106.866 30.063 106.557 30.301C106.252 30.5353 106.041 30.7963 105.924 31.084L104.427 30.7431C104.604 30.2459 104.864 29.8446 105.204 29.5392C105.549 29.2303 105.945 29.0066 106.392 28.8681C106.84 28.726 107.31 28.655 107.804 28.655C108.131 28.655 108.477 28.6941 108.843 28.7722C109.212 28.8468 109.556 28.9853 109.876 29.1877C110.199 29.3901 110.464 29.6795 110.67 30.0559C110.876 30.4288 110.979 30.9135 110.979 31.5101V36.9434H109.423V35.8248H109.359C109.256 36.0307 109.102 36.2331 108.896 36.432C108.69 36.6309 108.425 36.796 108.102 36.9274C107.779 37.0588 107.392 37.1245 106.941 37.1245ZM107.287 35.8461C107.728 35.8461 108.104 35.7591 108.416 35.585C108.733 35.411 108.972 35.1838 109.136 34.9032C109.302 34.6191 109.386 34.3155 109.386 33.9924V32.9377C109.329 32.9945 109.219 33.0478 109.056 33.0975C108.896 33.1436 108.713 33.1845 108.507 33.22C108.301 33.252 108.1 33.2821 107.905 33.3105C107.71 33.3354 107.546 33.3567 107.415 33.3745C107.106 33.4135 106.824 33.4792 106.568 33.5716C106.316 33.6639 106.114 33.7971 105.961 33.9711C105.812 34.1415 105.737 34.3688 105.737 34.6529C105.737 35.0471 105.883 35.3453 106.174 35.5478C106.465 35.7466 106.836 35.8461 107.287 35.8461ZM114.693 32.0854V36.9434H113.1V28.7615H114.629V30.0932H114.73C114.918 29.66 115.213 29.312 115.614 29.0492C116.019 28.7864 116.529 28.655 117.143 28.655C117.7 28.655 118.189 28.7722 118.608 29.0066C119.027 29.2374 119.352 29.5819 119.583 30.04C119.813 30.498 119.929 31.0645 119.929 31.7392V36.9434H118.336V31.9309C118.336 31.3379 118.182 30.8745 117.873 30.5407C117.564 30.2033 117.139 30.0346 116.6 30.0346C116.23 30.0346 115.902 30.1145 115.614 30.2743C115.33 30.4341 115.105 30.6685 114.938 30.9775C114.774 31.2828 114.693 31.6522 114.693 32.0854ZM125.511 37.1085C124.719 37.1085 124.037 36.9292 123.466 36.5705C122.898 36.2083 122.461 35.7093 122.155 35.0737C121.85 34.438 121.697 33.71 121.697 32.8897C121.697 32.0588 121.854 31.3255 122.166 30.6898C122.479 30.0506 122.919 29.5517 123.487 29.193C124.055 28.8343 124.725 28.655 125.495 28.655C126.117 28.655 126.671 28.7704 127.157 29.0012C127.644 29.2285 128.036 29.5481 128.334 29.96C128.636 30.372 128.816 30.8532 128.872 31.4036H127.322C127.237 31.0201 127.042 30.6898 126.736 30.4128C126.434 30.1358 126.03 29.9973 125.522 29.9973C125.078 29.9973 124.689 30.1145 124.355 30.3489C124.025 30.5797 123.768 30.91 123.583 31.3397C123.398 31.7658 123.306 32.2701 123.306 32.8525C123.306 33.449 123.396 33.964 123.578 34.3972C123.759 34.8304 124.014 35.166 124.345 35.4039C124.678 35.6419 125.071 35.7608 125.522 35.7608C125.824 35.7608 126.097 35.7058 126.342 35.5957C126.591 35.4821 126.798 35.3205 126.965 35.111C127.136 34.9015 127.255 34.6493 127.322 34.3546H128.872C128.816 34.8837 128.643 35.356 128.356 35.7715C128.068 36.187 127.683 36.5137 127.2 36.7516C126.72 36.9895 126.157 37.1085 125.511 37.1085ZM130.576 36.9434V28.7615H132.168V36.9434H130.576ZM131.38 27.4991C131.103 27.4991 130.865 27.4068 130.666 27.2221C130.471 27.0339 130.373 26.8102 130.373 26.551C130.373 26.2882 130.471 26.0645 130.666 25.8798C130.865 25.6916 131.103 25.5975 131.38 25.5975C131.657 25.5975 131.893 25.6916 132.088 25.8798C132.287 26.0645 132.387 26.2882 132.387 26.551C132.387 26.8102 132.287 27.0339 132.088 27.2221C131.893 27.4068 131.657 27.4991 131.38 27.4991ZM136.692 37.1245C136.173 37.1245 135.705 37.0286 135.286 36.8368C134.867 36.6415 134.535 36.3592 134.29 35.9899C134.048 35.6206 133.927 35.1678 133.927 34.6316C133.927 34.1699 134.016 33.79 134.194 33.4917C134.371 33.1934 134.611 32.9572 134.913 32.7832C135.215 32.6092 135.552 32.4778 135.925 32.389C136.298 32.3002 136.678 32.2328 137.065 32.1866C137.555 32.1298 137.953 32.0836 138.258 32.0481C138.563 32.0091 138.785 31.9469 138.924 31.8617C139.062 31.7765 139.132 31.638 139.132 31.4462V31.4089C139.132 30.9437 139 30.5833 138.737 30.3276C138.478 30.0719 138.091 29.9441 137.576 29.9441C137.04 29.9441 136.617 30.063 136.308 30.301C136.003 30.5353 135.792 30.7963 135.675 31.084L134.178 30.7431C134.355 30.2459 134.615 29.8446 134.955 29.5392C135.3 29.2303 135.696 29.0066 136.143 28.8681C136.591 28.726 137.061 28.655 137.555 28.655C137.882 28.655 138.228 28.6941 138.594 28.7722C138.963 28.8468 139.307 28.9853 139.627 29.1877C139.95 29.3901 140.215 29.6795 140.421 30.0559C140.627 30.4288 140.73 30.9135 140.73 31.5101V36.9434H139.174V35.8248H139.11C139.007 36.0307 138.853 36.2331 138.647 36.432C138.441 36.6309 138.176 36.796 137.853 36.9274C137.53 37.0588 137.143 37.1245 136.692 37.1245ZM137.038 35.8461C137.479 35.8461 137.855 35.7591 138.167 35.585C138.483 35.411 138.723 35.1838 138.887 34.9032C139.053 34.6191 139.137 34.3155 139.137 33.9924V32.9377C139.08 32.9945 138.97 33.0478 138.807 33.0975C138.647 33.1436 138.464 33.1845 138.258 33.22C138.052 33.252 137.851 33.2821 137.656 33.3105C137.461 33.3354 137.297 33.3567 137.166 33.3745C136.857 33.4135 136.575 33.4792 136.319 33.5716C136.067 33.6639 135.865 33.7971 135.712 33.9711C135.563 34.1415 135.488 34.3688 135.488 34.6529C135.488 35.0471 135.634 35.3453 135.925 35.5478C136.216 35.7466 136.587 35.8461 137.038 35.8461ZM144.444 26.0343V36.9434H142.851V26.0343H144.444ZM156.634 28.9C156.577 28.3958 156.343 28.0051 155.931 27.7282C155.519 27.4476 155 27.3074 154.375 27.3074C153.928 27.3074 153.541 27.3784 153.214 27.5204C152.887 27.6589 152.633 27.8507 152.452 28.0957C152.275 28.3372 152.186 28.6124 152.186 28.9213C152.186 29.1806 152.246 29.4043 152.367 29.5925C152.491 29.7807 152.653 29.9387 152.852 30.0666C153.054 30.1909 153.271 30.2956 153.502 30.3809C153.733 30.4625 153.954 30.53 154.168 30.5833L155.233 30.8603C155.581 30.9455 155.938 31.0609 156.304 31.2065C156.669 31.3521 157.008 31.5439 157.321 31.7818C157.633 32.0197 157.886 32.3145 158.077 32.666C158.273 33.0176 158.37 33.4384 158.37 33.9284C158.37 34.5463 158.21 35.095 157.891 35.5744C157.575 36.0538 157.115 36.432 156.511 36.709C155.911 36.986 155.185 37.1245 154.333 37.1245C153.516 37.1245 152.809 36.9949 152.213 36.7356C151.616 36.4764 151.149 36.1088 150.812 35.633C150.474 35.1536 150.288 34.5854 150.252 33.9284H151.904C151.936 34.3226 152.063 34.6511 152.287 34.9139C152.514 35.1731 152.804 35.3667 153.155 35.4945C153.511 35.6188 153.899 35.6809 154.322 35.6809C154.787 35.6809 155.201 35.6081 155.563 35.4625C155.929 35.3134 156.217 35.1074 156.426 34.8446C156.636 34.5783 156.74 34.2676 156.74 33.9125C156.74 33.5893 156.648 33.3248 156.463 33.1188C156.282 32.9128 156.035 32.7424 155.723 32.6074C155.414 32.4725 155.064 32.3535 154.674 32.2505L153.384 31.899C152.511 31.661 151.818 31.3113 151.307 30.8496C150.799 30.388 150.545 29.7772 150.545 29.0172C150.545 28.3887 150.716 27.84 151.057 27.3713C151.398 26.9025 151.859 26.5385 152.442 26.2793C153.024 26.0165 153.681 25.8851 154.413 25.8851C155.151 25.8851 155.803 26.0147 156.367 26.274C156.936 26.5332 157.383 26.8901 157.71 27.3446C158.036 27.7956 158.207 28.3141 158.221 28.9H156.634ZM163.736 37.1085C162.93 37.1085 162.235 36.9363 161.653 36.5918C161.074 36.2438 160.627 35.7555 160.311 35.127C159.998 34.4949 159.842 33.7544 159.842 32.9057C159.842 32.0676 159.998 31.329 160.311 30.6898C160.627 30.0506 161.067 29.5517 161.632 29.193C162.2 28.8343 162.864 28.655 163.624 28.655C164.085 28.655 164.533 28.7314 164.966 28.8841C165.399 29.0368 165.788 29.2765 166.133 29.6032C166.477 29.9299 166.749 30.3542 166.948 30.8762C167.146 31.3947 167.246 32.025 167.246 32.7672V33.3319H160.742V32.1387H165.685C165.685 31.7196 165.6 31.3485 165.43 31.0254C165.259 30.6987 165.019 30.4412 164.71 30.253C164.405 30.0648 164.046 29.9707 163.634 29.9707C163.187 29.9707 162.796 30.0808 162.463 30.301C162.132 30.5176 161.877 30.8017 161.695 31.1532C161.518 31.5012 161.429 31.8794 161.429 32.2878V33.22C161.429 33.7669 161.525 34.2321 161.717 34.6156C161.912 34.9991 162.184 35.2921 162.532 35.4945C162.88 35.6934 163.286 35.7928 163.752 35.7928C164.053 35.7928 164.329 35.7502 164.577 35.665C164.826 35.5762 165.041 35.4448 165.222 35.2708C165.403 35.0968 165.541 34.8819 165.637 34.6262L167.145 34.8979C167.024 35.3418 166.807 35.7306 166.495 36.0645C166.186 36.3947 165.797 36.6522 165.328 36.8368C164.863 37.0179 164.332 37.1085 163.736 37.1085ZM169.013 36.9434V28.7615H170.552V30.0613H170.638C170.787 29.6209 171.05 29.2747 171.426 29.0225C171.806 28.7669 172.236 28.639 172.715 28.639C172.815 28.639 172.932 28.6426 173.067 28.6497C173.205 28.6568 173.313 28.6657 173.392 28.6763V30.1998C173.328 30.182 173.214 30.1625 173.051 30.1412C172.887 30.1163 172.724 30.1039 172.561 30.1039C172.184 30.1039 171.849 30.1838 171.554 30.3436C171.263 30.4998 171.032 30.7182 170.861 30.9988C170.691 31.2757 170.606 31.5918 170.606 31.9469V36.9434H169.013ZM182.018 28.7615L179.051 36.9434H177.347L174.374 28.7615H176.084L178.156 35.0577H178.242L180.308 28.7615H182.018ZM183.515 36.9434V28.7615H185.108V36.9434H183.515ZM184.319 27.4991C184.042 27.4991 183.804 27.4068 183.606 27.2221C183.41 27.0339 183.313 26.8102 183.313 26.551C183.313 26.2882 183.41 26.0645 183.606 25.8798C183.804 25.6916 184.042 25.5975 184.319 25.5975C184.596 25.5975 184.832 25.6916 185.028 25.8798C185.227 26.0645 185.326 26.2882 185.326 26.551C185.326 26.8102 185.227 27.0339 185.028 27.2221C184.832 27.4068 184.596 27.4991 184.319 27.4991ZM190.697 37.1085C189.905 37.1085 189.223 36.9292 188.651 36.5705C188.083 36.2083 187.646 35.7093 187.341 35.0737C187.036 34.438 186.883 33.71 186.883 32.8897C186.883 32.0588 187.039 31.3255 187.352 30.6898C187.664 30.0506 188.104 29.5517 188.673 29.193C189.241 28.8343 189.91 28.655 190.681 28.655C191.302 28.655 191.856 28.7704 192.343 29.0012C192.829 29.2285 193.222 29.5481 193.52 29.96C193.822 30.372 194.001 30.8532 194.058 31.4036H192.508C192.423 31.0201 192.227 30.6898 191.922 30.4128C191.62 30.1358 191.215 29.9973 190.707 29.9973C190.263 29.9973 189.875 30.1145 189.541 30.3489C189.211 30.5797 188.953 30.91 188.768 31.3397C188.584 31.7658 188.491 32.2701 188.491 32.8525C188.491 33.449 188.582 33.964 188.763 34.3972C188.944 34.8304 189.2 35.166 189.53 35.4039C189.864 35.6419 190.256 35.7608 190.707 35.7608C191.009 35.7608 191.283 35.7058 191.528 35.5957C191.776 35.4821 191.984 35.3205 192.151 35.111C192.321 34.9015 192.44 34.6493 192.508 34.3546H194.058C194.001 34.8837 193.829 35.356 193.541 35.7715C193.254 36.187 192.868 36.5137 192.385 36.7516C191.906 36.9895 191.343 37.1085 190.697 37.1085ZM199.287 37.1085C198.481 37.1085 197.787 36.9363 197.205 36.5918C196.626 36.2438 196.178 35.7555 195.862 35.127C195.55 34.4949 195.394 33.7544 195.394 32.9057C195.394 32.0676 195.55 31.329 195.862 30.6898C196.178 30.0506 196.619 29.5517 197.183 29.193C197.752 28.8343 198.416 28.655 199.176 28.655C199.637 28.655 200.085 28.7314 200.518 28.8841C200.951 29.0368 201.34 29.2765 201.684 29.6032C202.029 29.9299 202.301 30.3542 202.499 30.8762C202.698 31.3947 202.798 32.025 202.798 32.7672V33.3319H196.294V32.1387H201.237C201.237 31.7196 201.152 31.3485 200.981 31.0254C200.811 30.6987 200.571 30.4412 200.262 30.253C199.957 30.0648 199.598 29.9707 199.186 29.9707C198.739 29.9707 198.348 30.0808 198.014 30.301C197.684 30.5176 197.428 30.8017 197.247 31.1532C197.07 31.5012 196.981 31.8794 196.981 32.2878V33.22C196.981 33.7669 197.077 34.2321 197.269 34.6156C197.464 34.9991 197.736 35.2921 198.084 35.4945C198.432 35.6934 198.838 35.7928 199.303 35.7928C199.605 35.7928 199.88 35.7502 200.129 35.665C200.378 35.5762 200.592 35.4448 200.774 35.2708C200.955 35.0968 201.093 34.8819 201.189 34.6262L202.696 34.8979C202.576 35.3418 202.359 35.7306 202.047 36.0645C201.738 36.3947 201.349 36.6522 200.88 36.8368C200.415 37.0179 199.884 37.1085 199.287 37.1085ZM210.696 30.7591L209.252 31.0147C209.192 30.8301 209.096 30.6543 208.965 30.4874C208.837 30.3205 208.663 30.1838 208.443 30.0772C208.222 29.9707 207.947 29.9174 207.617 29.9174C207.166 29.9174 206.79 30.0186 206.488 30.2211C206.186 30.4199 206.035 30.6774 206.035 30.9934C206.035 31.2669 206.136 31.487 206.339 31.6539C206.541 31.8208 206.868 31.9576 207.319 32.0641L208.618 32.3624C209.371 32.5364 209.932 32.8045 210.302 33.1667C210.671 33.5289 210.856 33.9995 210.856 34.5783C210.856 35.0684 210.714 35.5051 210.43 35.8887C210.149 36.2686 209.757 36.5669 209.252 36.7836C208.752 37.0002 208.171 37.1085 207.51 37.1085C206.594 37.1085 205.847 36.9132 205.268 36.5225C204.689 36.1284 204.334 35.5691 204.203 34.8446L205.742 34.6103C205.838 35.0115 206.035 35.3152 206.333 35.5211C206.632 35.7235 207.02 35.8248 207.5 35.8248C208.022 35.8248 208.439 35.7164 208.752 35.4998C209.064 35.2797 209.22 35.0115 209.22 34.6955C209.22 34.4398 209.124 34.225 208.933 34.051C208.744 33.877 208.455 33.7456 208.064 33.6568L206.68 33.3532C205.916 33.1792 205.351 32.9022 204.986 32.5222C204.623 32.1422 204.442 31.661 204.442 31.0787C204.442 30.5957 204.577 30.1731 204.847 29.8109C205.117 29.4487 205.49 29.1664 205.966 28.964C206.442 28.758 206.987 28.655 207.601 28.655C208.485 28.655 209.181 28.8468 209.689 29.2303C210.197 29.6103 210.532 30.1199 210.696 30.7591Z" fill="white"/>
<path d="M361.665 0.943359H265.087C260.068 0.943359 256 5.01155 256 10.0299V52.5283C256 57.5467 260.068 61.6149 265.087 61.6149H361.665C366.684 61.6149 370.752 57.5467 370.752 52.5283V10.0299C370.752 5.01155 366.684 0.943359 361.665 0.943359Z" stroke="white" stroke-opacity="0.1" stroke-width="0.790137"/>
<path d="M282.777 23.216L278.828 24.9706C277.686 25.4788 276.932 26.6155 277.005 27.8629C277.289 32.7416 278.717 34.8894 282.429 37.4024C283.413 38.0684 284.709 38.0701 285.692 37.4033C289.416 34.8763 290.793 32.698 291.102 27.8803C291.183 26.6242 290.428 25.4753 289.277 24.9637L285.344 23.216C284.527 22.8525 283.594 22.8525 282.777 23.216Z" stroke="#2753FD" stroke-width="1.1852" stroke-linejoin="round"/>
<path d="M282.158 31.7366L283.543 32.8445C283.873 33.1086 284.353 33.0659 284.631 32.7477L286.899 30.1562" stroke="#2753FD" stroke-width="1.1852" stroke-linecap="round" stroke-linejoin="round"/>
<path d="M302.306 35.9434V25.0343H309.146V26.4512H303.952V29.775H308.789V31.1866H303.952V34.5265H309.209V35.9434H302.306ZM312.809 31.0854V35.9434H311.216V27.7615H312.745V29.0932H312.846C313.034 28.66 313.329 28.312 313.73 28.0492C314.135 27.7864 314.645 27.655 315.259 27.655C315.817 27.655 316.305 27.7722 316.724 28.0066C317.143 28.2374 317.468 28.5819 317.699 29.04C317.93 29.498 318.045 30.0645 318.045 30.7392V35.9434H316.452V30.9309C316.452 30.3379 316.298 29.8745 315.989 29.5407C315.68 29.2033 315.256 29.0346 314.716 29.0346C314.347 29.0346 314.018 29.1145 313.73 29.2743C313.446 29.4341 313.221 29.6685 313.054 29.9775C312.891 30.2828 312.809 30.6522 312.809 31.0854ZM323.707 36.1085C322.901 36.1085 322.207 35.9363 321.625 35.5918C321.046 35.2438 320.598 34.7555 320.282 34.127C319.97 33.4949 319.814 32.7544 319.814 31.9057C319.814 31.0676 319.97 30.329 320.282 29.6898C320.598 29.0506 321.039 28.5517 321.603 28.193C322.172 27.8343 322.836 27.655 323.596 27.655C324.057 27.655 324.505 27.7314 324.938 27.8841C325.371 28.0368 325.76 28.2765 326.104 28.6032C326.449 28.9299 326.721 29.3542 326.919 29.8762C327.118 30.3947 327.218 31.025 327.218 31.7672V32.3319H320.714V31.1387H325.657C325.657 30.7196 325.572 30.3485 325.401 30.0254C325.231 29.6987 324.991 29.4412 324.682 29.253C324.377 29.0648 324.018 28.9707 323.606 28.9707C323.159 28.9707 322.768 29.0808 322.434 29.301C322.104 29.5176 321.848 29.8017 321.667 30.1532C321.49 30.5012 321.401 30.8794 321.401 31.2878V32.22C321.401 32.7669 321.497 33.2321 321.689 33.6156C321.884 33.9991 322.156 34.2921 322.504 34.4945C322.852 34.6934 323.258 34.7928 323.723 34.7928C324.025 34.7928 324.3 34.7502 324.549 34.665C324.798 34.5762 325.012 34.4448 325.194 34.2708C325.375 34.0968 325.513 33.8819 325.609 33.6262L327.116 33.8979C326.996 34.3418 326.779 34.7306 326.467 35.0645C326.158 35.3947 325.769 35.6522 325.3 35.8368C324.835 36.0179 324.304 36.1085 323.707 36.1085ZM328.985 35.9434V27.7615H330.524V29.0613H330.609C330.759 28.6209 331.021 28.2747 331.398 28.0225C331.778 27.7669 332.207 27.639 332.687 27.639C332.786 27.639 332.904 27.6426 333.038 27.6497C333.177 27.6568 333.285 27.6657 333.363 27.6763V29.1998C333.299 29.182 333.186 29.1625 333.022 29.1412C332.859 29.1163 332.696 29.1039 332.532 29.1039C332.156 29.1039 331.82 29.1838 331.526 29.3436C331.234 29.4998 331.004 29.7182 330.833 29.9988C330.663 30.2757 330.578 30.5918 330.578 30.9469V35.9434H328.985ZM337.879 39.182C337.229 39.182 336.67 39.0968 336.201 38.9263C335.736 38.7559 335.356 38.5304 335.061 38.2498C334.767 37.9693 334.546 37.6621 334.401 37.3283L335.77 36.7637C335.866 36.9199 335.993 37.085 336.153 37.2591C336.317 37.4366 336.537 37.5875 336.814 37.7118C337.094 37.8361 337.455 37.8983 337.895 37.8983C338.499 37.8983 338.998 37.7509 339.392 37.4561C339.786 37.165 339.983 36.6998 339.983 36.0605V34.4519H339.882C339.786 34.6259 339.648 34.8194 339.466 35.0325C339.289 35.2456 339.044 35.4302 338.731 35.5865C338.419 35.7427 338.012 35.8208 337.512 35.8208C336.865 35.8208 336.283 35.6699 335.764 35.3681C335.249 35.0627 334.841 34.6135 334.539 34.0204C334.241 33.4238 334.092 32.6905 334.092 31.8205C334.092 30.9505 334.239 30.2047 334.534 29.5833C334.832 28.9618 335.241 28.486 335.759 28.1557C336.278 27.8219 336.865 27.655 337.522 27.655C338.03 27.655 338.44 27.7402 338.753 27.9107C339.065 28.0776 339.308 28.2729 339.482 28.4966C339.66 28.7203 339.797 28.9174 339.893 29.0879H340.01V27.7615H341.57V36.1245C341.57 36.8276 341.407 37.4047 341.08 37.8556C340.754 38.3066 340.312 38.6404 339.754 38.8571C339.2 39.0737 338.575 39.182 337.879 39.182ZM337.863 34.4998C338.321 34.4998 338.708 34.3933 339.024 34.1802C339.344 33.9636 339.585 33.6547 339.749 33.2534C339.916 32.8485 339.999 32.3638 339.999 31.7992C339.999 31.2488 339.917 30.764 339.754 30.345C339.591 29.926 339.351 29.5993 339.035 29.3649C338.719 29.127 338.328 29.008 337.863 29.008C337.384 29.008 336.984 29.1323 336.665 29.3809C336.345 29.6259 336.104 29.9597 335.94 30.3823C335.78 30.8049 335.7 31.2772 335.7 31.7992C335.7 32.3354 335.782 32.8059 335.945 33.2108C336.109 33.6156 336.35 33.9316 336.67 34.1589C336.993 34.3862 337.391 34.4998 337.863 34.4998ZM344.713 39.0115C344.475 39.0115 344.259 38.992 344.063 38.9529C343.868 38.9174 343.722 38.8784 343.627 38.8358L344.01 37.5307C344.301 37.6088 344.561 37.6426 344.788 37.6319C345.015 37.6213 345.216 37.536 345.39 37.3762C345.567 37.2164 345.724 36.9554 345.858 36.5932L346.056 36.0499L343.062 27.7615H344.767L346.839 34.111H346.924L348.996 27.7615H350.706L347.334 37.0353C347.178 37.4615 346.979 37.8219 346.737 38.1167C346.496 38.415 346.208 38.6387 345.874 38.7878C345.541 38.937 345.154 39.0115 344.713 39.0115Z" fill="white"/>
<path d="M137.174 81.9434H10.0866C5.06819 81.9434 1 86.0115 1 91.0299V133.528C1 138.547 5.06819 142.615 10.0866 142.615H137.174C142.192 142.615 146.26 138.547 146.26 133.528V91.0299C146.26 86.0115 142.192 81.9434 137.174 81.9434Z" stroke="white" stroke-opacity="0.1" stroke-width="0.790137"/>
<path d="M35.9013 103.842C38.7053 103.842 41.0107 105.838 41.281 108.395C42.7639 109.039 43.8027 110.531 43.8027 112.27C43.8027 114.597 41.9408 116.484 39.644 116.484H31.7427C29.6757 116.484 28 114.786 28 112.691C28 111.037 29.0437 109.631 30.4999 109.113C30.4967 109.041 30.4952 108.97 30.4952 108.898C30.4952 106.106 32.9156 103.842 35.9013 103.842Z" stroke="#2753FD" stroke-width="1.1852"/>
<path d="M55.9227 116.943H54.1755L58.1013 106.034H60.003L63.9287 116.943H62.1816L59.0974 108.016H59.0122L55.9227 116.943ZM56.2157 112.671H61.8833V114.056H56.2157V112.671ZM68.6748 120.182C68.025 120.182 67.4657 120.097 66.9969 119.926C66.5317 119.756 66.1518 119.53 65.857 119.25C65.5623 118.969 65.3421 118.662 65.1965 118.328L66.5655 117.764C66.6613 117.92 66.7892 118.085 66.949 118.259C67.1123 118.437 67.3325 118.588 67.6095 118.712C67.89 118.836 68.2505 118.898 68.6908 118.898C69.2945 118.898 69.7934 118.751 70.1876 118.456C70.5818 118.165 70.7789 117.7 70.7789 117.061V115.452H70.6777C70.5818 115.626 70.4433 115.819 70.2622 116.032C70.0846 116.246 69.8396 116.43 69.5271 116.586C69.2146 116.743 68.808 116.821 68.3073 116.821C67.661 116.821 67.0786 116.67 66.5601 116.368C66.0452 116.063 65.6368 115.613 65.335 115.02C65.0367 114.424 64.8875 113.691 64.8875 112.82C64.8875 111.95 65.0349 111.205 65.3297 110.583C65.628 109.962 66.0363 109.486 66.5548 109.156C67.0733 108.822 67.661 108.655 68.3179 108.655C68.8258 108.655 69.2359 108.74 69.5484 108.911C69.8609 109.078 70.1042 109.273 70.2782 109.497C70.4557 109.72 70.5924 109.917 70.6883 110.088H70.8055V108.762H72.3662V117.124C72.3662 117.828 72.2029 118.405 71.8762 118.856C71.5495 119.307 71.1074 119.64 70.5498 119.857C69.9959 120.074 69.3709 120.182 68.6748 120.182ZM68.6589 115.5C69.1169 115.5 69.504 115.393 69.8201 115.18C70.1397 114.964 70.3812 114.655 70.5445 114.253C70.7114 113.849 70.7949 113.364 70.7949 112.799C70.7949 112.249 70.7132 111.764 70.5498 111.345C70.3865 110.926 70.1468 110.599 69.8307 110.365C69.5147 110.127 69.1241 110.008 68.6589 110.008C68.1794 110.008 67.7799 110.132 67.4603 110.381C67.1407 110.626 66.8993 110.96 66.7359 111.382C66.5761 111.805 66.4962 112.277 66.4962 112.799C66.4962 113.335 66.5779 113.806 66.7412 114.211C66.9046 114.616 67.1461 114.932 67.4657 115.159C67.7888 115.386 68.1866 115.5 68.6589 115.5ZM74.5022 116.943V108.762H76.0417V110.061H76.1269C76.276 109.621 76.5388 109.275 76.9152 109.023C77.2952 108.767 77.7249 108.639 78.2043 108.639C78.3037 108.639 78.4209 108.643 78.5559 108.65C78.6944 108.657 78.8027 108.666 78.8808 108.676V110.2C78.8169 110.182 78.7032 110.162 78.5399 110.141C78.3765 110.116 78.2132 110.104 78.0498 110.104C77.6734 110.104 77.3378 110.184 77.0431 110.344C76.7519 110.5 76.5211 110.718 76.3506 110.999C76.1802 111.276 76.0949 111.592 76.0949 111.947V116.943H74.5022ZM80.2591 116.943V108.762H81.8518V116.943H80.2591ZM81.0634 107.499C80.7864 107.499 80.5485 107.407 80.3496 107.222C80.1543 107.034 80.0567 106.81 80.0567 106.551C80.0567 106.288 80.1543 106.064 80.3496 105.88C80.5485 105.692 80.7864 105.597 81.0634 105.597C81.3404 105.597 81.5766 105.692 81.7719 105.88C81.9707 106.064 82.0702 106.288 82.0702 106.551C82.0702 106.81 81.9707 107.034 81.7719 107.222C81.5766 107.407 81.3404 107.499 81.0634 107.499ZM83.5843 107.451V106.034H92.0271V107.451H88.6233V116.943H86.9827V107.451H83.5843ZM96.1047 117.108C95.2986 117.108 94.6043 116.936 94.022 116.592C93.4431 116.244 92.9957 115.756 92.6796 115.127C92.3671 114.495 92.2109 113.754 92.2109 112.906C92.2109 112.068 92.3671 111.329 92.6796 110.69C92.9957 110.051 93.436 109.552 94.0006 109.193C94.5688 108.834 95.2329 108.655 95.9928 108.655C96.4545 108.655 96.9019 108.731 97.3352 108.884C97.7684 109.037 98.1573 109.276 98.5017 109.603C98.8462 109.93 99.1178 110.354 99.3167 110.876C99.5156 111.395 99.615 112.025 99.615 112.767V113.332H93.1111V112.139H98.0543C98.0543 111.72 97.969 111.349 97.7986 111.025C97.6281 110.699 97.3884 110.441 97.0795 110.253C96.7741 110.065 96.4154 109.971 96.0035 109.971C95.556 109.971 95.1654 110.081 94.8316 110.301C94.5014 110.518 94.2457 110.802 94.0646 111.153C93.887 111.501 93.7982 111.879 93.7982 112.288V113.22C93.7982 113.767 93.8941 114.232 94.0859 114.616C94.2812 114.999 94.5529 115.292 94.9009 115.494C95.2489 115.693 95.6555 115.793 96.1207 115.793C96.4225 115.793 96.6977 115.75 96.9463 115.665C97.1949 115.576 97.4097 115.445 97.5908 115.271C97.772 115.097 97.9105 114.882 98.0063 114.626L99.5138 114.898C99.393 115.342 99.1764 115.731 98.8639 116.064C98.555 116.395 98.1661 116.652 97.6974 116.837C97.2322 117.018 96.7013 117.108 96.1047 117.108ZM104.829 117.108C104.037 117.108 103.355 116.929 102.783 116.57C102.215 116.208 101.778 115.709 101.473 115.074C101.167 114.438 101.015 113.71 101.015 112.89C101.015 112.059 101.171 111.325 101.483 110.69C101.796 110.051 102.236 109.552 102.804 109.193C103.373 108.834 104.042 108.655 104.813 108.655C105.434 108.655 105.988 108.77 106.474 109.001C106.961 109.229 107.353 109.548 107.652 109.96C107.954 110.372 108.133 110.853 108.19 111.404H106.64C106.554 111.02 106.359 110.69 106.054 110.413C105.752 110.136 105.347 109.997 104.839 109.997C104.395 109.997 104.006 110.115 103.673 110.349C103.342 110.58 103.085 110.91 102.9 111.34C102.716 111.766 102.623 112.27 102.623 112.852C102.623 113.449 102.714 113.964 102.895 114.397C103.076 114.83 103.332 115.166 103.662 115.404C103.996 115.642 104.388 115.761 104.839 115.761C105.141 115.761 105.414 115.706 105.659 115.596C105.908 115.482 106.116 115.32 106.283 115.111C106.453 114.901 106.572 114.649 106.64 114.355H108.19C108.133 114.884 107.961 115.356 107.673 115.771C107.385 116.187 107 116.514 106.517 116.752C106.038 116.99 105.475 117.108 104.829 117.108ZM111.486 112.085V116.943H109.893V106.034H111.464V110.093H111.565C111.757 109.653 112.05 109.303 112.444 109.044C112.839 108.785 113.353 108.655 113.989 108.655C114.55 108.655 115.04 108.77 115.459 109.001C115.882 109.232 116.209 109.577 116.439 110.035C116.674 110.489 116.791 111.057 116.791 111.739V116.943H115.198V111.931C115.198 111.331 115.044 110.866 114.735 110.535C114.426 110.202 113.996 110.035 113.446 110.035C113.069 110.035 112.732 110.115 112.434 110.274C112.139 110.434 111.906 110.669 111.736 110.977C111.569 111.283 111.486 111.652 111.486 112.085Z" fill="white"/>
<path d="M388.551 81.9434H175.087C170.068 81.9434 166 86.0115 166 91.0299V133.528C166 138.547 170.068 142.615 175.087 142.615H388.551C393.57 142.615 397.638 138.547 397.638 133.528V91.0299C397.638 86.0115 393.57 81.9434 388.551 81.9434Z" stroke="white" stroke-opacity="0.1" stroke-width="0.790137"/>
<path d="M208.178 112.162V116.903C208.178 118.648 206.762 120.064 205.017 120.064H198.696C196.951 120.064 195.535 118.648 195.535 116.903V112.162" stroke="#2753FD" stroke-width="1.1852" stroke-linejoin="round"/>
<path d="M205.625 104.262H198.089C196.653 104.262 195.362 105.245 194.828 106.745L194.229 108.429C194.048 108.939 193.923 109.485 194.055 110.01C194.368 111.253 195.384 112.163 196.589 112.163C198.044 112.163 199.223 110.836 199.223 109.2C199.223 110.836 200.403 112.163 201.857 112.163C203.311 112.163 204.491 110.836 204.491 109.2C204.491 110.836 205.67 112.163 207.124 112.163C208.33 112.163 209.345 111.253 209.659 110.01C209.79 109.485 209.666 108.939 209.485 108.429L208.886 106.745C208.352 105.245 207.06 104.262 205.625 104.262Z" stroke="#2753FD" stroke-width="1.1852" stroke-linejoin="round"/>
<path d="M204.228 118.484V117.43C204.228 116.266 203.166 115.323 201.857 115.323C200.547 115.323 199.487 116.266 199.487 117.43V118.484" stroke="#2753FD" stroke-width="1.1852" stroke-linecap="round" stroke-linejoin="round"/>
<path d="M220.912 116.943V106.034H224.801C225.646 106.034 226.347 106.18 226.905 106.471C227.466 106.762 227.885 107.165 228.162 107.68C228.439 108.192 228.577 108.783 228.577 109.454C228.577 110.122 228.437 110.709 228.156 111.217C227.879 111.721 227.46 112.114 226.899 112.394C226.342 112.675 225.64 112.815 224.795 112.815H221.85V111.398H224.646C225.179 111.398 225.612 111.322 225.946 111.169C226.283 111.017 226.53 110.795 226.686 110.503C226.842 110.212 226.921 109.862 226.921 109.454C226.921 109.042 226.841 108.685 226.681 108.383C226.525 108.081 226.278 107.851 225.941 107.691C225.607 107.528 225.168 107.446 224.625 107.446H222.558V116.943H220.912ZM226.297 112.021L228.993 116.943H227.118L224.476 112.021H226.297ZM233.876 117.108C233.07 117.108 232.376 116.936 231.793 116.592C231.214 116.244 230.767 115.756 230.451 115.127C230.138 114.495 229.982 113.754 229.982 112.906C229.982 112.068 230.138 111.329 230.451 110.69C230.767 110.051 231.207 109.552 231.772 109.193C232.34 108.834 233.004 108.655 233.764 108.655C234.226 108.655 234.673 108.731 235.106 108.884C235.54 109.037 235.929 109.276 236.273 109.603C236.617 109.93 236.889 110.354 237.088 110.876C237.287 111.395 237.386 112.025 237.386 112.767V113.332H230.882V112.139H235.826C235.826 111.72 235.74 111.349 235.57 111.025C235.399 110.699 235.16 110.441 234.851 110.253C234.545 110.065 234.187 109.971 233.775 109.971C233.327 109.971 232.937 110.081 232.603 110.301C232.273 110.518 232.017 110.802 231.836 111.153C231.658 111.501 231.57 111.879 231.57 112.288V113.22C231.57 113.767 231.665 114.232 231.857 114.616C232.052 114.999 232.324 115.292 232.672 115.494C233.02 115.693 233.427 115.793 233.892 115.793C234.194 115.793 234.469 115.75 234.718 115.665C234.966 115.576 235.181 115.445 235.362 115.271C235.543 115.097 235.682 114.882 235.778 114.626L237.285 114.898C237.164 115.342 236.948 115.731 236.635 116.064C236.326 116.395 235.937 116.652 235.469 116.837C235.003 117.018 234.473 117.108 233.876 117.108ZM242.973 108.762V110.04H238.504V108.762H242.973ZM239.702 106.801H241.295V114.541C241.295 114.85 241.341 115.083 241.433 115.239C241.526 115.392 241.645 115.496 241.79 115.553C241.939 115.606 242.101 115.633 242.275 115.633C242.403 115.633 242.515 115.624 242.61 115.606C242.706 115.589 242.781 115.574 242.834 115.564L243.122 116.879C243.029 116.915 242.898 116.95 242.728 116.986C242.557 117.025 242.344 117.046 242.088 117.05C241.669 117.057 241.279 116.982 240.917 116.826C240.554 116.67 240.261 116.428 240.038 116.102C239.814 115.775 239.702 115.365 239.702 114.871V106.801ZM247.115 117.124C246.597 117.124 246.128 117.029 245.709 116.837C245.29 116.642 244.958 116.359 244.713 115.99C244.472 115.621 244.351 115.168 244.351 114.632C244.351 114.17 244.44 113.79 244.617 113.492C244.795 113.193 245.035 112.957 245.336 112.783C245.638 112.609 245.976 112.478 246.348 112.389C246.721 112.3 247.101 112.233 247.488 112.187C247.978 112.13 248.376 112.084 248.682 112.048C248.987 112.009 249.209 111.947 249.347 111.862C249.486 111.776 249.555 111.638 249.555 111.446V111.409C249.555 110.944 249.424 110.583 249.161 110.328C248.902 110.072 248.515 109.944 248 109.944C247.464 109.944 247.041 110.063 246.732 110.301C246.427 110.535 246.215 110.796 246.098 111.084L244.601 110.743C244.779 110.246 245.038 109.845 245.379 109.539C245.723 109.23 246.119 109.007 246.567 108.868C247.014 108.726 247.485 108.655 247.978 108.655C248.305 108.655 248.651 108.694 249.017 108.772C249.386 108.847 249.731 108.985 250.051 109.188C250.374 109.39 250.638 109.68 250.844 110.056C251.05 110.429 251.153 110.914 251.153 111.51V116.943H249.598V115.825H249.534C249.431 116.031 249.276 116.233 249.07 116.432C248.864 116.631 248.6 116.796 248.277 116.927C247.954 117.059 247.566 117.124 247.115 117.124ZM247.462 115.846C247.902 115.846 248.278 115.759 248.591 115.585C248.907 115.411 249.147 115.184 249.31 114.903C249.477 114.619 249.56 114.316 249.56 113.992V112.938C249.504 112.994 249.394 113.048 249.23 113.097C249.07 113.144 248.888 113.184 248.682 113.22C248.476 113.252 248.275 113.282 248.08 113.311C247.884 113.335 247.721 113.357 247.59 113.374C247.281 113.414 246.998 113.479 246.743 113.572C246.49 113.664 246.288 113.797 246.135 113.971C245.986 114.142 245.912 114.369 245.912 114.653C245.912 115.047 246.057 115.345 246.348 115.548C246.64 115.747 247.011 115.846 247.462 115.846ZM253.274 116.943V108.762H254.867V116.943H253.274ZM254.079 107.499C253.802 107.499 253.564 107.407 253.365 107.222C253.17 107.034 253.072 106.81 253.072 106.551C253.072 106.288 253.17 106.064 253.365 105.88C253.564 105.692 253.802 105.597 254.079 105.597C254.356 105.597 254.592 105.692 254.787 105.88C254.986 106.064 255.086 106.288 255.086 106.551C255.086 106.81 254.986 107.034 254.787 107.222C254.592 107.407 254.356 107.499 254.079 107.499ZM258.603 106.034V116.943H257.01V106.034H258.603ZM267.89 117.098C267.158 117.098 266.528 116.965 265.999 116.698C265.473 116.432 265.068 116.07 264.784 115.612C264.5 115.15 264.358 114.628 264.358 114.046C264.358 113.602 264.45 113.208 264.635 112.863C264.82 112.515 265.077 112.194 265.407 111.899C265.738 111.604 266.119 111.308 266.553 111.009L268.31 109.768C268.609 109.573 268.841 109.367 269.008 109.15C269.175 108.93 269.259 108.659 269.259 108.335C269.259 108.08 269.149 107.835 268.928 107.6C268.708 107.366 268.413 107.249 268.044 107.249C267.788 107.249 267.563 107.311 267.368 107.435C267.176 107.559 267.025 107.719 266.915 107.915C266.808 108.106 266.755 108.309 266.755 108.522C266.755 108.77 266.823 109.021 266.957 109.273C267.096 109.525 267.274 109.786 267.49 110.056C267.707 110.322 267.934 110.599 268.172 110.887L273.238 116.943H271.437L267.245 112.016C266.894 111.601 266.567 111.21 266.265 110.844C265.963 110.475 265.718 110.102 265.53 109.726C265.345 109.346 265.253 108.936 265.253 108.495C265.253 107.994 265.367 107.551 265.594 107.164C265.825 106.773 266.146 106.468 266.558 106.247C266.97 106.027 267.453 105.917 268.007 105.917C268.568 105.917 269.049 106.027 269.45 106.247C269.855 106.464 270.166 106.753 270.383 107.116C270.603 107.474 270.713 107.867 270.713 108.293C270.713 108.811 270.583 109.269 270.324 109.667C270.068 110.061 269.715 110.423 269.264 110.754L267.075 112.368C266.649 112.68 266.352 112.989 266.185 113.295C266.022 113.596 265.94 113.833 265.94 114.003C265.94 114.316 266.02 114.605 266.18 114.871C266.343 115.138 266.57 115.351 266.862 115.51C267.156 115.67 267.501 115.75 267.895 115.75C268.3 115.75 268.694 115.663 269.077 115.489C269.465 115.312 269.814 115.058 270.127 114.727C270.443 114.397 270.693 114.001 270.878 113.54C271.063 113.078 271.155 112.561 271.155 111.99H272.593C272.593 112.693 272.513 113.287 272.353 113.774C272.194 114.257 272 114.651 271.773 114.956C271.549 115.258 271.338 115.494 271.139 115.665C271.075 115.722 271.015 115.779 270.958 115.835C270.901 115.892 270.841 115.949 270.777 116.006C270.407 116.379 269.96 116.654 269.434 116.831C268.912 117.009 268.397 117.098 267.89 117.098ZM278.583 116.943V106.034H285.422V107.451H280.229V110.775H285.066V112.187H280.229V115.526H285.486V116.943H278.583ZM292.314 111.643V113.023H287.477V111.643H292.314ZM297.883 117.108C297.091 117.108 296.409 116.929 295.838 116.57C295.269 116.208 294.833 115.709 294.527 115.074C294.222 114.438 294.069 113.71 294.069 112.89C294.069 112.059 294.225 111.325 294.538 110.69C294.85 110.051 295.291 109.552 295.859 109.193C296.427 108.834 297.096 108.655 297.867 108.655C298.488 108.655 299.042 108.77 299.529 109.001C300.015 109.229 300.408 109.548 300.706 109.96C301.008 110.372 301.187 110.853 301.244 111.404H299.694C299.609 111.02 299.414 110.69 299.108 110.413C298.806 110.136 298.401 109.997 297.894 109.997C297.45 109.997 297.061 110.115 296.727 110.349C296.397 110.58 296.139 110.91 295.955 111.34C295.77 111.766 295.678 112.27 295.678 112.852C295.678 113.449 295.768 113.964 295.949 114.397C296.13 114.83 296.386 115.166 296.716 115.404C297.05 115.642 297.443 115.761 297.894 115.761C298.195 115.761 298.469 115.706 298.714 115.596C298.963 115.482 299.17 115.32 299.337 115.111C299.508 114.901 299.627 114.649 299.694 114.355H301.244C301.187 114.884 301.015 115.356 300.727 115.771C300.44 116.187 300.055 116.514 299.572 116.752C299.092 116.99 298.529 117.108 297.883 117.108ZM306.394 117.108C305.627 117.108 304.957 116.933 304.386 116.581C303.814 116.23 303.37 115.738 303.054 115.106C302.738 114.474 302.58 113.735 302.58 112.89C302.58 112.041 302.738 111.299 303.054 110.663C303.37 110.028 303.814 109.534 304.386 109.182C304.957 108.831 305.627 108.655 306.394 108.655C307.161 108.655 307.83 108.831 308.402 109.182C308.974 109.534 309.418 110.028 309.734 110.663C310.05 111.299 310.208 112.041 310.208 112.89C310.208 113.735 310.05 114.474 309.734 115.106C309.418 115.738 308.974 116.23 308.402 116.581C307.83 116.933 307.161 117.108 306.394 117.108ZM306.399 115.771C306.896 115.771 307.308 115.64 307.635 115.377C307.962 115.115 308.203 114.765 308.359 114.328C308.519 113.891 308.599 113.41 308.599 112.884C308.599 112.362 308.519 111.883 308.359 111.446C308.203 111.006 307.962 110.653 307.635 110.386C307.308 110.12 306.896 109.987 306.399 109.987C305.898 109.987 305.483 110.12 305.153 110.386C304.826 110.653 304.583 111.006 304.423 111.446C304.267 111.883 304.188 112.362 304.188 112.884C304.188 113.41 304.267 113.891 304.423 114.328C304.583 114.765 304.826 115.115 305.153 115.377C305.483 115.64 305.898 115.771 306.399 115.771ZM311.985 116.943V108.762H313.514V110.093H313.615C313.786 109.642 314.065 109.291 314.452 109.039C314.839 108.783 315.302 108.655 315.842 108.655C316.389 108.655 316.847 108.783 317.216 109.039C317.589 109.294 317.864 109.646 318.042 110.093H318.127C318.322 109.656 318.633 109.308 319.059 109.049C319.485 108.786 319.993 108.655 320.583 108.655C321.325 108.655 321.93 108.888 322.399 109.353C322.871 109.818 323.108 110.519 323.108 111.457V116.943H321.515V111.606C321.515 111.052 321.364 110.651 321.062 110.402C320.76 110.154 320.4 110.029 319.981 110.029C319.462 110.029 319.059 110.189 318.772 110.509C318.484 110.825 318.34 111.231 318.34 111.729V116.943H316.753V111.505C316.753 111.061 316.614 110.704 316.337 110.434C316.06 110.164 315.7 110.029 315.256 110.029C314.954 110.029 314.675 110.109 314.42 110.269C314.168 110.425 313.963 110.644 313.807 110.924C313.654 111.205 313.578 111.53 313.578 111.899V116.943H311.985ZM325.242 116.943V108.762H326.771V110.093H326.872C327.043 109.642 327.321 109.291 327.709 109.039C328.096 108.783 328.559 108.655 329.099 108.655C329.646 108.655 330.104 108.783 330.473 109.039C330.846 109.294 331.121 109.646 331.299 110.093H331.384C331.579 109.656 331.89 109.308 332.316 109.049C332.742 108.786 333.25 108.655 333.84 108.655C334.582 108.655 335.187 108.888 335.656 109.353C336.128 109.818 336.364 110.519 336.364 111.457V116.943H334.772V111.606C334.772 111.052 334.621 110.651 334.319 110.402C334.017 110.154 333.657 110.029 333.238 110.029C332.719 110.029 332.316 110.189 332.028 110.509C331.741 110.825 331.597 111.231 331.597 111.729V116.943H330.01V111.505C330.01 111.061 329.871 110.704 329.594 110.434C329.317 110.164 328.957 110.029 328.513 110.029C328.211 110.029 327.932 110.109 327.677 110.269C327.424 110.425 327.22 110.644 327.064 110.924C326.911 111.205 326.835 111.53 326.835 111.899V116.943H325.242ZM342.025 117.108C341.219 117.108 340.525 116.936 339.943 116.592C339.364 116.244 338.916 115.756 338.6 115.127C338.288 114.495 338.132 113.754 338.132 112.906C338.132 112.068 338.288 111.329 338.6 110.69C338.916 110.051 339.357 109.552 339.921 109.193C340.49 108.834 341.154 108.655 341.914 108.655C342.375 108.655 342.823 108.731 343.256 108.884C343.689 109.037 344.078 109.276 344.422 109.603C344.767 109.93 345.039 110.354 345.237 110.876C345.436 111.395 345.536 112.025 345.536 112.767V113.332H339.032V112.139H343.975C343.975 111.72 343.89 111.349 343.719 111.025C343.549 110.699 343.309 110.441 343 110.253C342.695 110.065 342.336 109.971 341.924 109.971C341.477 109.971 341.086 110.081 340.752 110.301C340.422 110.518 340.166 110.802 339.985 111.153C339.808 111.501 339.719 111.879 339.719 112.288V113.22C339.719 113.767 339.815 114.232 340.007 114.616C340.202 114.999 340.474 115.292 340.822 115.494C341.17 115.693 341.576 115.793 342.041 115.793C342.343 115.793 342.618 115.75 342.867 115.665C343.116 115.576 343.33 115.445 343.512 115.271C343.693 115.097 343.831 114.882 343.927 114.626L345.434 114.898C345.314 115.342 345.097 115.731 344.785 116.064C344.476 116.395 344.087 116.652 343.618 116.837C343.153 117.018 342.622 117.108 342.025 117.108ZM347.303 116.943V108.762H348.842V110.061H348.927C349.077 109.621 349.339 109.275 349.716 109.023C350.096 108.767 350.525 108.639 351.005 108.639C351.104 108.639 351.221 108.643 351.356 108.65C351.495 108.657 351.603 108.666 351.681 108.676V110.2C351.617 110.182 351.504 110.162 351.34 110.141C351.177 110.116 351.014 110.104 350.85 110.104C350.474 110.104 350.138 110.184 349.844 110.344C349.552 110.5 349.322 110.718 349.151 110.999C348.981 111.276 348.895 111.592 348.895 111.947V116.943H347.303ZM356.213 117.108C355.421 117.108 354.739 116.929 354.168 116.57C353.599 116.208 353.163 115.709 352.857 115.074C352.552 114.438 352.399 113.71 352.399 112.89C352.399 112.059 352.555 111.325 352.868 110.69C353.18 110.051 353.621 109.552 354.189 109.193C354.757 108.834 355.426 108.655 356.197 108.655C356.819 108.655 357.373 108.77 357.859 109.001C358.346 109.229 358.738 109.548 359.036 109.96C359.338 110.372 359.517 110.853 359.574 111.404H358.024C357.939 111.02 357.744 110.69 357.438 110.413C357.136 110.136 356.732 109.997 356.224 109.997C355.78 109.997 355.391 110.115 355.057 110.349C354.727 110.58 354.469 110.91 354.285 111.34C354.1 111.766 354.008 112.27 354.008 112.852C354.008 113.449 354.098 113.964 354.279 114.397C354.461 114.83 354.716 115.166 355.047 115.404C355.38 115.642 355.773 115.761 356.224 115.761C356.526 115.761 356.799 115.706 357.044 115.596C357.293 115.482 357.5 115.32 357.667 115.111C357.838 114.901 357.957 114.649 358.024 114.355H359.574C359.517 114.884 359.345 115.356 359.058 115.771C358.77 116.187 358.385 116.514 357.902 116.752C357.422 116.99 356.859 117.108 356.213 117.108ZM364.804 117.108C363.998 117.108 363.303 116.936 362.721 116.592C362.142 116.244 361.695 115.756 361.379 115.127C361.066 114.495 360.91 113.754 360.91 112.906C360.91 112.068 361.066 111.329 361.379 110.69C361.695 110.051 362.135 109.552 362.7 109.193C363.268 108.834 363.932 108.655 364.692 108.655C365.153 108.655 365.601 108.731 366.034 108.884C366.467 109.037 366.856 109.276 367.201 109.603C367.545 109.93 367.817 110.354 368.016 110.876C368.215 111.395 368.314 112.025 368.314 112.767V113.332H361.81V112.139H366.753C366.753 111.72 366.668 111.349 366.498 111.025C366.327 110.699 366.087 110.441 365.778 110.253C365.473 110.065 365.114 109.971 364.702 109.971C364.255 109.971 363.864 110.081 363.531 110.301C363.2 110.518 362.945 110.802 362.764 111.153C362.586 111.501 362.497 111.879 362.497 112.288V113.22C362.497 113.767 362.593 114.232 362.785 114.616C362.98 114.999 363.252 115.292 363.6 115.494C363.948 115.693 364.354 115.793 364.82 115.793C365.122 115.793 365.397 115.75 365.645 115.665C365.894 115.576 366.109 115.445 366.29 115.271C366.471 115.097 366.609 114.882 366.705 114.626L368.213 114.898C368.092 115.342 367.875 115.731 367.563 116.064C367.254 116.395 366.865 116.652 366.396 116.837C365.931 117.018 365.4 117.108 364.804 117.108Z" fill="white"/>
<path d="M335.448 162.252H63.5811C58.5627 162.252 54.4945 166.32 54.4945 171.338V213.837C54.4945 218.855 58.5627 222.923 63.5811 222.923H335.448C340.466 222.923 344.534 218.855 344.534 213.837V171.338C344.534 166.32 340.466 162.252 335.448 162.252Z" stroke="white" stroke-opacity="0.1" stroke-width="0.790137"/>
<path d="M92.3886 185.433L92.026 185.794L91.6633 185.433C90.6618 184.436 89.0379 184.436 88.0363 185.433C87.0348 186.429 87.0348 188.045 88.0363 189.041L91.3007 192.288C91.7008 192.687 92.3511 192.687 92.7512 192.288L96.0156 189.041C97.0171 188.045 97.0171 186.429 96.0156 185.433C95.014 184.436 93.3901 184.436 92.3886 185.433Z" stroke="#2753FD" stroke-width="1.1852" stroke-linejoin="round"/>
<path d="M80.9645 191.007H82.5448L87.4924 193.172C88.2525 193.504 88.6021 194.387 88.2752 195.15C87.9466 195.917 87.0592 196.272 86.2921 195.943L84.9149 195.353" stroke="#2753FD" stroke-width="1.1852" stroke-linecap="round" stroke-linejoin="round"/>
<path d="M81.2295 198.471L81.4056 198.118L84.1051 199.467L83.9282 199.821L81.2295 198.471ZM84.6403 200.164L84.8173 199.81C85.4484 200.076 86.1187 200.235 86.8021 200.278V200.674C86.0577 200.629 85.3264 200.456 84.6403 200.164ZM87.5918 200.686V200.291H93.2115V200.686H87.5918ZM94.0012 200.642V200.234C94.4475 200.101 94.7988 199.749 94.9322 199.304H95.3401C95.1893 199.968 94.6663 200.492 94.0012 200.642ZM95.3401 198.513H94.9322C94.7988 198.068 94.4475 197.715 94.0012 197.583V197.175C94.6663 197.325 95.1893 197.849 95.3401 198.513ZM93.2115 197.131V197.525H92.7504V197.131H93.2115ZM91.9598 197.113V197.51C91.4612 197.47 90.9713 197.354 90.5067 197.167L90.5886 197.004L90.6845 196.812C91.0924 196.974 91.5222 197.075 91.9598 197.113ZM89.9697 196.474L89.7928 196.827L88.3406 196.101L88.5167 195.748L89.9697 196.474Z" stroke="#2753FD" stroke-width="0.790137"/>
<path d="M107.965 198.943V188.034H109.611V192.775H115.05V188.034H116.701V198.943H115.05V194.187H109.611V198.943H107.965ZM122.497 199.108C121.69 199.108 120.996 198.936 120.414 198.592C119.835 198.244 119.388 197.756 119.071 197.127C118.759 196.495 118.603 195.754 118.603 194.906C118.603 194.068 118.759 193.329 119.071 192.69C119.388 192.051 119.828 191.552 120.392 191.193C120.961 190.834 121.625 190.655 122.385 190.655C122.846 190.655 123.294 190.731 123.727 190.884C124.16 191.037 124.549 191.276 124.894 191.603C125.238 191.93 125.51 192.354 125.709 192.876C125.907 193.395 126.007 194.025 126.007 194.767V195.332H119.503V194.139H124.446C124.446 193.72 124.361 193.349 124.19 193.025C124.02 192.699 123.78 192.441 123.471 192.253C123.166 192.065 122.807 191.971 122.395 191.971C121.948 191.971 121.557 192.081 121.223 192.301C120.893 192.518 120.638 192.802 120.456 193.153C120.279 193.501 120.19 193.879 120.19 194.288V195.22C120.19 195.767 120.286 196.232 120.478 196.616C120.673 196.999 120.945 197.292 121.293 197.494C121.641 197.693 122.047 197.793 122.513 197.793C122.814 197.793 123.09 197.75 123.338 197.665C123.587 197.576 123.802 197.445 123.983 197.271C124.164 197.097 124.302 196.882 124.398 196.626L125.906 196.898C125.785 197.342 125.568 197.731 125.256 198.064C124.947 198.395 124.558 198.652 124.089 198.837C123.624 199.018 123.093 199.108 122.497 199.108ZM130.155 199.124C129.637 199.124 129.168 199.029 128.749 198.837C128.33 198.642 127.998 198.359 127.753 197.99C127.511 197.621 127.39 197.168 127.39 196.632C127.39 196.17 127.479 195.79 127.657 195.492C127.834 195.193 128.074 194.957 128.376 194.783C128.678 194.609 129.015 194.478 129.388 194.389C129.761 194.3 130.141 194.233 130.528 194.187C131.018 194.13 131.416 194.084 131.721 194.048C132.026 194.009 132.248 193.947 132.387 193.862C132.525 193.776 132.595 193.638 132.595 193.446V193.409C132.595 192.944 132.463 192.583 132.2 192.328C131.941 192.072 131.554 191.944 131.039 191.944C130.503 191.944 130.08 192.063 129.771 192.301C129.466 192.535 129.255 192.796 129.138 193.084L127.641 192.743C127.818 192.246 128.078 191.845 128.419 191.539C128.763 191.23 129.159 191.007 129.606 190.868C130.054 190.726 130.524 190.655 131.018 190.655C131.345 190.655 131.691 190.694 132.057 190.772C132.426 190.847 132.77 190.985 133.09 191.188C133.413 191.39 133.678 191.68 133.884 192.056C134.09 192.429 134.193 192.914 134.193 193.51V198.943H132.637V197.825H132.573C132.47 198.031 132.316 198.233 132.11 198.432C131.904 198.631 131.639 198.796 131.316 198.927C130.993 199.059 130.606 199.124 130.155 199.124ZM130.501 197.846C130.942 197.846 131.318 197.759 131.631 197.585C131.947 197.411 132.186 197.184 132.35 196.903C132.517 196.619 132.6 196.316 132.6 195.992V194.938C132.543 194.994 132.433 195.048 132.27 195.097C132.11 195.144 131.927 195.184 131.721 195.22C131.515 195.252 131.314 195.282 131.119 195.311C130.924 195.335 130.76 195.357 130.629 195.374C130.32 195.414 130.038 195.479 129.782 195.572C129.53 195.664 129.328 195.797 129.175 195.971C129.026 196.142 128.951 196.369 128.951 196.653C128.951 197.047 129.097 197.345 129.388 197.548C129.679 197.747 130.05 197.846 130.501 197.846ZM137.907 188.034V198.943H136.314V188.034H137.907ZM143.869 190.762V192.04H139.4V190.762H143.869ZM140.598 188.801H142.191V196.541C142.191 196.85 142.237 197.083 142.329 197.239C142.422 197.392 142.54 197.496 142.686 197.553C142.835 197.606 142.997 197.633 143.171 197.633C143.299 197.633 143.411 197.624 143.506 197.606C143.602 197.589 143.677 197.574 143.73 197.564L144.018 198.879C143.925 198.915 143.794 198.95 143.624 198.986C143.453 199.025 143.24 199.046 142.984 199.05C142.565 199.057 142.175 198.982 141.813 198.826C141.45 198.67 141.157 198.428 140.934 198.102C140.71 197.775 140.598 197.365 140.598 196.871V188.801ZM147.399 194.085V198.943H145.806V188.034H147.378V192.093H147.479C147.671 191.653 147.964 191.303 148.358 191.044C148.752 190.785 149.267 190.655 149.902 190.655C150.464 190.655 150.954 190.77 151.373 191.001C151.795 191.232 152.122 191.577 152.353 192.035C152.587 192.489 152.704 193.057 152.704 193.739V198.943H151.112V193.931C151.112 193.331 150.957 192.866 150.648 192.535C150.339 192.202 149.91 192.035 149.359 192.035C148.983 192.035 148.645 192.115 148.347 192.274C148.052 192.434 147.82 192.669 147.649 192.977C147.482 193.283 147.399 193.652 147.399 194.085ZM158.276 199.108C157.484 199.108 156.802 198.929 156.231 198.57C155.662 198.208 155.226 197.709 154.92 197.074C154.615 196.438 154.462 195.71 154.462 194.89C154.462 194.059 154.618 193.325 154.931 192.69C155.243 192.051 155.684 191.552 156.252 191.193C156.82 190.834 157.489 190.655 158.26 190.655C158.881 190.655 159.435 190.77 159.922 191.001C160.408 191.229 160.801 191.548 161.099 191.96C161.401 192.372 161.58 192.853 161.637 193.404H160.087C160.002 193.02 159.807 192.69 159.501 192.413C159.199 192.136 158.794 191.997 158.287 191.997C157.843 191.997 157.454 192.115 157.12 192.349C156.79 192.58 156.532 192.91 156.348 193.34C156.163 193.766 156.071 194.27 156.071 194.852C156.071 195.449 156.161 195.964 156.342 196.397C156.524 196.83 156.779 197.166 157.109 197.404C157.443 197.642 157.836 197.761 158.287 197.761C158.589 197.761 158.862 197.706 159.107 197.596C159.356 197.482 159.563 197.32 159.73 197.111C159.901 196.901 160.02 196.649 160.087 196.355H161.637C161.58 196.884 161.408 197.356 161.12 197.771C160.833 198.187 160.448 198.514 159.965 198.752C159.485 198.99 158.922 199.108 158.276 199.108ZM165.721 199.124C165.203 199.124 164.734 199.029 164.315 198.837C163.896 198.642 163.564 198.359 163.319 197.99C163.078 197.621 162.957 197.168 162.957 196.632C162.957 196.17 163.046 195.79 163.223 195.492C163.401 195.193 163.64 194.957 163.942 194.783C164.244 194.609 164.582 194.478 164.954 194.389C165.327 194.3 165.707 194.233 166.094 194.187C166.584 194.13 166.982 194.084 167.287 194.048C167.593 194.009 167.815 193.947 167.953 193.862C168.092 193.776 168.161 193.638 168.161 193.446V193.409C168.161 192.944 168.03 192.583 167.767 192.328C167.508 192.072 167.121 191.944 166.606 191.944C166.069 191.944 165.647 192.063 165.338 192.301C165.032 192.535 164.821 192.796 164.704 193.084L163.207 192.743C163.385 192.246 163.644 191.845 163.985 191.539C164.329 191.23 164.725 191.007 165.173 190.868C165.62 190.726 166.091 190.655 166.584 190.655C166.911 190.655 167.257 190.694 167.623 190.772C167.992 190.847 168.337 190.985 168.656 191.188C168.98 191.39 169.244 191.68 169.45 192.056C169.656 192.429 169.759 192.914 169.759 193.51V198.943H168.204V197.825H168.14C168.037 198.031 167.882 198.233 167.676 198.432C167.47 198.631 167.206 198.796 166.883 198.927C166.559 199.059 166.172 199.124 165.721 199.124ZM166.068 197.846C166.508 197.846 166.884 197.759 167.197 197.585C167.513 197.411 167.753 197.184 167.916 196.903C168.083 196.619 168.166 196.316 168.166 195.992V194.938C168.11 194.994 167.999 195.048 167.836 195.097C167.676 195.144 167.493 195.184 167.287 195.22C167.082 195.252 166.881 195.282 166.686 195.311C166.49 195.335 166.327 195.357 166.195 195.374C165.887 195.414 165.604 195.479 165.349 195.572C165.096 195.664 164.894 195.797 164.741 195.971C164.592 196.142 164.518 196.369 164.518 196.653C164.518 197.047 164.663 197.345 164.954 197.548C165.246 197.747 165.617 197.846 166.068 197.846ZM171.88 198.943V190.762H173.42V192.061H173.505C173.654 191.621 173.917 191.275 174.293 191.023C174.673 190.767 175.103 190.639 175.582 190.639C175.682 190.639 175.799 190.643 175.934 190.65C176.073 190.657 176.181 190.666 176.259 190.676V192.2C176.195 192.182 176.081 192.162 175.918 192.141C175.755 192.116 175.591 192.104 175.428 192.104C175.052 192.104 174.716 192.184 174.421 192.344C174.13 192.5 173.899 192.718 173.729 192.999C173.558 193.276 173.473 193.592 173.473 193.947V198.943H171.88ZM180.871 199.108C180.064 199.108 179.37 198.936 178.788 198.592C178.209 198.244 177.762 197.756 177.445 197.127C177.133 196.495 176.977 195.754 176.977 194.906C176.977 194.068 177.133 193.329 177.445 192.69C177.762 192.051 178.202 191.552 178.767 191.193C179.335 190.834 179.999 190.655 180.759 190.655C181.22 190.655 181.668 190.731 182.101 190.884C182.534 191.037 182.923 191.276 183.268 191.603C183.612 191.93 183.884 192.354 184.083 192.876C184.281 193.395 184.381 194.025 184.381 194.767V195.332H177.877V194.139H182.82C182.82 193.72 182.735 193.349 182.564 193.025C182.394 192.699 182.154 192.441 181.845 192.253C181.54 192.065 181.181 191.971 180.769 191.971C180.322 191.971 179.931 192.081 179.597 192.301C179.267 192.518 179.012 192.802 178.83 193.153C178.653 193.501 178.564 193.879 178.564 194.288V195.22C178.564 195.767 178.66 196.232 178.852 196.616C179.047 196.999 179.319 197.292 179.667 197.494C180.015 197.693 180.421 197.793 180.887 197.793C181.188 197.793 181.464 197.75 181.712 197.665C181.961 197.576 182.176 197.445 182.357 197.271C182.538 197.097 182.676 196.882 182.772 196.626L184.28 196.898C184.159 197.342 183.942 197.731 183.63 198.064C183.321 198.395 182.932 198.652 182.463 198.837C181.998 199.018 181.467 199.108 180.871 199.108ZM193.292 199.098C192.561 199.098 191.931 198.965 191.401 198.698C190.876 198.432 190.471 198.07 190.187 197.612C189.903 197.15 189.761 196.628 189.761 196.046C189.761 195.602 189.853 195.208 190.038 194.863C190.222 194.515 190.48 194.194 190.81 193.899C191.14 193.604 191.522 193.308 191.955 193.009L193.713 191.768C194.012 191.573 194.244 191.367 194.411 191.15C194.578 190.93 194.661 190.659 194.661 190.335C194.661 190.08 194.551 189.835 194.331 189.6C194.111 189.366 193.816 189.249 193.447 189.249C193.191 189.249 192.966 189.311 192.77 189.435C192.579 189.559 192.428 189.719 192.318 189.915C192.211 190.106 192.158 190.309 192.158 190.522C192.158 190.77 192.225 191.021 192.36 191.273C192.499 191.525 192.676 191.786 192.893 192.056C193.11 192.322 193.337 192.599 193.575 192.887L198.64 198.943H196.84L192.648 194.016C192.296 193.601 191.97 193.21 191.668 192.844C191.366 192.475 191.121 192.102 190.933 191.726C190.748 191.346 190.656 190.936 190.656 190.495C190.656 189.994 190.769 189.551 190.997 189.164C191.227 188.773 191.549 188.468 191.961 188.247C192.373 188.027 192.856 187.917 193.41 187.917C193.971 187.917 194.452 188.027 194.853 188.247C195.258 188.464 195.569 188.753 195.785 189.116C196.006 189.474 196.116 189.867 196.116 190.293C196.116 190.811 195.986 191.269 195.727 191.667C195.471 192.061 195.118 192.423 194.667 192.754L192.477 194.368C192.051 194.68 191.755 194.989 191.588 195.295C191.425 195.596 191.343 195.833 191.343 196.003C191.343 196.316 191.423 196.605 191.583 196.871C191.746 197.138 191.973 197.351 192.264 197.51C192.559 197.67 192.904 197.75 193.298 197.75C193.703 197.75 194.097 197.663 194.48 197.489C194.867 197.312 195.217 197.058 195.53 196.727C195.846 196.397 196.096 196.001 196.281 195.54C196.465 195.078 196.558 194.561 196.558 193.99H197.996C197.996 194.693 197.916 195.287 197.756 195.774C197.596 196.257 197.403 196.651 197.176 196.956C196.952 197.258 196.741 197.494 196.542 197.665C196.478 197.722 196.417 197.779 196.361 197.835C196.304 197.892 196.243 197.949 196.18 198.006C195.81 198.379 195.363 198.654 194.837 198.831C194.315 199.009 193.8 199.098 193.292 199.098ZM203.986 198.943V188.034H207.874C208.723 188.034 209.426 188.189 209.984 188.498C210.541 188.807 210.958 189.229 211.235 189.765C211.512 190.298 211.651 190.898 211.651 191.566C211.651 192.237 211.511 192.841 211.23 193.377C210.953 193.91 210.534 194.332 209.973 194.645C209.415 194.954 208.714 195.108 207.869 195.108H205.195V193.713H207.72C208.256 193.713 208.691 193.62 209.025 193.436C209.359 193.247 209.604 192.992 209.76 192.669C209.916 192.345 209.994 191.978 209.994 191.566C209.994 191.154 209.916 190.788 209.76 190.469C209.604 190.149 209.357 189.899 209.02 189.718C208.686 189.536 208.245 189.446 207.699 189.446H205.632V198.943H203.986ZM215.045 194.085V198.943H213.453V188.034H215.024V192.093H215.125C215.317 191.653 215.61 191.303 216.004 191.044C216.398 190.785 216.913 190.655 217.549 190.655C218.11 190.655 218.6 190.77 219.019 191.001C219.442 191.232 219.768 191.577 219.999 192.035C220.234 192.489 220.351 193.057 220.351 193.739V198.943H218.758V193.931C218.758 193.331 218.604 192.866 218.295 192.535C217.986 192.202 217.556 192.035 217.006 192.035C216.629 192.035 216.292 192.115 215.994 192.274C215.699 192.434 215.466 192.669 215.296 192.977C215.129 193.283 215.045 193.652 215.045 194.085ZM224.857 199.124C224.339 199.124 223.87 199.029 223.451 198.837C223.032 198.642 222.7 198.359 222.455 197.99C222.213 197.621 222.093 197.168 222.093 196.632C222.093 196.17 222.181 195.79 222.359 195.492C222.536 195.193 222.776 194.957 223.078 194.783C223.38 194.609 223.717 194.478 224.09 194.389C224.463 194.3 224.843 194.233 225.23 194.187C225.72 194.13 226.118 194.084 226.423 194.048C226.729 194.009 226.951 193.947 227.089 193.862C227.228 193.776 227.297 193.638 227.297 193.446V193.409C227.297 192.944 227.165 192.583 226.903 192.328C226.643 192.072 226.256 191.944 225.741 191.944C225.205 191.944 224.783 192.063 224.474 192.301C224.168 192.535 223.957 192.796 223.84 193.084L222.343 192.743C222.521 192.246 222.78 191.845 223.121 191.539C223.465 191.23 223.861 191.007 224.309 190.868C224.756 190.726 225.226 190.655 225.72 190.655C226.047 190.655 226.393 190.694 226.759 190.772C227.128 190.847 227.473 190.985 227.792 191.188C228.115 191.39 228.38 191.68 228.586 192.056C228.792 192.429 228.895 192.914 228.895 193.51V198.943H227.339V197.825H227.275C227.173 198.031 227.018 198.233 226.812 198.432C226.606 198.631 226.342 198.796 226.018 198.927C225.695 199.059 225.308 199.124 224.857 199.124ZM225.203 197.846C225.644 197.846 226.02 197.759 226.333 197.585C226.649 197.411 226.888 197.184 227.052 196.903C227.219 196.619 227.302 196.316 227.302 195.992V194.938C227.245 194.994 227.135 195.048 226.972 195.097C226.812 195.144 226.629 195.184 226.423 195.22C226.217 195.252 226.017 195.282 225.821 195.311C225.626 195.335 225.463 195.357 225.331 195.374C225.022 195.414 224.74 195.479 224.484 195.572C224.232 195.664 224.03 195.797 223.877 195.971C223.728 196.142 223.653 196.369 223.653 196.653C223.653 197.047 223.799 197.345 224.09 197.548C224.381 197.747 224.752 197.846 225.203 197.846ZM231.016 198.943V190.762H232.556V192.061H232.641C232.79 191.621 233.053 191.275 233.429 191.023C233.809 190.767 234.239 190.639 234.718 190.639C234.818 190.639 234.935 190.643 235.07 190.65C235.208 190.657 235.317 190.666 235.395 190.676V192.2C235.331 192.182 235.217 192.162 235.054 192.141C234.89 192.116 234.727 192.104 234.564 192.104C234.187 192.104 233.852 192.184 233.557 192.344C233.266 192.5 233.035 192.718 232.865 192.999C232.694 193.276 232.609 193.592 232.609 193.947V198.943H231.016ZM236.773 198.943V190.762H238.302V192.093H238.403C238.573 191.642 238.852 191.291 239.239 191.039C239.626 190.783 240.09 190.655 240.63 190.655C241.176 190.655 241.635 190.783 242.004 191.039C242.377 191.294 242.652 191.646 242.829 192.093H242.915C243.11 191.656 243.421 191.308 243.847 191.049C244.273 190.786 244.781 190.655 245.37 190.655C246.112 190.655 246.718 190.888 247.187 191.353C247.659 191.818 247.895 192.519 247.895 193.457V198.943H246.302V193.606C246.302 193.052 246.152 192.651 245.85 192.402C245.548 192.154 245.187 192.029 244.768 192.029C244.25 192.029 243.847 192.189 243.559 192.509C243.272 192.825 243.128 193.231 243.128 193.729V198.943H241.54V193.505C241.54 193.061 241.402 192.704 241.125 192.434C240.848 192.164 240.487 192.029 240.044 192.029C239.742 192.029 239.463 192.109 239.207 192.269C238.955 192.425 238.751 192.644 238.595 192.924C238.442 193.205 238.366 193.53 238.366 193.899V198.943H236.773ZM252.411 199.124C251.892 199.124 251.424 199.029 251.005 198.837C250.586 198.642 250.254 198.359 250.009 197.99C249.767 197.621 249.646 197.168 249.646 196.632C249.646 196.17 249.735 195.79 249.913 195.492C250.09 195.193 250.33 194.957 250.632 194.783C250.934 194.609 251.271 194.478 251.644 194.389C252.017 194.3 252.397 194.233 252.784 194.187C253.274 194.13 253.672 194.084 253.977 194.048C254.282 194.009 254.504 193.947 254.643 193.862C254.781 193.776 254.851 193.638 254.851 193.446V193.409C254.851 192.944 254.719 192.583 254.456 192.328C254.197 192.072 253.81 191.944 253.295 191.944C252.759 191.944 252.336 192.063 252.027 192.301C251.722 192.535 251.511 192.796 251.393 193.084L249.897 192.743C250.074 192.246 250.333 191.845 250.674 191.539C251.019 191.23 251.415 191.007 251.862 190.868C252.31 190.726 252.78 190.655 253.274 190.655C253.601 190.655 253.947 190.694 254.313 190.772C254.682 190.847 255.026 190.985 255.346 191.188C255.669 191.39 255.934 191.68 256.14 192.056C256.346 192.429 256.449 192.914 256.449 193.51V198.943H254.893V197.825H254.829C254.726 198.031 254.572 198.233 254.366 198.432C254.16 198.631 253.895 198.796 253.572 198.927C253.249 199.059 252.862 199.124 252.411 199.124ZM252.757 197.846C253.197 197.846 253.574 197.759 253.886 197.585C254.202 197.411 254.442 197.184 254.605 196.903C254.772 196.619 254.856 196.316 254.856 195.992V194.938C254.799 194.994 254.689 195.048 254.526 195.097C254.366 195.144 254.183 195.184 253.977 195.22C253.771 195.252 253.57 195.282 253.375 195.311C253.18 195.335 253.016 195.357 252.885 195.374C252.576 195.414 252.294 195.479 252.038 195.572C251.786 195.664 251.583 195.797 251.431 195.971C251.282 196.142 251.207 196.369 251.207 196.653C251.207 197.047 251.353 197.345 251.644 197.548C251.935 197.747 252.306 197.846 252.757 197.846ZM262.016 199.108C261.224 199.108 260.543 198.929 259.971 198.57C259.403 198.208 258.966 197.709 258.66 197.074C258.355 196.438 258.202 195.71 258.202 194.89C258.202 194.059 258.359 193.325 258.671 192.69C258.984 192.051 259.424 191.552 259.992 191.193C260.56 190.834 261.23 190.655 262 190.655C262.622 190.655 263.176 190.77 263.662 191.001C264.149 191.229 264.541 191.548 264.839 191.96C265.141 192.372 265.321 192.853 265.377 193.404H263.827C263.742 193.02 263.547 192.69 263.241 192.413C262.94 192.136 262.535 191.997 262.027 191.997C261.583 191.997 261.194 192.115 260.86 192.349C260.53 192.58 260.273 192.91 260.088 193.34C259.903 193.766 259.811 194.27 259.811 194.852C259.811 195.449 259.902 195.964 260.083 196.397C260.264 196.83 260.519 197.166 260.85 197.404C261.184 197.642 261.576 197.761 262.027 197.761C262.329 197.761 262.602 197.706 262.847 197.596C263.096 197.482 263.304 197.32 263.47 197.111C263.641 196.901 263.76 196.649 263.827 196.355H265.377C265.321 196.884 265.148 197.356 264.861 197.771C264.573 198.187 264.188 198.514 263.705 198.752C263.225 198.99 262.663 199.108 262.016 199.108ZM270.607 199.108C269.801 199.108 269.107 198.936 268.524 198.592C267.945 198.244 267.498 197.756 267.182 197.127C266.869 196.495 266.713 195.754 266.713 194.906C266.713 194.068 266.869 193.329 267.182 192.69C267.498 192.051 267.938 191.552 268.503 191.193C269.071 190.834 269.735 190.655 270.495 190.655C270.957 190.655 271.404 190.731 271.837 190.884C272.271 191.037 272.659 191.276 273.004 191.603C273.348 191.93 273.62 192.354 273.819 192.876C274.018 193.395 274.117 194.025 274.117 194.767V195.332H267.613V194.139H272.556C272.556 193.72 272.471 193.349 272.301 193.025C272.13 192.699 271.891 192.441 271.582 192.253C271.276 192.065 270.918 191.971 270.506 191.971C270.058 191.971 269.668 192.081 269.334 192.301C269.004 192.518 268.748 192.802 268.567 193.153C268.389 193.501 268.3 193.879 268.3 194.288V195.22C268.3 195.767 268.396 196.232 268.588 196.616C268.783 196.999 269.055 197.292 269.403 197.494C269.751 197.693 270.158 197.793 270.623 197.793C270.925 197.793 271.2 197.75 271.449 197.665C271.697 197.576 271.912 197.445 272.093 197.271C272.274 197.097 272.413 196.882 272.509 196.626L274.016 196.898C273.895 197.342 273.679 197.731 273.366 198.064C273.057 198.395 272.668 198.652 272.2 198.837C271.734 199.018 271.203 199.108 270.607 199.108ZM281.067 195.55V190.762H282.665V198.943H281.099V197.526H281.014C280.826 197.963 280.524 198.327 280.108 198.618C279.696 198.906 279.183 199.05 278.569 199.05C278.043 199.05 277.578 198.934 277.173 198.704C276.772 198.469 276.456 198.123 276.225 197.665C275.998 197.207 275.884 196.64 275.884 195.966V190.762H277.477V195.774C277.477 196.331 277.631 196.775 277.94 197.106C278.249 197.436 278.651 197.601 279.144 197.601C279.443 197.601 279.739 197.526 280.034 197.377C280.332 197.228 280.579 197.003 280.774 196.701C280.973 196.399 281.071 196.015 281.067 195.55ZM288.624 190.762V192.04H284.155V190.762H288.624ZM285.354 188.801H286.947V196.541C286.947 196.85 286.993 197.083 287.085 197.239C287.177 197.392 287.296 197.496 287.442 197.553C287.591 197.606 287.753 197.633 287.927 197.633C288.055 197.633 288.166 197.624 288.262 197.606C288.358 197.589 288.433 197.574 288.486 197.564L288.774 198.879C288.681 198.915 288.55 198.95 288.379 198.986C288.209 199.025 287.996 199.046 287.74 199.05C287.321 199.057 286.931 198.982 286.568 198.826C286.206 198.67 285.913 198.428 285.689 198.102C285.466 197.775 285.354 197.365 285.354 196.871V188.801ZM290.386 198.943V190.762H291.979V198.943H290.386ZM291.191 189.499C290.914 189.499 290.676 189.407 290.477 189.222C290.282 189.034 290.184 188.81 290.184 188.551C290.184 188.288 290.282 188.064 290.477 187.88C290.676 187.692 290.914 187.597 291.191 187.597C291.468 187.597 291.704 187.692 291.899 187.88C292.098 188.064 292.197 188.288 292.197 188.551C292.197 188.81 292.098 189.034 291.899 189.222C291.704 189.407 291.468 189.499 291.191 189.499ZM297.568 199.108C296.776 199.108 296.094 198.929 295.523 198.57C294.954 198.208 294.518 197.709 294.212 197.074C293.907 196.438 293.754 195.71 293.754 194.89C293.754 194.059 293.91 193.325 294.223 192.69C294.535 192.051 294.976 191.552 295.544 191.193C296.112 190.834 296.781 190.655 297.552 190.655C298.173 190.655 298.727 190.77 299.214 191.001C299.7 191.229 300.093 191.548 300.391 191.96C300.693 192.372 300.872 192.853 300.929 193.404H299.379C299.294 193.02 299.099 192.69 298.793 192.413C298.491 192.136 298.086 191.997 297.579 191.997C297.135 191.997 296.746 192.115 296.412 192.349C296.082 192.58 295.824 192.91 295.64 193.34C295.455 193.766 295.363 194.27 295.363 194.852C295.363 195.449 295.453 195.964 295.634 196.397C295.816 196.83 296.071 197.166 296.401 197.404C296.735 197.642 297.128 197.761 297.579 197.761C297.881 197.761 298.154 197.706 298.399 197.596C298.648 197.482 298.855 197.32 299.022 197.111C299.193 196.901 299.312 196.649 299.379 196.355H300.929C300.872 196.884 300.7 197.356 300.412 197.771C300.125 198.187 299.74 198.514 299.257 198.752C298.777 198.99 298.214 199.108 297.568 199.108ZM305.013 199.124C304.495 199.124 304.026 199.029 303.607 198.837C303.188 198.642 302.856 198.359 302.611 197.99C302.37 197.621 302.249 197.168 302.249 196.632C302.249 196.17 302.338 195.79 302.515 195.492C302.693 195.193 302.932 194.957 303.234 194.783C303.536 194.609 303.873 194.478 304.246 194.389C304.619 194.3 304.999 194.233 305.386 194.187C305.876 194.13 306.274 194.084 306.579 194.048C306.885 194.009 307.107 193.947 307.245 193.862C307.384 193.776 307.453 193.638 307.453 193.446V193.409C307.453 192.944 307.322 192.583 307.059 192.328C306.8 192.072 306.413 191.944 305.898 191.944C305.361 191.944 304.939 192.063 304.63 192.301C304.324 192.535 304.113 192.796 303.996 193.084L302.499 192.743C302.677 192.246 302.936 191.845 303.277 191.539C303.621 191.23 304.017 191.007 304.465 190.868C304.912 190.726 305.383 190.655 305.876 190.655C306.203 190.655 306.549 190.694 306.915 190.772C307.284 190.847 307.629 190.985 307.948 191.188C308.272 191.39 308.536 191.68 308.742 192.056C308.948 192.429 309.051 192.914 309.051 193.51V198.943H307.496V197.825H307.432C307.329 198.031 307.174 198.233 306.968 198.432C306.762 198.631 306.498 198.796 306.175 198.927C305.851 199.059 305.464 199.124 305.013 199.124ZM305.36 197.846C305.8 197.846 306.176 197.759 306.489 197.585C306.805 197.411 307.045 197.184 307.208 196.903C307.375 196.619 307.458 196.316 307.458 195.992V194.938C307.402 194.994 307.291 195.048 307.128 195.097C306.968 195.144 306.785 195.184 306.579 195.22C306.373 195.252 306.173 195.282 305.978 195.311C305.782 195.335 305.619 195.357 305.487 195.374C305.179 195.414 304.896 195.479 304.641 195.572C304.388 195.664 304.186 195.797 304.033 195.971C303.884 196.142 303.81 196.369 303.81 196.653C303.81 197.047 303.955 197.345 304.246 197.548C304.538 197.747 304.909 197.846 305.36 197.846ZM312.765 188.034V198.943H311.172V188.034H312.765Z" fill="white"/>
</svg>
