<svg width="24" height="25" viewBox="0 0 24 25" fill="none" xmlns="http://www.w3.org/2000/svg">
<path d="M6.2857 19.6567C3.91876 19.6567 1.99998 17.7605 1.99998 15.4214C1.99998 13.0824 3.91876 11.1862 6.2857 11.1862C6.56982 11.1862 6.84748 11.2135 7.11614 11.2656M14.3809 8.68395C14.9767 8.47585 15.6178 8.36262 16.2857 8.36262C16.9404 8.36262 17.5693 8.47142 18.1551 8.67172M7.11614 11.2656C6.88705 10.6545 6.76189 9.99361 6.76189 9.3038C6.76189 6.18501 9.32026 3.65674 12.4762 3.65674C15.4159 3.65674 17.8371 5.85045 18.1551 8.67172M7.11614 11.2656C7.68057 11.3751 8.20527 11.5941 8.66665 11.8993M18.1551 8.67172C20.3929 9.43697 22 11.5379 22 14.0097C22 16.7167 20.0726 18.9788 17.5 19.529" stroke="white" stroke-width="1.5" stroke-linecap="round"/>
<path d="M12 16.6567V22.6567M12 16.6567L14 18.6567M12 16.6567L10 18.6567" stroke="white" stroke-width="1.5" stroke-linecap="round" stroke-linejoin="round"/>
</svg>
