<svg width="628" height="203" viewBox="0 0 628 203" fill="none" xmlns="http://www.w3.org/2000/svg">
<path d="M0 187.393C28.2372 190.318 92.7621 188.212 124.964 156.389C136.379 147.029 168.221 137.67 180.838 137.67L456 135.33" stroke="url(#paint0_linear_33_500)" stroke-width="1.5"/>
<path d="M0 1.95418C28.2372 -0.970726 92.7621 1.1352 124.964 32.9581C136.379 42.3178 168.221 51.6775 180.838 51.6775L456 54.0174" stroke="url(#paint1_linear_33_500)" stroke-width="1.5"/>
<path d="M0 201.217C28.2372 204.142 92.7621 202.036 124.964 170.213C136.379 160.853 168.221 151.493 180.838 151.493L456 149.153" stroke="url(#paint2_linear_33_500)" stroke-width="1.5"/>
<path d="M0 16.9478C28.2372 14.0229 92.7621 16.1289 124.964 47.9518C136.379 57.3114 168.221 66.6711 180.838 66.6711L456 69.0111" stroke="url(#paint3_linear_33_500)" stroke-width="1.5"/>
<path d="M0 68.642C30.0395 67.472 95.1652 67.355 115.352 76.2467C135.538 85.1384 164.216 85.8013 176.032 85.0213H455.399" stroke="url(#paint4_linear_33_500)" stroke-width="1.5"/>
<path d="M0 135.571C30.0395 136.741 95.1652 136.858 115.352 127.967C135.538 119.075 164.216 118.412 176.032 119.192H455.399" stroke="url(#paint5_linear_33_500)" stroke-width="1.5"/>
<path d="M1.80231 102.571H454.798" stroke="url(#paint6_linear_33_500)" stroke-width="1.5"/>
<path d="M432 49C432 42.3726 437.373 37 444 37H628V167H444C437.373 167 432 161.627 432 155V49Z" fill="#191134"/>
<path d="M448 82C448 79.7909 449.791 78 452 78H612V86H452C449.791 86 448 84.2091 448 82Z" fill="url(#paint7_linear_33_500)"/>
<path d="M448.803 97.7273H450.135L452.45 103.381H452.535L454.85 97.7273H456.182V105H455.138V99.7372H455.071L452.926 104.989H452.059L449.914 99.7337H449.847V105H448.803V97.7273ZM459.99 105.11C459.479 105.11 459.032 104.993 458.651 104.759C458.27 104.524 457.974 104.196 457.763 103.775C457.553 103.353 457.447 102.861 457.447 102.298C457.447 101.732 457.553 101.237 457.763 100.813C457.974 100.389 458.27 100.06 458.651 99.826C459.032 99.5916 459.479 99.4744 459.99 99.4744C460.501 99.4744 460.948 99.5916 461.329 99.826C461.71 100.06 462.006 100.389 462.216 100.813C462.427 101.237 462.532 101.732 462.532 102.298C462.532 102.861 462.427 103.353 462.216 103.775C462.006 104.196 461.71 104.524 461.329 104.759C460.948 104.993 460.501 105.11 459.99 105.11ZM459.993 104.219C460.325 104.219 460.599 104.131 460.817 103.956C461.035 103.781 461.196 103.548 461.3 103.256C461.407 102.965 461.46 102.644 461.46 102.294C461.46 101.946 461.407 101.626 461.3 101.335C461.196 101.042 461.035 100.806 460.817 100.629C460.599 100.451 460.325 100.362 459.993 100.362C459.66 100.362 459.383 100.451 459.162 100.629C458.945 100.806 458.782 101.042 458.676 101.335C458.572 101.626 458.52 101.946 458.52 102.294C458.52 102.644 458.572 102.965 458.676 103.256C458.782 103.548 458.945 103.781 459.162 103.956C459.383 104.131 459.66 104.219 459.993 104.219ZM465.76 105.107C465.319 105.107 464.926 104.994 464.581 104.769C464.237 104.542 463.967 104.219 463.771 103.8C463.577 103.378 463.48 102.873 463.48 102.283C463.48 101.694 463.578 101.19 463.775 100.771C463.973 100.352 464.246 100.031 464.591 99.8082C464.937 99.5857 465.329 99.4744 465.767 99.4744C466.105 99.4744 466.377 99.5312 466.583 99.6449C466.792 99.7562 466.953 99.8864 467.066 100.036C467.182 100.185 467.272 100.316 467.336 100.43H467.4V97.7273H468.462V105H467.425V104.151H467.336C467.272 104.267 467.18 104.4 467.059 104.549C466.941 104.698 466.778 104.828 466.569 104.94C466.361 105.051 466.091 105.107 465.76 105.107ZM465.994 104.201C466.299 104.201 466.557 104.121 466.768 103.96C466.981 103.796 467.142 103.57 467.251 103.281C467.362 102.992 467.418 102.656 467.418 102.273C467.418 101.894 467.364 101.562 467.255 101.278C467.146 100.994 466.986 100.773 466.775 100.614C466.565 100.456 466.304 100.376 465.994 100.376C465.674 100.376 465.408 100.459 465.195 100.625C464.982 100.791 464.821 101.017 464.712 101.303C464.605 101.59 464.552 101.913 464.552 102.273C464.552 102.637 464.607 102.965 464.716 103.256C464.824 103.548 464.985 103.778 465.199 103.949C465.414 104.117 465.679 104.201 465.994 104.201ZM472.328 105.11C471.791 105.11 471.328 104.995 470.94 104.766C470.554 104.534 470.256 104.208 470.045 103.789C469.837 103.368 469.732 102.874 469.732 102.308C469.732 101.75 469.837 101.257 470.045 100.831C470.256 100.405 470.549 100.072 470.926 99.8331C471.304 99.594 471.747 99.4744 472.254 99.4744C472.561 99.4744 472.86 99.5253 473.149 99.6271C473.437 99.7289 473.697 99.8887 473.926 100.107C474.156 100.324 474.337 100.607 474.47 100.955C474.602 101.301 474.669 101.721 474.669 102.216V102.592H470.333V101.797H473.628C473.628 101.518 473.571 101.27 473.458 101.055C473.344 100.837 473.184 100.665 472.978 100.54C472.775 100.414 472.535 100.352 472.261 100.352C471.963 100.352 471.702 100.425 471.48 100.572C471.259 100.716 471.089 100.906 470.968 101.14C470.85 101.372 470.791 101.624 470.791 101.896V102.518C470.791 102.882 470.855 103.192 470.982 103.448C471.113 103.704 471.294 103.899 471.526 104.034C471.758 104.167 472.029 104.233 472.339 104.233C472.54 104.233 472.724 104.205 472.889 104.148C473.055 104.089 473.198 104.001 473.319 103.885C473.44 103.769 473.532 103.626 473.596 103.455L474.601 103.636C474.521 103.932 474.376 104.192 474.168 104.414C473.962 104.634 473.703 104.806 473.39 104.929C473.08 105.05 472.726 105.11 472.328 105.11ZM476.908 97.7273V105H475.847V97.7273H476.908ZM483.728 97.7273V105H482.627V98.8281H482.585L480.845 99.9645V98.9134L482.659 97.7273H483.728Z" fill="white" fill-opacity="0.8"/>
<path d="M491 101.5C491 99.8431 492.343 98.5 494 98.5H612V104.5H494C492.343 104.5 491 103.157 491 101.5Z" fill="url(#paint8_linear_33_500)"/>
<path d="M449.1 120.727H450.431L452.747 126.381H452.832L455.147 120.727H456.479V128H455.435V122.737H455.368L453.223 127.989H452.356L450.211 122.734H450.144V128H449.1V120.727ZM460.287 128.11C459.775 128.11 459.329 127.993 458.948 127.759C458.567 127.524 458.271 127.196 458.06 126.775C457.849 126.353 457.744 125.861 457.744 125.298C457.744 124.732 457.849 124.237 458.06 123.813C458.271 123.389 458.567 123.06 458.948 122.826C459.329 122.592 459.775 122.474 460.287 122.474C460.798 122.474 461.244 122.592 461.626 122.826C462.007 123.06 462.303 123.389 462.513 123.813C462.724 124.237 462.829 124.732 462.829 125.298C462.829 125.861 462.724 126.353 462.513 126.775C462.303 127.196 462.007 127.524 461.626 127.759C461.244 127.993 460.798 128.11 460.287 128.11ZM460.29 127.219C460.622 127.219 460.896 127.131 461.114 126.956C461.332 126.781 461.493 126.548 461.597 126.256C461.704 125.965 461.757 125.644 461.757 125.294C461.757 124.946 461.704 124.626 461.597 124.335C461.493 124.042 461.332 123.806 461.114 123.629C460.896 123.451 460.622 123.362 460.29 123.362C459.956 123.362 459.68 123.451 459.459 123.629C459.242 123.806 459.079 124.042 458.973 124.335C458.869 124.626 458.817 124.946 458.817 125.294C458.817 125.644 458.869 125.965 458.973 126.256C459.079 126.548 459.242 126.781 459.459 126.956C459.68 127.131 459.956 127.219 460.29 127.219ZM466.056 128.107C465.616 128.107 465.223 127.994 464.877 127.769C464.534 127.542 464.264 127.219 464.068 126.8C463.874 126.378 463.777 125.873 463.777 125.283C463.777 124.694 463.875 124.19 464.071 123.771C464.27 123.352 464.542 123.031 464.888 122.808C465.234 122.586 465.626 122.474 466.064 122.474C466.402 122.474 466.674 122.531 466.88 122.645C467.089 122.756 467.25 122.886 467.363 123.036C467.479 123.185 467.569 123.316 467.633 123.43H467.697V120.727H468.759V128H467.722V127.151H467.633C467.569 127.267 467.477 127.4 467.356 127.549C467.238 127.698 467.074 127.828 466.866 127.94C466.658 128.051 466.388 128.107 466.056 128.107ZM466.291 127.201C466.596 127.201 466.854 127.121 467.065 126.96C467.278 126.796 467.439 126.57 467.548 126.281C467.659 125.992 467.715 125.656 467.715 125.273C467.715 124.894 467.66 124.562 467.551 124.278C467.443 123.994 467.283 123.773 467.072 123.614C466.861 123.456 466.601 123.376 466.291 123.376C465.971 123.376 465.705 123.459 465.492 123.625C465.279 123.791 465.118 124.017 465.009 124.303C464.902 124.59 464.849 124.913 464.849 125.273C464.849 125.637 464.904 125.965 465.012 126.256C465.121 126.548 465.282 126.778 465.495 126.949C465.711 127.117 465.976 127.201 466.291 127.201ZM472.625 128.11C472.088 128.11 471.625 127.995 471.237 127.766C470.851 127.534 470.552 127.208 470.342 126.789C470.133 126.368 470.029 125.874 470.029 125.308C470.029 124.75 470.133 124.257 470.342 123.831C470.552 123.405 470.846 123.072 471.222 122.833C471.601 122.594 472.044 122.474 472.551 122.474C472.858 122.474 473.157 122.525 473.445 122.627C473.734 122.729 473.994 122.889 474.223 123.107C474.453 123.324 474.634 123.607 474.767 123.955C474.899 124.301 474.965 124.721 474.965 125.216V125.592H470.629V124.797H473.925C473.925 124.518 473.868 124.27 473.754 124.055C473.641 123.837 473.481 123.665 473.275 123.54C473.071 123.414 472.832 123.352 472.558 123.352C472.259 123.352 471.999 123.425 471.776 123.572C471.556 123.716 471.386 123.906 471.265 124.14C471.147 124.372 471.088 124.624 471.088 124.896V125.518C471.088 125.882 471.151 126.192 471.279 126.448C471.41 126.704 471.591 126.899 471.823 127.034C472.055 127.167 472.326 127.233 472.636 127.233C472.837 127.233 473.021 127.205 473.186 127.148C473.352 127.089 473.495 127.001 473.616 126.885C473.737 126.769 473.829 126.626 473.893 126.455L474.898 126.636C474.817 126.932 474.673 127.192 474.465 127.414C474.259 127.634 473.999 127.806 473.687 127.929C473.377 128.05 473.023 128.11 472.625 128.11ZM477.205 120.727V128H476.143V120.727H477.205ZM481.266 128V127.205L483.727 124.655C483.99 124.378 484.206 124.135 484.377 123.927C484.55 123.716 484.679 123.516 484.764 123.327C484.849 123.137 484.892 122.936 484.892 122.723C484.892 122.482 484.835 122.273 484.721 122.098C484.608 121.92 484.453 121.784 484.256 121.69C484.06 121.593 483.838 121.544 483.592 121.544C483.332 121.544 483.104 121.597 482.91 121.704C482.716 121.81 482.567 121.961 482.463 122.155C482.359 122.349 482.306 122.576 482.306 122.837H481.259C481.259 122.394 481.361 122.007 481.564 121.675C481.768 121.344 482.047 121.087 482.402 120.905C482.757 120.72 483.161 120.628 483.613 120.628C484.07 120.628 484.473 120.719 484.821 120.901C485.171 121.081 485.444 121.327 485.641 121.64C485.837 121.95 485.936 122.3 485.936 122.691C485.936 122.961 485.885 123.225 485.783 123.483C485.684 123.741 485.51 124.029 485.261 124.346C485.012 124.661 484.667 125.043 484.224 125.493L482.779 127.006V127.059H486.053V128H481.266Z" fill="white" fill-opacity="0.8"/>
<path d="M493 124.5C493 122.843 494.343 121.5 496 121.5H612V127.5H496C494.343 127.5 493 126.157 493 124.5Z" fill="url(#paint9_linear_33_500)"/>
<path d="M448.944 143.727H450.275L452.591 149.381H452.676L454.991 143.727H456.323V151H455.279V145.737H455.211L453.066 150.989H452.2L450.055 145.734H449.988V151H448.944V143.727ZM460.131 151.11C459.619 151.11 459.173 150.993 458.792 150.759C458.411 150.524 458.115 150.196 457.904 149.775C457.693 149.353 457.588 148.861 457.588 148.298C457.588 147.732 457.693 147.237 457.904 146.813C458.115 146.389 458.411 146.06 458.792 145.826C459.173 145.592 459.619 145.474 460.131 145.474C460.642 145.474 461.088 145.592 461.469 145.826C461.85 146.06 462.146 146.389 462.357 146.813C462.568 147.237 462.673 147.732 462.673 148.298C462.673 148.861 462.568 149.353 462.357 149.775C462.146 150.196 461.85 150.524 461.469 150.759C461.088 150.993 460.642 151.11 460.131 151.11ZM460.134 150.219C460.465 150.219 460.74 150.131 460.958 149.956C461.176 149.781 461.337 149.548 461.441 149.256C461.547 148.965 461.601 148.644 461.601 148.294C461.601 147.946 461.547 147.626 461.441 147.335C461.337 147.042 461.176 146.806 460.958 146.629C460.74 146.451 460.465 146.362 460.134 146.362C459.8 146.362 459.523 146.451 459.303 146.629C459.085 146.806 458.923 147.042 458.817 147.335C458.712 147.626 458.66 147.946 458.66 148.294C458.66 148.644 458.712 148.965 458.817 149.256C458.923 149.548 459.085 149.781 459.303 149.956C459.523 150.131 459.8 150.219 460.134 150.219ZM465.9 151.107C465.46 151.107 465.067 150.994 464.721 150.769C464.378 150.542 464.108 150.219 463.912 149.8C463.717 149.378 463.62 148.873 463.62 148.283C463.62 147.694 463.719 147.19 463.915 146.771C464.114 146.352 464.386 146.031 464.732 145.808C465.078 145.586 465.469 145.474 465.907 145.474C466.246 145.474 466.518 145.531 466.724 145.645C466.932 145.756 467.093 145.886 467.207 146.036C467.323 146.185 467.413 146.316 467.477 146.43H467.541V143.727H468.603V151H467.566V150.151H467.477C467.413 150.267 467.321 150.4 467.2 150.549C467.082 150.698 466.918 150.828 466.71 150.94C466.502 151.051 466.232 151.107 465.9 151.107ZM466.135 150.201C466.44 150.201 466.698 150.121 466.909 149.96C467.122 149.796 467.283 149.57 467.392 149.281C467.503 148.992 467.559 148.656 467.559 148.273C467.559 147.894 467.504 147.562 467.395 147.278C467.286 146.994 467.127 146.773 466.916 146.614C466.705 146.456 466.445 146.376 466.135 146.376C465.815 146.376 465.549 146.459 465.336 146.625C465.123 146.791 464.962 147.017 464.853 147.303C464.746 147.59 464.693 147.913 464.693 148.273C464.693 148.637 464.747 148.965 464.856 149.256C464.965 149.548 465.126 149.778 465.339 149.949C465.555 150.117 465.82 150.201 466.135 150.201ZM472.469 151.11C471.932 151.11 471.469 150.995 471.08 150.766C470.695 150.534 470.396 150.208 470.186 149.789C469.977 149.368 469.873 148.874 469.873 148.308C469.873 147.75 469.977 147.257 470.186 146.831C470.396 146.405 470.69 146.072 471.066 145.833C471.445 145.594 471.888 145.474 472.394 145.474C472.702 145.474 473 145.525 473.289 145.627C473.578 145.729 473.837 145.889 474.067 146.107C474.297 146.324 474.478 146.607 474.61 146.955C474.743 147.301 474.809 147.721 474.809 148.216V148.592H470.473V147.797H473.769C473.769 147.518 473.712 147.27 473.598 147.055C473.485 146.837 473.325 146.665 473.119 146.54C472.915 146.414 472.676 146.352 472.401 146.352C472.103 146.352 471.843 146.425 471.62 146.572C471.4 146.716 471.23 146.906 471.109 147.14C470.99 147.372 470.931 147.624 470.931 147.896V148.518C470.931 148.882 470.995 149.192 471.123 149.448C471.253 149.704 471.434 149.899 471.666 150.034C471.898 150.167 472.169 150.233 472.48 150.233C472.681 150.233 472.864 150.205 473.03 150.148C473.196 150.089 473.339 150.001 473.46 149.885C473.58 149.769 473.673 149.626 473.737 149.455L474.742 149.636C474.661 149.932 474.517 150.192 474.308 150.414C474.102 150.634 473.843 150.806 473.531 150.929C473.221 151.05 472.867 151.11 472.469 151.11ZM477.049 143.727V151H475.987V143.727H477.049ZM483.642 151.099C483.154 151.099 482.718 151.015 482.335 150.847C481.954 150.679 481.652 150.446 481.429 150.148C481.209 149.847 481.091 149.499 481.074 149.104H482.189C482.203 149.319 482.276 149.506 482.406 149.665C482.538 149.821 482.711 149.942 482.924 150.027C483.137 150.112 483.374 150.155 483.635 150.155C483.921 150.155 484.174 150.105 484.395 150.006C484.617 149.906 484.791 149.768 484.917 149.59C485.042 149.41 485.105 149.203 485.105 148.969C485.105 148.725 485.042 148.511 484.917 148.326C484.793 148.139 484.612 147.992 484.373 147.886C484.136 147.779 483.85 147.726 483.514 147.726H482.9V146.831H483.514C483.784 146.831 484.02 146.782 484.224 146.685C484.43 146.588 484.591 146.453 484.707 146.281C484.823 146.105 484.881 145.901 484.881 145.666C484.881 145.441 484.83 145.246 484.728 145.08C484.629 144.912 484.487 144.781 484.302 144.686C484.12 144.591 483.904 144.544 483.656 144.544C483.419 144.544 483.198 144.588 482.992 144.675C482.788 144.761 482.623 144.884 482.495 145.045C482.367 145.203 482.298 145.394 482.289 145.616H481.227C481.239 145.223 481.355 144.878 481.575 144.58C481.797 144.281 482.091 144.048 482.456 143.88C482.82 143.712 483.225 143.628 483.67 143.628C484.136 143.628 484.539 143.719 484.877 143.901C485.218 144.081 485.481 144.321 485.666 144.622C485.853 144.923 485.945 145.252 485.943 145.609C485.945 146.017 485.832 146.362 485.602 146.646C485.375 146.93 485.072 147.121 484.693 147.218V147.275C485.176 147.348 485.55 147.54 485.815 147.85C486.083 148.16 486.215 148.545 486.213 149.004C486.215 149.404 486.104 149.763 485.879 150.08C485.656 150.397 485.352 150.647 484.966 150.83C484.58 151.009 484.139 151.099 483.642 151.099Z" fill="white" fill-opacity="0.8"/>
<path d="M493 147.5C493 145.843 494.343 144.5 496 144.5H612V150.5H496C494.343 150.5 493 149.157 493 147.5Z" fill="url(#paint10_linear_33_500)"/>
<path d="M459 56.5L455.31 60.1673C454.811 60.6631 454.562 60.911 454.253 60.911C453.943 60.911 453.694 60.663 453.195 60.1671L453.075 60.0481C452.576 59.5517 452.327 59.3036 452.017 59.3037C451.708 59.3038 451.458 59.5522 450.959 60.0489L449 62M459 56.5V59.2729M459 56.5H456.209" stroke="#28AD49" stroke-opacity="0.9" stroke-width="0.7" stroke-linecap="round" stroke-linejoin="round"/>
<path d="M465.013 62V61.2386L467.033 59.2585C467.226 59.0634 467.387 58.8902 467.516 58.7386C467.645 58.5871 467.741 58.4403 467.806 58.2983C467.87 58.1562 467.902 58.0047 467.902 57.8438C467.902 57.66 467.861 57.5028 467.777 57.3722C467.694 57.2396 467.579 57.1373 467.434 57.0653C467.288 56.9934 467.122 56.9574 466.936 56.9574C466.745 56.9574 466.578 56.9972 466.434 57.0767C466.29 57.1544 466.178 57.2652 466.098 57.4091C466.021 57.553 465.982 57.7244 465.982 57.9233H464.979C464.979 57.554 465.063 57.233 465.232 56.9602C465.4 56.6875 465.632 56.4763 465.928 56.3267C466.225 56.1771 466.566 56.1023 466.951 56.1023C467.341 56.1023 467.684 56.1752 467.979 56.321C468.275 56.4669 468.504 56.6667 468.667 56.9205C468.831 57.1742 468.914 57.464 468.914 57.7898C468.914 58.0076 468.872 58.2216 468.789 58.4318C468.705 58.642 468.559 58.875 468.348 59.1307C468.14 59.3864 467.847 59.696 467.471 60.0597L466.468 61.0795V61.1193H469.002V62H465.013ZM469.982 62V61.2386L472.002 59.2585C472.195 59.0634 472.356 58.8902 472.485 58.7386C472.614 58.5871 472.71 58.4403 472.775 58.2983C472.839 58.1562 472.871 58.0047 472.871 57.8438C472.871 57.66 472.829 57.5028 472.746 57.3722C472.663 57.2396 472.548 57.1373 472.402 57.0653C472.257 56.9934 472.091 56.9574 471.905 56.9574C471.714 56.9574 471.546 56.9972 471.402 57.0767C471.258 57.1544 471.147 57.2652 471.067 57.4091C470.989 57.553 470.951 57.7244 470.951 57.9233H469.948C469.948 57.554 470.032 57.233 470.201 56.9602C470.369 56.6875 470.601 56.4763 470.897 56.3267C471.194 56.1771 471.535 56.1023 471.919 56.1023C472.31 56.1023 472.652 56.1752 472.948 56.321C473.243 56.4669 473.472 56.6667 473.635 56.9205C473.8 57.1742 473.882 57.464 473.882 57.7898C473.882 58.0076 473.841 58.2216 473.757 58.4318C473.674 58.642 473.527 58.875 473.317 59.1307C473.109 59.3864 472.816 59.696 472.439 60.0597L471.436 61.0795V61.1193H473.971V62H469.982ZM476.169 61.2045L476.132 61.517C476.106 61.7557 476.059 61.9981 475.99 62.2443C475.924 62.4924 475.854 62.7206 475.78 62.929C475.706 63.1373 475.647 63.3011 475.601 63.4205H474.908C474.935 63.3049 474.971 63.1477 475.016 62.9489C475.063 62.75 475.109 62.5265 475.152 62.2784C475.196 62.0303 475.225 61.7784 475.24 61.5227L475.26 61.2045H476.169ZM479.214 62.0795C478.936 62.0777 478.664 62.0294 478.399 61.9347C478.134 61.8381 477.895 61.6818 477.683 61.4659C477.471 61.2481 477.302 60.9593 477.177 60.5994C477.052 60.2377 476.991 59.7898 476.993 59.2557C476.993 58.7576 477.046 58.3134 477.152 57.9233C477.258 57.5331 477.41 57.2036 477.609 56.9347C477.808 56.6638 478.047 56.4574 478.328 56.3153C478.61 56.1733 478.925 56.1023 479.274 56.1023C479.639 56.1023 479.963 56.1742 480.245 56.3182C480.529 56.4621 480.759 56.6591 480.933 56.9091C481.107 57.1572 481.215 57.4375 481.257 57.75H480.22C480.167 57.5265 480.058 57.3485 479.893 57.2159C479.73 57.0814 479.524 57.0142 479.274 57.0142C478.87 57.0142 478.56 57.1894 478.342 57.5398C478.126 57.8902 478.017 58.3712 478.015 58.983H478.055C478.148 58.8163 478.268 58.6733 478.416 58.554C478.564 58.4347 478.73 58.3428 478.916 58.2784C479.103 58.2121 479.301 58.179 479.51 58.179C479.85 58.179 480.156 58.2604 480.427 58.4233C480.7 58.5862 480.916 58.8106 481.075 59.0966C481.234 59.3807 481.313 59.7064 481.311 60.0739C481.313 60.4564 481.225 60.8002 481.049 61.1051C480.873 61.4081 480.628 61.6468 480.314 61.821C479.999 61.9953 479.633 62.0814 479.214 62.0795ZM479.208 61.2273C479.415 61.2273 479.6 61.1771 479.762 61.0767C479.925 60.9763 480.054 60.8409 480.149 60.6705C480.243 60.5 480.29 60.3087 480.288 60.0966C480.29 59.8883 480.244 59.6998 480.152 59.5312C480.061 59.3627 479.935 59.2292 479.774 59.1307C479.613 59.0322 479.429 58.983 479.223 58.983C479.069 58.983 478.926 59.0123 478.794 59.071C478.661 59.1297 478.546 59.2112 478.447 59.3153C478.349 59.4176 478.271 59.5369 478.214 59.6733C478.159 59.8078 478.131 59.9517 478.129 60.1051C478.131 60.3078 478.178 60.4943 478.271 60.6648C478.364 60.8352 478.492 60.9716 478.654 61.0739C478.817 61.1761 479.002 61.2273 479.208 61.2273ZM485.382 60.9091V60.6023C485.382 60.3769 485.429 60.1695 485.524 59.9801C485.62 59.7907 485.761 59.6383 485.944 59.5227C486.128 59.4072 486.35 59.3494 486.612 59.3494C486.881 59.3494 487.106 59.4072 487.288 59.5227C487.47 59.6364 487.607 59.7879 487.7 59.9773C487.795 60.1667 487.842 60.375 487.842 60.6023V60.9091C487.842 61.1345 487.795 61.3419 487.7 61.5312C487.605 61.7206 487.466 61.8731 487.282 61.9886C487.1 62.1042 486.877 62.1619 486.612 62.1619C486.347 62.1619 486.122 62.1042 485.939 61.9886C485.755 61.8731 485.616 61.7206 485.521 61.5312C485.428 61.3419 485.382 61.1345 485.382 60.9091ZM486.123 60.6023V60.9091C486.123 61.0587 486.159 61.196 486.231 61.321C486.303 61.446 486.43 61.5085 486.612 61.5085C486.796 61.5085 486.922 61.447 486.99 61.3239C487.06 61.1989 487.095 61.0606 487.095 60.9091V60.6023C487.095 60.4508 487.062 60.3125 486.995 60.1875C486.929 60.0606 486.801 59.9972 486.612 59.9972C486.434 59.9972 486.308 60.0606 486.234 60.1875C486.16 60.3125 486.123 60.4508 486.123 60.6023ZM482.424 57.5795V57.2727C482.424 57.0455 482.473 56.8371 482.569 56.6477C482.666 56.4583 482.806 56.3068 482.99 56.1932C483.173 56.0777 483.396 56.0199 483.657 56.0199C483.924 56.0199 484.149 56.0777 484.331 56.1932C484.514 56.3068 484.653 56.4583 484.745 56.6477C484.838 56.8371 484.885 57.0455 484.885 57.2727V57.5795C484.885 57.8068 484.837 58.0152 484.743 58.2045C484.65 58.392 484.511 58.5426 484.328 58.6562C484.144 58.7699 483.921 58.8267 483.657 58.8267C483.39 58.8267 483.165 58.7699 482.981 58.6562C482.799 58.5426 482.661 58.3911 482.566 58.2017C482.472 58.0123 482.424 57.8049 482.424 57.5795ZM483.172 57.2727V57.5795C483.172 57.7311 483.207 57.8693 483.277 57.9943C483.349 58.1174 483.475 58.179 483.657 58.179C483.839 58.179 483.964 58.1174 484.032 57.9943C484.102 57.8693 484.137 57.7311 484.137 57.5795V57.2727C484.137 57.1212 484.104 56.983 484.038 56.858C483.972 56.7311 483.845 56.6676 483.657 56.6676C483.477 56.6676 483.351 56.7311 483.279 56.858C483.208 56.9848 483.172 57.1231 483.172 57.2727ZM482.748 62L486.748 56.1818H487.458L483.458 62H482.748Z" fill="#28AD49" fill-opacity="0.9"/>
<mask id="mask0_33_500" style="mask-type:luminance" maskUnits="userSpaceOnUse" x="212" y="23" width="157" height="157">
<path d="M329.743 23H251.248C229.572 23 212 40.5718 212 62.2477V140.743C212 162.419 229.572 179.991 251.248 179.991H329.743C351.419 179.991 368.991 162.419 368.991 140.743V62.2477C368.991 40.5718 351.419 23 329.743 23Z" fill="white"/>
</mask>
<g mask="url(#mask0_33_500)">
<path d="M329.491 23.1094H250.995C229.319 23.1094 211.748 40.6812 211.748 62.3571V140.853C211.748 162.529 229.319 180.1 250.995 180.1H329.491C351.167 180.1 368.739 162.529 368.739 140.853V62.3571C368.739 40.6812 351.167 23.1094 329.491 23.1094Z" fill="#080411"/>
<g filter="url(#filter0_f_33_500)">
<path d="M423.265 165.381C365.678 163.409 320.536 116.78 322.438 61.2318C324.34 5.68369 372.566 -37.7483 430.154 -35.7763C487.741 -33.8042 532.883 12.8251 530.981 68.3732C529.079 123.921 480.853 167.353 423.265 165.381Z" fill="url(#paint11_linear_33_500)"/>
</g>
<g filter="url(#filter1_f_33_500)">
<path d="M298.918 77.8602C241.281 56.8919 209.961 -2.4484 228.963 -54.68C247.965 -106.912 310.093 -132.256 367.73 -111.287C425.367 -90.319 456.687 -30.9787 437.685 21.2529C418.683 73.4845 356.555 98.8285 298.918 77.8602Z" fill="url(#paint12_linear_33_500)"/>
</g>
<g clip-path="url(#clip0_33_500)">
<path d="M270.15 87.9524H270.638L271.405 88.2313L271.963 88.8588L272.172 89.3468V90.1835L271.963 90.6715L271.475 91.2293L270.917 91.5082L270.289 91.5779L269.662 91.4385L269.243 91.1596L268.825 90.6715L268.616 90.1138V89.4165L268.825 88.8588L269.313 88.301L269.871 88.0221L270.15 87.9524Z" fill="white"/>
<path d="M314.772 86.9763H315.678L316.375 87.3249L316.794 87.813L317.003 88.2313V89.2771L316.515 90.0441L315.957 90.3927L315.469 90.5321H314.911L314.214 90.2532L313.726 89.7652L313.447 89.068V88.3708L313.865 87.5341L314.284 87.1855L314.772 86.9763Z" fill="white"/>
<path d="M292.949 51.1394L293.576 51.2091L294.134 51.4183L294.692 51.9761L294.901 52.4641L294.971 53.1613L294.692 53.9283L294.343 54.3466L293.855 54.6255L293.576 54.6952H292.74L292.182 54.486L291.833 54.2072L291.485 53.6494L291.345 53.2311V52.743L291.624 51.9761L292.042 51.488L292.67 51.2091L292.949 51.1394Z" fill="white"/>
<path d="M309.054 87.2551L309.682 87.3248L310.379 87.7432L310.728 88.301L310.798 88.5798V89.2771L310.519 89.8348L310.24 90.1834L309.682 90.4623L308.985 90.532L308.357 90.3229L307.939 89.9743L307.59 89.2771V88.5101L307.869 87.8826L308.357 87.4643L309.054 87.2551Z" fill="white"/>
<path d="M295.319 56.3684H295.947L296.574 56.6473L297.062 57.2051L297.202 57.5537V58.4601L296.783 59.1573L296.226 59.5059L295.947 59.5756H295.25L294.762 59.3664L294.413 59.0876L294.064 58.3903L293.995 57.7628L294.273 57.0656L294.622 56.717L294.901 56.5079L295.319 56.3684Z" fill="white"/>
<path d="M312.471 92.4146L313.168 92.4843L313.726 92.8329L314.074 93.2512L314.214 93.6695V94.297L313.935 94.8548L313.656 95.2034L313.029 95.4823L312.68 95.552L312.052 95.4126L311.634 95.1337L311.286 94.7154L311.146 94.4365V93.5301L311.425 92.9723L311.843 92.6237L312.471 92.4146Z" fill="white"/>
<path d="M273.218 83.1416H273.775L274.333 83.3508L274.751 83.6994L275.03 84.2571L275.1 84.6755L274.891 85.4424L274.542 85.8607L273.984 86.1396H273.148L272.52 85.8607L272.102 85.2333L272.032 84.8846V84.3966L272.241 83.8388L272.59 83.4205L273.218 83.1416Z" fill="white"/>
<path d="M298.457 51.1394L299.084 51.2091L299.642 51.488L300.06 52.0458L300.2 52.4641L300.13 53.0916L299.921 53.5099L299.572 53.8585L299.293 54.0677L299.015 54.1374H298.248L297.829 53.9283L297.481 53.5797L297.202 53.0916V52.255L297.481 51.6972L297.899 51.3486L298.457 51.1394Z" fill="white"/>
<path d="M267.012 83.2114H267.57L268.267 83.4903L268.686 84.0481L268.755 84.2573V85.0939L268.337 85.7214L267.988 86.0003L267.222 86.1397L266.664 86.0003L266.245 85.7214L265.897 85.0939L265.827 84.4664L266.036 83.9086L266.385 83.4903L266.733 83.2811L267.012 83.2114Z" fill="white"/>
<path d="M304.035 52.5339L304.801 52.6037L305.359 52.9523L305.708 53.51L305.778 54.1375L305.568 54.765L305.22 55.1136L304.941 55.3228L304.453 55.4622L303.756 55.3925L303.337 55.1136L302.989 54.6953L302.849 54.277V53.6495L303.128 53.022L303.756 52.6037L304.035 52.5339Z" fill="white"/>
<path d="M308.706 96.8071H309.194L309.891 97.086L310.24 97.5043L310.379 97.853V98.6199L310.1 99.1079L309.612 99.5263L309.403 99.596H308.566L308.148 99.3868L307.73 98.8988L307.59 98.5502V97.853L307.869 97.2952L308.288 96.9466L308.706 96.8071Z" fill="white"/>
<path d="M265.2 72.1255H265.688L266.245 72.3347L266.664 72.8227L266.803 73.3108L266.733 73.8685L266.385 74.4263L266.106 74.6355L265.827 74.7052H264.99L264.502 74.4263L264.154 73.8685L264.014 73.3805L264.293 72.6833L264.781 72.2649L265.2 72.1255Z" fill="white"/>
<path d="M309.264 55.4622L309.891 55.6016L310.449 56.0897L310.588 56.4383V57.2749L310.1 57.9024L309.682 58.1116L309.194 58.1813L308.566 57.9721L308.078 57.4144L307.939 56.9263L308.009 56.4383L308.288 55.9502L308.636 55.6713L309.264 55.4622Z" fill="white"/>
<path d="M300.827 57.3445H301.315L301.873 57.5536L302.291 58.1114L302.431 58.7389L302.222 59.3664L301.873 59.715L301.525 59.9242H300.618L300.06 59.5756L299.782 59.0178L299.712 58.5995L299.921 57.972L300.2 57.6234L300.548 57.4142L300.827 57.3445Z" fill="white"/>
<path d="M265.618 78.1917L266.245 78.2614L266.664 78.5403L267.012 78.9586L267.082 79.2375V79.7952L266.873 80.2136L266.524 80.5622L266.176 80.7714H265.478L265.06 80.5622L264.642 80.0741L264.502 79.4466L264.712 78.8191L264.99 78.4705L265.339 78.2614L265.618 78.1917Z" fill="white"/>
<path d="M271.335 78.2612L271.963 78.4007L272.311 78.6098L272.59 79.0282L272.66 79.3071V79.7951L272.381 80.3529L271.963 80.7015L271.753 80.7712H271.056L270.568 80.4923L270.22 80.0043L270.15 79.3071L270.429 78.7493L270.847 78.4007L271.335 78.2612Z" fill="white"/>
<path d="M302.152 88.0222H302.64L303.198 88.3011L303.546 88.7194L303.616 88.9286V89.6258L303.337 90.0441L302.919 90.3928L302.64 90.5322H302.152L301.664 90.323L301.246 89.835L301.106 89.4166L301.176 88.8589L301.455 88.3708L301.873 88.0919L302.152 88.0222Z" fill="white"/>
<path d="M299.015 62.5039L299.572 62.5736L299.991 62.7828L300.339 63.2011L300.479 63.5497L300.409 64.1772L300.13 64.6653L299.642 64.9442L299.433 65.0139H298.875L298.457 64.8047L298.108 64.3864L297.969 63.9681V63.48L298.248 62.9222L298.596 62.6433L299.015 62.5039Z" fill="white"/>
<path d="M306.056 92.2056L306.684 92.2753L307.242 92.6239L307.451 92.9725L307.521 93.2514V93.7394L307.242 94.2275L306.823 94.5761L306.475 94.7155L305.778 94.6458L305.29 94.2972L305.08 93.9486L305.011 93.2514L305.29 92.6239L305.778 92.2753L306.056 92.2056Z" fill="white"/>
<path d="M304.035 100.642H304.662L305.22 100.92L305.499 101.269L305.638 101.757L305.568 102.385L305.08 102.942L304.871 103.082L304.383 103.152L303.825 103.012L303.337 102.594L303.128 102.036V101.548L303.477 100.99L304.035 100.642Z" fill="white"/>
<path d="M306.056 59.7849L306.614 59.9244L307.033 60.2032L307.311 60.6913L307.381 61.1793L307.172 61.7371L306.823 62.0857L306.196 62.3646L305.568 62.2252L305.011 61.7371L304.871 61.3188V60.761L305.15 60.2032L305.708 59.8546L306.056 59.7849Z" fill="white"/>
<path d="M298.666 102.594L299.363 102.664L299.781 102.943L300.06 103.431V104.128L299.781 104.616L299.433 104.895L299.015 105.034L298.457 104.965L297.969 104.616L297.76 104.267L297.69 103.57L297.899 103.082L298.317 102.733L298.666 102.594Z" fill="white"/>
<path d="M313.238 59.4363H313.796L314.353 59.7152L314.632 60.0638L314.772 60.4821L314.702 60.9702L314.423 61.3885L314.005 61.7371L313.796 61.8068H313.307L312.819 61.5976L312.471 61.1793L312.331 60.8307V60.3427L312.68 59.7849L313.029 59.506L313.238 59.4363Z" fill="white"/>
<path d="M304.383 64.5261H304.941L305.429 64.7353L305.778 65.1536L305.847 65.2931V66.1297L305.429 66.6875L304.871 66.8967L304.244 66.8269L303.756 66.4783L303.477 65.9206L303.546 65.2931L303.825 64.8747L304.174 64.5958L304.383 64.5261Z" fill="white"/>
<path d="M301.525 95.4128H302.152L302.71 95.6917L302.989 96.1101L303.058 96.8073L302.78 97.2953L302.361 97.6439L302.013 97.7834L301.455 97.7137L300.967 97.365L300.758 97.0164L300.688 96.3192L300.967 95.7614L301.315 95.4826L301.525 95.4128Z" fill="white"/>
<path d="M276.494 77.4944H276.983L277.471 77.7035L277.819 78.0522L277.959 78.4008V78.9585L277.749 79.3769L277.331 79.7255L277.122 79.7952H276.355L275.867 79.4466L275.658 79.098L275.588 78.5402L275.797 77.9824L276.285 77.5641L276.494 77.4944Z" fill="white"/>
<path d="M270.708 72.9622H271.196L271.684 73.1713L272.032 73.5897L272.102 73.7291V74.4263L271.823 74.9144L271.475 75.1932L271.265 75.263H270.638L270.22 75.0538L269.871 74.6355L269.801 74.3566V73.8685L270.01 73.3805L270.429 73.0319L270.708 72.9622Z" fill="white"/>
<path d="M266.245 66.8965L266.873 66.9662L267.291 67.2451L267.5 67.524L267.57 68.1515L267.291 68.7092L266.873 68.9881L266.245 69.0579L265.757 68.779L265.409 68.2212V67.7331L265.618 67.3148L266.036 66.9662L266.245 66.8965Z" fill="white"/>
<path d="M316.515 64.3867L317.212 64.4564L317.7 64.8748L317.839 65.2234V65.7114L317.421 66.3389L316.933 66.5481L316.375 66.4784L316.027 66.2692L315.748 65.8509L315.678 65.2234L316.027 64.6656L316.306 64.4564L316.515 64.3867Z" fill="white"/>
<path d="M309.821 63.8984H310.379L310.867 64.1076L311.146 64.5259L311.216 64.9443L311.076 65.4323L310.728 65.8506L310.449 65.9901H309.752L309.333 65.7112L309.124 65.4323L309.054 65.1534V64.6654L309.264 64.247L309.612 63.9682L309.821 63.8984Z" fill="white"/>
<path d="M275.658 71.8467L276.216 71.9164L276.634 72.1953L276.843 72.5439V73.2411L276.494 73.7989L275.937 74.008L275.239 73.8686L274.891 73.52L274.751 73.1714V72.6833L274.961 72.265L275.379 71.9164L275.658 71.8467Z" fill="white"/>
<path d="M272.032 67.6633L272.59 67.7331L273.008 68.0119L273.218 68.2211L273.287 68.9183L273.008 69.4761L272.799 69.6853L272.172 69.8247L271.684 69.6853L271.335 69.3366L271.126 68.8486L271.265 68.2211L271.544 67.8725L272.032 67.6633Z" fill="white"/>
<path d="M318.676 69.5461L319.304 69.6856L319.652 69.9645L319.792 70.1736V70.8709L319.443 71.3589L319.025 71.5681L318.467 71.4983L318.049 71.2195L317.839 70.8011V70.3131L318.049 69.8948L318.397 69.6159L318.676 69.5461Z" fill="white"/>
<path d="M292.879 103.431H293.437L293.855 103.64L294.134 103.988L294.204 104.546L293.995 105.034L293.785 105.243H293.646V105.383H292.809L292.321 104.825L292.252 104.616V104.128L292.461 103.71L292.879 103.431Z" fill="white"/>
<path d="M306.684 69.0579H307.172L307.59 69.267L307.869 69.6156L307.939 70.1734L307.73 70.5917L307.311 70.9403L307.172 71.0101H306.684L306.196 70.7312L305.917 70.1734L305.987 69.6854L306.266 69.267L306.684 69.0579Z" fill="white"/>
<path d="M312.471 68.6394L312.959 68.7091L313.308 68.9183L313.586 69.2669L313.656 69.8247L313.377 70.3127L313.029 70.5916H312.262L311.774 70.1733L311.634 69.5458L311.913 68.988L312.262 68.7091L312.471 68.6394Z" fill="white"/>
<path d="M297.829 92.2056L298.387 92.2753L298.805 92.5542L299.015 93.0422L298.945 93.6L298.527 94.0881L298.387 94.1578H297.69L297.341 93.9486L297.132 93.6697L297.062 93.0422L297.272 92.5542L297.62 92.2753L297.829 92.2056Z" fill="white"/>
<path d="M296.435 97.574H296.923L297.481 97.8529L297.69 98.4106L297.62 98.9684L297.341 99.317L297.132 99.4565L296.574 99.5262L296.086 99.317L295.807 98.9684L295.738 98.3409L295.947 97.9226L296.295 97.6437L296.435 97.574Z" fill="white"/>
<path d="M293.158 92.6238H293.646L294.064 92.9027L294.273 93.1118L294.343 93.6696L294.134 94.0879L293.716 94.4365H293.088L292.6 94.0182L292.461 93.7393V93.321L292.74 92.8329L293.158 92.6238Z" fill="white"/>
<path d="M268.965 61.6672L269.383 61.737L269.731 61.9461L270.01 62.2947L270.08 62.6433L269.871 63.1314L269.522 63.48L268.965 63.5497L268.546 63.3406L268.267 62.9919L268.198 62.8525V62.3645L268.476 61.9461L268.755 61.737L268.965 61.6672Z" fill="white"/>
<path d="M291.136 97.9922L291.694 98.0619L292.112 98.4105L292.252 98.7591L292.112 99.3866L291.833 99.7352L291.694 99.8049H290.997L290.509 99.3866L290.439 99.2472V98.6197L290.718 98.2014L291.136 97.9922Z" fill="white"/>
<path d="M278.168 67.8728L278.795 68.0122L279.144 68.4306L279.214 68.7792L279.004 69.337L278.586 69.6158L277.889 69.5461L277.471 69.0581V68.5003L277.68 68.1517L277.889 67.9425L278.168 67.8728Z" fill="white"/>
<path d="M318.816 75.6816L319.373 75.7514L319.792 76.1L319.931 76.4486L319.861 76.8669L319.513 77.2852L319.234 77.4247L318.676 77.355L318.327 77.0761L318.188 76.7972V76.2394L318.397 75.8908L318.816 75.6816Z" fill="white"/>
<path d="M272.73 57.6235L273.218 57.6933L273.636 57.9721L273.775 58.251L273.706 58.8785L273.427 59.2271L273.078 59.3666L272.52 59.2969L272.172 58.9482L272.032 58.6694L272.102 58.1813L272.241 57.9024L272.73 57.6235Z" fill="white"/>
<path d="M287.371 102.943L287.859 103.012L288.277 103.291L288.417 103.71L288.347 104.128L287.999 104.546L287.859 104.616H287.232L286.813 104.267L286.674 103.988L286.744 103.431L287.022 103.082L287.371 102.943Z" fill="white"/>
<path d="M274.751 63.3406H275.239L275.658 63.5497L275.867 63.8286L275.937 64.247L275.728 64.6653L275.309 65.0139H274.821L274.473 64.8047L274.263 64.5956L274.194 63.9681L274.403 63.5497L274.751 63.3406Z" fill="white"/>
<path d="M281.305 64.3867H281.863L282.281 64.6656L282.421 64.805V65.5023L282.002 65.9903H281.375L280.957 65.7114L280.817 65.4325L280.887 64.805L281.166 64.4564L281.305 64.3867Z" fill="white"/>
<path d="M278.935 59.7849L279.423 59.8546L279.841 60.273L279.911 60.6913L279.702 61.1096L279.353 61.3885L278.935 61.4582L278.447 61.2491L278.238 60.9005V60.3427L278.656 59.8546L278.935 59.7849Z" fill="white"/>
<path d="M277.401 54.0679L277.889 54.1376L278.307 54.4862L278.377 54.6256V55.1834L277.959 55.6715L277.471 55.7412L277.052 55.532L276.773 55.1137V54.6954L277.052 54.277L277.401 54.0679Z" fill="white"/>
<path d="M308.078 74.1477L308.497 74.2174L308.915 74.4963L309.054 74.8449L308.985 75.333L308.636 75.6816L308.218 75.821L307.73 75.6119L307.521 75.4027L307.451 74.7752L307.66 74.3569L308.078 74.1477Z" fill="white"/>
<path d="M286.395 62.5039L286.744 62.5736L287.162 62.8525L287.301 63.1314V63.5497L287.022 63.9681L286.813 64.1075H286.186L285.907 63.9681L285.698 63.5497L285.767 62.9222L286.186 62.5736L286.395 62.5039Z" fill="white"/>
<path d="M313.517 74.4265L314.074 74.4962L314.423 74.7751L314.493 74.9146V75.5421L314.074 76.0301L313.726 76.0998L313.238 75.8907L312.959 75.5421V74.9843L313.168 74.6357L313.517 74.4265Z" fill="white"/>
<path d="M285.558 96.8071L286.116 96.8769L286.465 97.2255L286.534 97.7135L286.256 98.1318L285.977 98.341H285.558L285.21 98.1318L285.001 97.7832V97.3649L285.279 96.9466L285.558 96.8071Z" fill="white"/>
<path d="M281.933 100.921L282.491 100.99L282.839 101.339L282.909 101.827L282.63 102.245L282.421 102.385H281.863L281.445 102.036L281.375 101.478L281.584 101.13L281.933 100.921Z" fill="white"/>
<path d="M312.68 79.865L313.238 79.9347L313.586 80.2833L313.656 80.7714L313.447 81.12H313.307V81.2594L313.029 81.3989L312.61 81.3291L312.262 80.9805L312.122 80.7016L312.192 80.2833L312.471 79.9347L312.68 79.865Z" fill="white"/>
<path d="M307.033 79.3071L307.66 79.3769L307.939 79.6557L308.009 80.2135L307.73 80.6318L307.521 80.7713H307.033L306.614 80.4227L306.544 80.2832V79.7952L306.823 79.3769L307.033 79.3071Z" fill="white"/>
<path d="M317.77 81.3987H318.188L318.606 81.6776L318.676 81.7473V82.4445L318.327 82.7931H317.7L317.421 82.6537L317.212 82.2353L317.282 81.7473L317.63 81.4684L317.77 81.3987Z" fill="white"/>
<path d="M288.487 51.3484L288.905 51.4181L289.254 51.7667L289.323 52.2548L288.905 52.7428L288.487 52.8125L288.138 52.6034L287.929 52.3942L287.859 51.9062L288.068 51.5576L288.487 51.3484Z" fill="white"/>
<path d="M288.277 91.7871L288.765 91.9963L288.975 92.2054L289.044 92.6935L288.696 93.1118L288.417 93.2513L287.999 93.1815L287.65 92.8329L287.58 92.4146L287.789 91.9963L288.277 91.7871Z" fill="white"/>
<path d="M283.746 57.554L284.303 57.6237L284.582 57.9026L284.652 58.3906L284.443 58.7392L283.955 58.9484L283.536 58.8089L283.257 58.5301V57.9723L283.397 57.6934L283.746 57.554Z" fill="white"/>
<path d="M282.421 52.2549H282.909L283.188 52.3943L283.397 52.8824L283.327 53.3007L282.979 53.5796L282.56 53.6493L282.212 53.4402L282.003 53.0915V52.6732L282.281 52.3246L282.421 52.2549Z" fill="white"/>
<path d="M277.261 97.574H277.68L278.098 97.9226L278.168 98.3409L277.959 98.6895L277.61 98.8987L277.192 98.829L276.843 98.4804V97.9226L277.261 97.574Z" fill="white"/>
<path d="M283.676 88.8589H284.234L284.582 89.2075L284.652 89.6258L284.234 90.1139H283.746L283.327 89.7653L283.257 89.3469L283.536 88.9286L283.676 88.8589Z" fill="white"/>
<path d="M281.096 94.0183H281.514L281.933 94.3669V94.9944L281.584 95.2733L281.236 95.343L280.817 95.1339L280.678 94.9247L280.748 94.2972L281.096 94.0183Z" fill="white"/>
<path d="M273.566 93.4604L274.054 93.5302L274.333 93.8091V94.4366L274.054 94.7154L273.706 94.7852L273.357 94.6457L273.078 94.2971V93.8788L273.357 93.5302L273.566 93.4604Z" fill="white"/>
<path d="M289.254 57.1355H289.742L290.09 57.4144L290.16 57.8327L289.951 58.1813L289.811 58.251H289.254L288.905 57.9024L288.975 57.4144L289.254 57.1355Z" fill="white"/>
<path d="M277.54 89.4167L278.098 89.4865L278.307 89.6956V90.2534L278.028 90.5323L277.61 90.602L277.331 90.4626L277.122 90.114V89.7654L277.54 89.4167Z" fill="white"/>
<path d="M310.449 84.9543L310.798 85.0241L311.076 85.303L311.007 85.6516L310.658 85.9304L310.309 85.791L310.031 85.5121L310.17 85.2332L310.449 84.9543Z" fill="white"/>
</g>
<g clip-path="url(#clip1_33_500)">
<path d="M234.723 123.134H247.757L248.542 123.213L249.17 123.371L249.877 123.687L250.427 124.082L250.819 124.437L251.173 124.911L251.448 125.463L251.605 126.056L251.644 126.371V126.885L251.526 127.635L251.369 128.109L251.094 128.661L250.741 129.135L250.387 129.49L249.877 129.846L249.288 130.122L248.503 130.319L245.48 130.359H244.656L244.42 130.319L244.656 130.951L245.009 131.622L245.402 132.136L245.755 132.451L246.265 132.728L246.815 132.846H251.369L251.448 133.083V135.215L251.408 135.294H246.344L245.598 135.176L244.97 134.978L244.302 134.662L243.87 134.346L243.478 133.991L243.164 133.636L242.771 133.083L242.339 132.333L242.104 131.82L241.907 131.188L241.829 130.793V130.398L237.039 130.438L237 131.267V135.215L236.961 135.294H234.684L234.644 135.254V123.213L234.723 123.134ZM237 125.503L236.961 125.898V128.069H247.404L247.796 127.951L248.15 127.674L248.385 127.358L248.464 127.082V126.332L248.267 125.937L247.953 125.7L247.6 125.542L247.286 125.503H237Z" fill="white"/>
<path d="M255.452 123.095H272.687L272.766 123.134V125.424L272.373 125.7L271.706 126.095L270.803 126.648L269.782 127.28L268.997 127.753L268.683 127.911L269.703 128.03L270.214 128.188L270.842 128.504L271.274 128.819L271.588 129.135L271.98 129.688L272.295 130.399L272.491 131.267L272.569 131.859V132.254L272.452 132.965L272.216 133.557L271.98 133.912L271.588 134.347L271.195 134.623L270.567 134.939L269.9 135.136L269.154 135.255H255.413L255.374 135.215V132.965L255.452 132.925L268.133 132.886L268.565 132.767L268.957 132.531L269.232 132.215L269.311 131.978V131.465L269.154 131.07L268.918 130.793L268.526 130.556L268.054 130.399L267.662 130.359L260.32 130.32L260.517 130.122L261.42 129.569L262.362 128.977L264.011 127.951L265.031 127.319L265.974 126.727L267.387 125.858L267.937 125.503H268.015V125.424L267.78 125.464H266.366L255.413 125.424L255.374 125.385V123.134L255.452 123.095Z" fill="white"/>
<path d="M334.011 122.424L334.168 122.463L334.482 122.858L334.992 123.608L335.385 124.121L335.934 124.871L336.327 125.385L337.583 127.043L338.054 127.674L338.84 128.701L339.311 129.333L341.195 131.82L341.666 132.452L342.452 133.478L342.923 134.11L343.433 134.781L343.747 135.215V135.294H340.842L340.528 134.86L339.9 133.952L339.468 133.32L338.84 132.412L338.408 131.78L338.212 131.504H329.928L329.653 131.899L329.3 132.412L329.025 132.807L328.671 133.32L328.043 134.228L327.69 134.741L327.376 135.215L327.297 135.294H324.392L324.471 135.097L324.785 134.702L325.334 133.952L325.884 133.241L326.708 132.136L327.14 131.583L327.494 131.109L328.122 130.28L328.593 129.648L329.221 128.819L329.692 128.188L330.124 127.635L330.477 127.161L331.105 126.332L331.577 125.7L332.087 125.029L332.48 124.516L332.911 123.924L333.304 123.371L333.736 122.739L334.011 122.424ZM334.05 126.095L333.697 126.569L333.186 127.24L332.794 127.753L332.244 128.464L331.891 128.938L331.773 129.135H336.366L336.209 128.898L335.738 128.267L335.11 127.438L334.56 126.727L334.207 126.253L334.05 126.095Z" fill="white"/>
<path d="M285.25 122.424L285.446 122.463L285.839 123.016L286.349 123.726L286.821 124.398L287.37 125.108L287.959 125.898L288.352 126.411L288.98 127.24L289.372 127.753L289.844 128.385L291.728 130.872L292.199 131.504L292.592 132.017L293.063 132.649L293.455 133.162L293.966 133.833L294.594 134.662L294.947 135.136L294.987 135.294H292.081L291.532 134.505L291.1 133.873L290.55 133.083L289.686 131.82L289.451 131.504H281.167L280.735 132.136L280.225 132.886L279.597 133.794L279.243 134.307L278.733 135.057L278.537 135.294H275.632L275.71 135.097L276.181 134.505L276.731 133.754L277.28 133.044L277.673 132.531L278.026 132.057L279.283 130.399L279.754 129.767L279.911 129.53H279.989L280.068 129.333L280.578 128.701L280.971 128.148L281.52 127.438L282.109 126.648L282.895 125.621L283.523 124.792L283.876 124.319L284.386 123.608L285.172 122.503L285.25 122.424ZM285.289 126.135L284.897 126.608L284.583 127.043L284.033 127.753L283.562 128.385L283.012 129.096V129.135L287.645 129.175L287.488 128.938L287.017 128.306L286.624 127.793L286.114 127.122L285.721 126.608L285.368 126.135H285.289Z" fill="white"/>
<path d="M298.167 123.055H300.326L300.444 123.134L300.404 132.925H315.127L315.166 132.965V135.294H298.088V123.095L298.167 123.055Z" fill="white"/>
<path d="M346.888 123.292H349.204L349.243 123.332V135.294L347.006 135.334L346.848 135.255V123.371L346.888 123.292Z" fill="white"/>
<path d="M318.974 132.649H321.33L321.487 132.688L321.526 132.965L321.487 134.899L321.448 134.939H318.935L318.896 134.899V132.728L318.974 132.649Z" fill="white"/>
</g>
</g>
<defs>
<filter id="filter0_f_33_500" x="243.912" y="-114.309" width="365.596" height="358.223" filterUnits="userSpaceOnUse" color-interpolation-filters="sRGB">
<feFlood flood-opacity="0" result="BackgroundImageFix"/>
<feBlend mode="normal" in="SourceGraphic" in2="BackgroundImageFix" result="shape"/>
<feGaussianBlur stdDeviation="39.2342" result="effect1_foregroundBlur_33_500"/>
</filter>
<filter id="filter1_f_33_500" x="144.94" y="-197.119" width="376.769" height="360.811" filterUnits="userSpaceOnUse" color-interpolation-filters="sRGB">
<feFlood flood-opacity="0" result="BackgroundImageFix"/>
<feBlend mode="normal" in="SourceGraphic" in2="BackgroundImageFix" result="shape"/>
<feGaussianBlur stdDeviation="39.2342" result="effect1_foregroundBlur_33_500"/>
</filter>
<linearGradient id="paint0_linear_33_500" x1="16.4324" y1="184.229" x2="286.492" y2="123.095" gradientUnits="userSpaceOnUse">
<stop offset="0.0974232" stop-color="#F2F2F2" stop-opacity="0.16"/>
<stop offset="0.330317" stop-color="#2753FD"/>
<stop offset="0.775176" stop-color="#2753FD" stop-opacity="0.83"/>
<stop offset="1" stop-color="white" stop-opacity="0.12"/>
</linearGradient>
<linearGradient id="paint1_linear_33_500" x1="-39.6522" y1="-6.60472" x2="455.668" y2="50.0521" gradientUnits="userSpaceOnUse">
<stop stop-color="#211B32" stop-opacity="0.5"/>
<stop offset="0.02" stop-color="#2753FD"/>
<stop offset="0.32067" stop-color="#2753FD"/>
<stop offset="0.745885" stop-color="white" stop-opacity="0.12"/>
</linearGradient>
<linearGradient id="paint2_linear_33_500" x1="-39.6522" y1="209.776" x2="455.668" y2="153.119" gradientUnits="userSpaceOnUse">
<stop stop-color="#211B32" stop-opacity="0.5"/>
<stop offset="0.02" stop-color="#2753FD"/>
<stop offset="0.32067" stop-color="#2753FD"/>
<stop offset="0.745885" stop-color="white" stop-opacity="0.12"/>
</linearGradient>
<linearGradient id="paint3_linear_33_500" x1="16.4324" y1="20.1121" x2="286.492" y2="81.2455" gradientUnits="userSpaceOnUse">
<stop offset="0.0974232" stop-color="#F2F2F2" stop-opacity="0.16"/>
<stop offset="0.330317" stop-color="#2753FD"/>
<stop offset="0.775176" stop-color="#2753FD" stop-opacity="0.83"/>
<stop offset="1" stop-color="#211B32" stop-opacity="0.5"/>
</linearGradient>
<linearGradient id="paint4_linear_33_500" x1="227.7" y1="68.0811" x2="227.7" y2="85.2632" gradientUnits="userSpaceOnUse">
<stop stop-color="#211B32" stop-opacity="0.5"/>
<stop offset="0.0001" stop-color="#2753FD"/>
<stop offset="0.52" stop-color="#2753FD"/>
<stop offset="0.82" stop-color="#2753FD" stop-opacity="0.83"/>
<stop offset="1" stop-color="white" stop-opacity="0.12"/>
</linearGradient>
<linearGradient id="paint5_linear_33_500" x1="227.7" y1="136.132" x2="227.7" y2="118.95" gradientUnits="userSpaceOnUse">
<stop stop-color="#211B32" stop-opacity="0.5"/>
<stop offset="0.0001" stop-color="#2753FD"/>
<stop offset="0.52" stop-color="#2753FD"/>
<stop offset="0.82" stop-color="#2753FD" stop-opacity="0.83"/>
<stop offset="1" stop-color="white" stop-opacity="0.12"/>
</linearGradient>
<linearGradient id="paint6_linear_33_500" x1="228.3" y1="102.568" x2="-7.49975" y2="103.106" gradientUnits="userSpaceOnUse">
<stop stop-color="white" stop-opacity="0.12"/>
<stop offset="0.443691" stop-color="#2753FD"/>
<stop offset="0.681902" stop-color="#F2F2F2" stop-opacity="0.08"/>
</linearGradient>
<linearGradient id="paint7_linear_33_500" x1="448" y1="82" x2="612" y2="82" gradientUnits="userSpaceOnUse">
<stop stop-color="#706691" stop-opacity="0.5"/>
<stop offset="1" stop-color="#737373" stop-opacity="0.02"/>
</linearGradient>
<linearGradient id="paint8_linear_33_500" x1="491" y1="101.5" x2="612" y2="101.5" gradientUnits="userSpaceOnUse">
<stop stop-color="#706691" stop-opacity="0.5"/>
<stop offset="1" stop-color="#737373" stop-opacity="0.02"/>
</linearGradient>
<linearGradient id="paint9_linear_33_500" x1="493" y1="124.5" x2="612" y2="124.5" gradientUnits="userSpaceOnUse">
<stop stop-color="#706691" stop-opacity="0.5"/>
<stop offset="1" stop-color="#737373" stop-opacity="0.02"/>
</linearGradient>
<linearGradient id="paint10_linear_33_500" x1="493" y1="147.5" x2="612" y2="147.5" gradientUnits="userSpaceOnUse">
<stop stop-color="#706691" stop-opacity="0.5"/>
<stop offset="1" stop-color="#737373" stop-opacity="0.02"/>
</linearGradient>
<linearGradient id="paint11_linear_33_500" x1="326.063" y1="44.4637" x2="494.439" y2="59.7511" gradientUnits="userSpaceOnUse">
<stop stop-color="#2753FD"/>
<stop offset="1" stop-color="#99AEFF" stop-opacity="0"/>
</linearGradient>
<linearGradient id="paint12_linear_33_500" x1="237.785" y1="-69.4353" x2="402.876" y2="2.09226" gradientUnits="userSpaceOnUse">
<stop stop-color="#2753FD"/>
<stop offset="1" stop-color="#99AEFF" stop-opacity="0"/>
</linearGradient>
<clipPath id="clip0_33_500">
<rect width="55.9714" height="54.8291" fill="white" transform="translate(264.014 51)"/>
</clipPath>
<clipPath id="clip1_33_500">
<rect width="114.487" height="31.0473" fill="white" transform="translate(234.757 113.462)"/>
</clipPath>
</defs>
</svg>
