<svg width="325" height="125" viewBox="0 0 325 125" fill="none" xmlns="http://www.w3.org/2000/svg">
<path d="M5.5 36.1708C5.5 29.8195 10.6487 24.6708 17 24.6708H324.5V83.6708H17C10.6487 83.6708 5.5 78.5221 5.5 72.1708V36.1708Z" fill="#191134" stroke="#3A2067"/>
<g filter="url(#filter0_d_33_472)">
<path d="M274 54.3864C274 65.5409 264.832 74.6021 253.5 74.6021C242.168 74.6021 233 65.5409 233 54.3864C233 43.232 242.168 34.1708 253.5 34.1708C264.832 34.1708 274 43.232 274 54.3864Z" fill="#0A1412"/>
<path d="M274 54.3864C274 65.5409 264.832 74.6021 253.5 74.6021C242.168 74.6021 233 65.5409 233 54.3864C233 43.232 242.168 34.1708 253.5 34.1708C264.832 34.1708 274 43.232 274 54.3864Z" fill="url(#paint0_linear_33_472)" fill-opacity="0.2"/>
<path d="M274 54.3864C274 65.5409 264.832 74.6021 253.5 74.6021C242.168 74.6021 233 65.5409 233 54.3864C233 43.232 242.168 34.1708 253.5 34.1708C264.832 34.1708 274 43.232 274 54.3864Z" stroke="#74E1B6" stroke-width="1.64355"/>
</g>
<path d="M246.835 57.4149L252.52 48.9973C252.834 48.5325 252.991 48.2998 253.197 48.2216C253.375 48.1538 253.58 48.1538 253.759 48.2216C253.963 48.2998 254.12 48.5325 254.434 48.9973L260.121 57.4149C260.435 57.8824 260.593 58.1157 260.57 58.307C260.55 58.474 260.447 58.6259 260.289 58.7252C260.107 58.8382 259.792 58.8382 259.163 58.8382H247.792C247.163 58.8382 246.848 58.8382 246.666 58.7252C246.507 58.6259 246.405 58.474 246.385 58.307C246.362 58.1157 246.519 57.8824 246.835 57.4149Z" fill="url(#paint1_linear_33_472)" fill-opacity="0.2" stroke="#74E1B6" stroke-width="1.31484" stroke-linecap="round" stroke-linejoin="round"/>
<g filter="url(#filter1_d_33_472)">
<path d="M221 53.3888C221 64.5465 211.83 73.6068 200.5 73.6068C189.17 73.6068 180 64.5465 180 53.3888C180 42.231 189.17 33.1708 200.5 33.1708C211.83 33.1708 221 42.231 221 53.3888Z" fill="#200707"/>
<path d="M221 53.3888C221 64.5465 211.83 73.6068 200.5 73.6068C189.17 73.6068 180 64.5465 180 53.3888C180 42.231 189.17 33.1708 200.5 33.1708C211.83 33.1708 221 42.231 221 53.3888Z" fill="url(#paint2_linear_33_472)" fill-opacity="0.2"/>
<path d="M221 53.3888C221 64.5465 211.83 73.6068 200.5 73.6068C189.17 73.6068 180 64.5465 180 53.3888C180 42.231 189.17 33.1708 200.5 33.1708C211.83 33.1708 221 42.231 221 53.3888Z" stroke="#F78182" stroke-width="1.30439"/>
</g>
<path d="M197.821 58.9139C196.759 58.9139 195.72 58.5987 194.837 58.0086C193.954 57.4185 193.266 56.5795 192.859 55.5981C192.452 54.6167 192.346 53.5367 192.553 52.4942C192.76 51.4523 193.272 50.4954 194.023 49.744C194.774 48.9927 195.731 48.4814 196.773 48.2743C197.815 48.0666 198.895 48.173 199.877 48.5795C200.859 48.9864 201.698 49.6746 202.288 50.558C202.878 51.4413 203.193 52.4801 203.193 53.5424C203.191 54.9668 202.625 56.3317 201.618 57.3392C200.611 58.3462 199.245 58.9123 197.821 58.9139ZM197.821 49.0663C196.936 49.0663 196.07 49.3287 195.334 49.8202C194.599 50.3122 194.025 51.0114 193.686 51.8295C193.347 52.6471 193.258 53.5471 193.431 54.4158C193.604 55.284 194.03 56.0818 194.656 56.7074C195.282 57.3335 196.08 57.7598 196.948 57.9325C197.816 58.1057 198.716 58.017 199.534 57.6778C200.353 57.3392 201.052 56.7653 201.543 56.0291C202.035 55.2934 202.298 54.4278 202.298 53.5424C202.297 52.3554 201.824 51.218 200.985 50.3785C200.146 49.5395 199.008 49.0673 197.821 49.0663Z" fill="#F78182"/>
<path d="M203.193 58.914C202.131 58.914 201.092 58.5989 200.209 58.0088C199.325 57.4187 198.637 56.5797 198.23 55.5983C197.824 54.6163 197.717 53.5363 197.924 52.4944C198.132 51.4524 198.643 50.4955 199.395 49.7442C200.146 48.9929 201.103 48.4815 202.145 48.2739C203.187 48.0668 204.267 48.1732 205.249 48.5796C206.23 48.9866 207.069 49.6748 207.659 50.5581C208.249 51.4415 208.565 52.4803 208.565 53.5426C208.563 54.9664 207.996 56.3319 206.989 57.3389C205.982 58.3464 204.617 58.9125 203.193 58.914ZM203.193 49.0659C202.308 49.0659 201.442 49.3289 200.706 49.8204C199.97 50.3124 199.396 51.0115 199.057 51.8297C198.719 52.6472 198.63 53.5473 198.803 54.416C198.975 55.2842 199.401 56.082 200.028 56.7075C200.654 57.3336 201.451 57.7599 202.32 57.9326C203.188 58.1053 204.088 58.0166 204.906 57.678C205.724 57.3394 206.423 56.7654 206.915 56.0293C207.407 55.2931 207.669 54.428 207.669 53.5426C207.668 52.3556 207.196 51.2176 206.357 50.3786C205.518 49.5397 204.38 49.0675 203.193 49.0659Z" fill="#F78182"/>
<g filter="url(#filter2_d_33_472)">
<path d="M62 53.3887C62 64.5464 52.8302 73.6066 41.4997 73.6066C30.1698 73.6066 21 64.5464 21 53.3887C21 42.231 30.1698 33.1708 41.4997 33.1708C52.8302 33.1708 62 42.231 62 53.3887Z" fill="#241F0E"/>
<path d="M62 53.3887C62 64.5464 52.8302 73.6066 41.4997 73.6066C30.1698 73.6066 21 64.5464 21 53.3887C21 42.231 30.1698 33.1708 41.4997 33.1708C52.8302 33.1708 62 42.231 62 53.3887Z" fill="url(#paint3_linear_33_472)" fill-opacity="0.2"/>
<path d="M62 53.3887C62 64.5464 52.8302 73.6066 41.4997 73.6066C30.1698 73.6066 21 64.5464 21 53.3887C21 42.231 30.1698 33.1708 41.4997 33.1708C52.8302 33.1708 62 42.231 62 53.3887Z" stroke="#D4AF37" stroke-width="1.30438"/>
</g>
<path d="M40.9467 47.8026C41.1235 47.4445 41.2122 47.2652 41.3322 47.2084C41.4365 47.1582 41.5572 47.1582 41.6615 47.2084C41.7815 47.2652 41.8702 47.4445 42.047 47.8026L43.7231 51.1979C43.7753 51.3036 43.8007 51.3564 43.8392 51.3975C43.8731 51.434 43.9135 51.4633 43.9585 51.4842C44.0087 51.5077 44.0674 51.5162 44.1842 51.5331L47.933 52.081C48.3282 52.139 48.5252 52.1677 48.6165 52.2642C48.696 52.3484 48.7339 52.4631 48.7182 52.5779C48.7013 52.7097 48.5584 52.8486 48.2721 53.1271L45.5603 55.7684C45.4762 55.8513 45.4338 55.8924 45.4064 55.9413C45.3823 55.9843 45.3666 56.0319 45.3607 56.0815C45.3542 56.1369 45.364 56.195 45.3836 56.3117L46.024 60.0423C46.0912 60.4362 46.1251 60.6325 46.0618 60.7492C46.0064 60.851 45.9086 60.9221 45.7944 60.9436C45.664 60.9677 45.4873 60.8745 45.1338 60.6886L41.7822 58.9264C41.6778 58.8716 41.6256 58.8435 41.5709 58.8331C41.5219 58.8233 41.4717 58.8233 41.4228 58.8331C41.368 58.8435 41.3159 58.8716 41.2115 58.9264L37.8599 60.6886C37.5064 60.8745 37.3297 60.9677 37.1992 60.9436C37.0851 60.9221 36.9873 60.851 36.9318 60.7492C36.8686 60.6325 36.9025 60.4362 36.9696 60.0423L37.6094 56.3117C37.6297 56.195 37.6395 56.1369 37.6329 56.0815C37.6271 56.0319 37.6114 55.9843 37.5873 55.9413C37.5599 55.8924 37.5175 55.8513 37.4334 55.7684L34.7215 53.1271C34.4352 52.8486 34.2924 52.7097 34.2754 52.5779C34.2598 52.4631 34.2976 52.3484 34.3772 52.2642C34.4685 52.1677 34.6655 52.139 35.0607 52.081L38.8095 51.5331C38.9262 51.5162 38.9843 51.5077 39.0351 51.4842C39.0801 51.4633 39.1206 51.434 39.1545 51.3975C39.1923 51.3564 39.2184 51.3036 39.2706 51.1979L40.9467 47.8026Z" stroke="#D4AF37" stroke-width="1.30438" stroke-linecap="round" stroke-linejoin="round"/>
<g filter="url(#filter3_d_33_472)">
<path d="M115 53.3888C115 64.5465 105.83 73.6068 94.4997 73.6068C83.1698 73.6068 74 64.5465 74 53.3888C74 42.231 83.1698 33.1708 94.4997 33.1708C105.83 33.1708 115 42.231 115 53.3888Z" fill="#080F22"/>
<path d="M115 53.3888C115 64.5465 105.83 73.6068 94.4997 73.6068C83.1698 73.6068 74 64.5465 74 53.3888C74 42.231 83.1698 33.1708 94.4997 33.1708C105.83 33.1708 115 42.231 115 53.3888Z" fill="url(#paint4_linear_33_472)" fill-opacity="0.2"/>
<path d="M115 53.3888C115 64.5465 105.83 73.6068 94.4997 73.6068C83.1698 73.6068 74 64.5465 74 53.3888C74 42.231 83.1698 33.1708 94.4997 33.1708C105.83 33.1708 115 42.231 115 53.3888Z" stroke="#2D70E3" stroke-width="1.30439"/>
</g>
<path d="M94.5075 61.278C93.1128 61.278 91.7489 60.8642 90.5891 60.0894C89.4287 59.3141 88.525 58.2127 87.9907 56.9239C87.457 55.6347 87.3177 54.2165 87.5895 52.8485C87.8619 51.4799 88.5334 50.223 89.52 49.2369C90.5066 48.2503 91.7635 47.5782 93.1316 47.3064C94.4996 47.0341 95.9183 47.1739 97.207 47.7076C98.4957 48.2414 99.5977 49.1456 100.372 50.3055C101.148 51.4658 101.561 52.8292 101.561 54.2244C101.559 56.0943 100.815 57.8876 99.4933 59.2097C98.1707 60.5324 96.3779 61.2759 94.5075 61.278ZM94.5075 48.3463C93.345 48.3463 92.2086 48.6912 91.2418 49.3371C90.2755 49.983 89.5221 50.9008 89.077 51.9751C88.632 53.0488 88.5156 54.2311 88.7426 55.3712C88.9696 56.5112 89.5294 57.5589 90.3512 58.3807C91.1734 59.2029 92.2206 59.7628 93.3612 59.9897C94.5012 60.2162 95.683 60.0998 96.7573 59.6548C97.831 59.2102 98.7493 58.4568 99.3952 57.49C100.041 56.5232 100.386 55.3868 100.386 54.2244C100.384 52.6659 99.7641 51.1721 98.6622 50.0701C97.5602 48.9682 96.0659 48.3484 94.5075 48.3463Z" fill="#2D70E3"/>
<g filter="url(#filter4_d_33_472)">
<path d="M167.555 54.1708C167.555 65.2099 158.483 74.1708 147.278 74.1708C136.072 74.1708 127 65.2099 127 54.1708C127 43.1316 136.072 34.1708 147.278 34.1708C158.483 34.1708 167.555 43.1316 167.555 54.1708Z" fill="#1E0F3E"/>
<path d="M167.555 54.1708C167.555 65.2099 158.483 74.1708 147.278 74.1708C136.072 74.1708 127 65.2099 127 54.1708C127 43.1316 136.072 34.1708 147.278 34.1708C158.483 34.1708 167.555 43.1316 167.555 54.1708Z" stroke="#2753FD" stroke-width="1.06952"/>
</g>
<path d="M142.304 50.7134C141.866 50.2245 141.648 49.9802 141.64 49.7723C141.632 49.5917 141.71 49.4185 141.849 49.3034C142.009 49.1708 142.337 49.1708 142.994 49.1708H151.578C152.234 49.1708 152.562 49.1708 152.722 49.3034C152.861 49.4185 152.939 49.5917 152.932 49.7723C152.924 49.9802 152.705 50.2245 152.268 50.7134L148.968 54.402C148.88 54.4991 148.837 54.5479 148.805 54.6035C148.778 54.6527 148.757 54.7057 148.746 54.7605C148.731 54.8225 148.731 54.888 148.731 55.0189V58.1115C148.731 58.2245 148.731 58.2809 148.713 58.3301C148.697 58.3733 148.671 58.4118 148.637 58.4431C148.598 58.4782 148.546 58.4991 148.441 58.541L146.474 59.3274C146.262 59.4125 146.156 59.4553 146.07 59.4373C145.996 59.4219 145.93 59.3774 145.888 59.3141C145.84 59.2414 145.84 59.1267 145.84 58.8978V55.0189C145.84 54.888 145.84 54.8225 145.826 54.7605C145.814 54.7057 145.794 54.6527 145.766 54.6035C145.735 54.5479 145.691 54.4991 145.604 54.402L142.304 50.7134Z" stroke="#2753FD" stroke-width="0.855615" stroke-linecap="round" stroke-linejoin="round"/>
<defs>
<filter id="filter0_d_33_472" x="191.089" y="0.477991" width="124.821" height="124.252" filterUnits="userSpaceOnUse" color-interpolation-filters="sRGB">
<feFlood flood-opacity="0" result="BackgroundImageFix"/>
<feColorMatrix in="SourceAlpha" type="matrix" values="0 0 0 0 0 0 0 0 0 0 0 0 0 0 0 0 0 0 127 0" result="hardAlpha"/>
<feOffset dy="8.21775"/>
<feGaussianBlur stdDeviation="20.5444"/>
<feComposite in2="hardAlpha" operator="out"/>
<feColorMatrix type="matrix" values="0 0 0 0 0.454902 0 0 0 0 0.882353 0 0 0 0 0.713726 0 0 0 0.25 0"/>
<feBlend mode="normal" in2="BackgroundImageFix" result="effect1_dropShadow_33_472"/>
<feBlend mode="normal" in="SourceGraphic" in2="effect1_dropShadow_33_472" result="shape"/>
</filter>
<filter id="filter1_d_33_472" x="159.782" y="19.4747" width="81.436" height="80.872" filterUnits="userSpaceOnUse" color-interpolation-filters="sRGB">
<feFlood flood-opacity="0" result="BackgroundImageFix"/>
<feColorMatrix in="SourceAlpha" type="matrix" values="0 0 0 0 0 0 0 0 0 0 0 0 0 0 0 0 0 0 127 0" result="hardAlpha"/>
<feOffset dy="6.52193"/>
<feGaussianBlur stdDeviation="9.7829"/>
<feComposite in2="hardAlpha" operator="out"/>
<feColorMatrix type="matrix" values="0 0 0 0 0.968627 0 0 0 0 0.505882 0 0 0 0 0.509804 0 0 0 0.25 0"/>
<feBlend mode="normal" in2="BackgroundImageFix" result="effect1_dropShadow_33_472"/>
<feBlend mode="normal" in="SourceGraphic" in2="effect1_dropShadow_33_472" result="shape"/>
</filter>
<filter id="filter2_d_33_472" x="0.782076" y="19.4747" width="81.4358" height="80.8717" filterUnits="userSpaceOnUse" color-interpolation-filters="sRGB">
<feFlood flood-opacity="0" result="BackgroundImageFix"/>
<feColorMatrix in="SourceAlpha" type="matrix" values="0 0 0 0 0 0 0 0 0 0 0 0 0 0 0 0 0 0 127 0" result="hardAlpha"/>
<feOffset dy="6.52191"/>
<feGaussianBlur stdDeviation="9.78287"/>
<feComposite in2="hardAlpha" operator="out"/>
<feColorMatrix type="matrix" values="0 0 0 0 0.87451 0 0 0 0 0.784314 0 0 0 0 0.396078 0 0 0 0.2 0"/>
<feBlend mode="normal" in2="BackgroundImageFix" result="effect1_dropShadow_33_472"/>
<feBlend mode="normal" in="SourceGraphic" in2="effect1_dropShadow_33_472" result="shape"/>
</filter>
<filter id="filter3_d_33_472" x="60.3039" y="25.9966" width="68.3921" height="67.8281" filterUnits="userSpaceOnUse" color-interpolation-filters="sRGB">
<feFlood flood-opacity="0" result="BackgroundImageFix"/>
<feColorMatrix in="SourceAlpha" type="matrix" values="0 0 0 0 0 0 0 0 0 0 0 0 0 0 0 0 0 0 127 0" result="hardAlpha"/>
<feOffset dy="6.52193"/>
<feGaussianBlur stdDeviation="6.52193"/>
<feComposite in2="hardAlpha" operator="out"/>
<feColorMatrix type="matrix" values="0 0 0 0 0.176471 0 0 0 0 0.439216 0 0 0 0 0.890196 0 0 0 0.25 0"/>
<feBlend mode="normal" in2="BackgroundImageFix" result="effect1_dropShadow_33_472"/>
<feBlend mode="normal" in="SourceGraphic" in2="effect1_dropShadow_33_472" result="shape"/>
</filter>
<filter id="filter4_d_33_472" x="110.422" y="22.9408" width="73.7099" height="73.1551" filterUnits="userSpaceOnUse" color-interpolation-filters="sRGB">
<feFlood flood-opacity="0" result="BackgroundImageFix"/>
<feColorMatrix in="SourceAlpha" type="matrix" values="0 0 0 0 0 0 0 0 0 0 0 0 0 0 0 0 0 0 127 0" result="hardAlpha"/>
<feOffset dy="5.34759"/>
<feGaussianBlur stdDeviation="8.02139"/>
<feComposite in2="hardAlpha" operator="out"/>
<feColorMatrix type="matrix" values="0 0 0 0 0.552941 0 0 0 0 0.192157 0 0 0 0 0.960784 0 0 0 0.25 0"/>
<feBlend mode="normal" in2="BackgroundImageFix" result="effect1_dropShadow_33_472"/>
<feBlend mode="normal" in="SourceGraphic" in2="effect1_dropShadow_33_472" result="shape"/>
</filter>
<linearGradient id="paint0_linear_33_472" x1="253.523" y1="33.349" x2="253.523" y2="75.4239" gradientUnits="userSpaceOnUse">
<stop stop-color="#74E1B6"/>
<stop offset="1" stop-color="#74E1B6" stop-opacity="0"/>
</linearGradient>
<linearGradient id="paint1_linear_33_472" x1="253.485" y1="48.1703" x2="253.485" y2="58.8382" gradientUnits="userSpaceOnUse">
<stop stop-color="#74E1B6"/>
<stop offset="1" stop-color="#74E1B6" stop-opacity="0"/>
</linearGradient>
<linearGradient id="paint2_linear_33_472" x1="200.523" y1="32.5186" x2="200.523" y2="74.259" gradientUnits="userSpaceOnUse">
<stop stop-color="#F78182"/>
<stop offset="1" stop-color="#F78182" stop-opacity="0"/>
</linearGradient>
<linearGradient id="paint3_linear_33_472" x1="41.5225" y1="32.5186" x2="41.5225" y2="74.2588" gradientUnits="userSpaceOnUse">
<stop stop-color="#DFC865"/>
<stop offset="1" stop-color="#DFC865" stop-opacity="0"/>
</linearGradient>
<linearGradient id="paint4_linear_33_472" x1="94.5227" y1="32.5186" x2="94.5227" y2="74.259" gradientUnits="userSpaceOnUse">
<stop stop-color="#66AEF4"/>
<stop offset="1" stop-color="#66AEF4" stop-opacity="0"/>
</linearGradient>
</defs>
</svg>
