<svg width="983" height="195" viewBox="0 0 983 195" fill="none" xmlns="http://www.w3.org/2000/svg">
<g clip-path="url(#clip0_166_7641)">
<path d="M253.75 61.25H336.75L341.75 61.75L345.75 62.75L350.25 64.75L353.75 67.25L356.25 69.5L358.5 72.5L360.25 76L361.25 79.75L361.5 81.75V85L360.75 89.75L359.75 92.75L358 96.25L355.75 99.25L353.5 101.5L350.25 103.75L346.5 105.5L341.5 106.75L322.25 107H317L315.5 106.75L317 110.75L319.25 115L321.75 118.25L324 120.25L327.25 122L330.75 122.75H359.75L360.25 124.25V137.75L360 138.25H327.75L323 137.5L319 136.25L314.75 134.25L312 132.25L309.5 130L307.5 127.75L305 124.25L302.25 119.5L300.75 116.25L299.5 112.25L299 109.75V107.25L268.5 107.5L268.25 112.75V137.75L268 138.25H253.5L253.25 138V61.75L253.75 61.25ZM268.25 76.25L268 78.75V92.5H334.5L337 91.75L339.25 90L340.75 88L341.25 86.25V81.5L340 79L338 77.5L335.75 76.5L333.75 76.25H268.25Z" fill="white"/>
<path d="M385.75 61H495.5L496 61.25V75.75L493.5 77.5L489.25 80L483.5 83.5L477 87.5L472 90.5L470 91.5L476.5 92.25L479.75 93.25L483.75 95.25L486.5 97.25L488.5 99.25L491 102.75L493 107.25L494.25 112.75L494.75 116.5V119L494 123.5L492.5 127.25L491 129.5L488.5 132.25L486 134L482 136L477.75 137.25L473 138H385.5L385.25 137.75V123.5L385.75 123.25L466.5 123L469.25 122.25L471.75 120.75L473.5 118.75L474 117.25V114L473 111.5L471.5 109.75L469 108.25L466 107.25L463.5 107L416.75 106.75L418 105.5L423.75 102L429.75 98.25L440.25 91.75L446.75 87.75L452.75 84L461.75 78.5L465.25 76.25H465.75V75.75L464.25 76H455.25L385.5 75.75L385.25 75.5V61.25L385.75 61Z" fill="white"/>
<path d="M886 56.75L887 57L889 59.5L892.25 64.25L894.75 67.5L898.25 72.25L900.75 75.5L908.75 86L911.75 90L916.75 96.5L919.75 100.5L931.75 116.25L934.75 120.25L939.75 126.75L942.75 130.75L946 135L948 137.75V138.25H929.5L927.5 135.5L923.5 129.75L920.75 125.75L916.75 120L914 116L912.75 114.25H860L858.25 116.75L856 120L854.25 122.5L852 125.75L848 131.5L845.75 134.75L843.75 137.75L843.25 138.25H824.75L825.25 137L827.25 134.5L830.75 129.75L834.25 125.25L839.5 118.25L842.25 114.75L844.5 111.75L848.5 106.5L851.5 102.5L855.5 97.25L858.5 93.25L861.25 89.75L863.5 86.75L867.5 81.5L870.5 77.5L873.75 73.25L876.25 70L879 66.25L881.5 62.75L884.25 58.75L886 56.75ZM886.25 80L884 83L880.75 87.25L878.25 90.5L874.75 95L872.5 98L871.75 99.25H901L900 97.75L897 93.75L893 88.5L889.5 84L887.25 81L886.25 80Z" fill="white"/>
<path d="M575.5 56.75L576.75 57L579.25 60.5L582.5 65L585.5 69.25L589 73.75L592.75 78.75L595.25 82L599.25 87.25L601.75 90.5L604.75 94.5L616.75 110.25L619.75 114.25L622.25 117.5L625.25 121.5L627.75 124.75L631 129L635 134.25L637.25 137.25L637.5 138.25H619L615.5 133.25L612.75 129.25L609.25 124.25L603.75 116.25L602.25 114.25H549.5L546.75 118.25L543.5 123L539.5 128.75L537.25 132L534 136.75L532.75 138.25H514.25L514.75 137L517.75 133.25L521.25 128.5L524.75 124L527.25 120.75L529.5 117.75L537.5 107.25L540.5 103.25L541.5 101.75H542L542.5 100.5L545.75 96.5L548.25 93L551.75 88.5L555.5 83.5L560.5 77L564.5 71.75L566.75 68.75L570 64.25L575 57.25L575.5 56.75ZM575.75 80.25L573.25 83.25L571.25 86L567.75 90.5L564.75 94.5L561.25 99V99.25L590.75 99.5L589.75 98L586.75 94L584.25 90.75L581 86.5L578.5 83.25L576.25 80.25H575.75Z" fill="white"/>
<path d="M657.75 60.75H671.5L672.25 61.25L672 123.25H765.75L766 123.5V138.25H657.25V61L657.75 60.75Z" fill="white"/>
<path d="M968 62.25H982.75L983 62.5V138.25L968.75 138.5L967.75 138V62.75L968 62.25Z" fill="white"/>
<path d="M790.25 121.5H805.25L806.25 121.75L806.5 123.5L806.25 135.75L806 136H790L789.75 135.75V122L790.25 121.5Z" fill="white"/>
<path d="M22 132.5H23.75L26.5 133.5L28.5 135.75L29.25 137.5V140.5L28.5 142.25L26.75 144.25L24.75 145.25L22.5 145.5L20.25 145L18.75 144L17.25 142.25L16.5 140.25V137.75L17.25 135.75L19 133.75L21 132.75L22 132.5Z" fill="white"/>
<path d="M182 129H185.25L187.75 130.25L189.25 132L190 133.5V137.25L188.25 140L186.25 141.25L184.5 141.75H182.5L180 140.75L178.25 139L177.25 136.5V134L178.75 131L180.25 129.75L182 129Z" fill="white"/>
<path d="M103.75 0.5L106 0.75L108 1.5L110 3.5L110.75 5.25L111 7.75L110 10.5L108.75 12L107 13L106 13.25H103L101 12.5L99.75 11.5L98.5 9.5L98 8V6.25L99 3.5L100.5 1.75L102.75 0.75L103.75 0.5Z" fill="white"/>
<path d="M161.5 130L163.75 130.25L166.25 131.75L167.5 133.75L167.75 134.75V137.25L166.75 139.25L165.75 140.5L163.75 141.5L161.25 141.75L159 141L157.5 139.75L156.25 137.25V134.5L157.25 132.25L159 130.75L161.5 130Z" fill="white"/>
<path d="M112.25 19.25H114.5L116.75 20.25L118.5 22.25L119 23.5V26.75L117.5 29.25L115.5 30.5L114.5 30.75H112L110.25 30L109 29L107.75 26.5L107.5 24.25L108.5 21.75L109.75 20.5L110.75 19.75L112.25 19.25Z" fill="white"/>
<path d="M173.75 148.5L176.25 148.75L178.25 150L179.5 151.5L180 153V155.25L179 157.25L178 158.5L175.75 159.5L174.5 159.75L172.25 159.25L170.75 158.25L169.5 156.75L169 155.75V152.5L170 150.5L171.5 149.25L173.75 148.5Z" fill="white"/>
<path d="M33 115.25H35L37 116L38.5 117.25L39.5 119.25L39.75 120.75L39 123.5L37.75 125L35.75 126H32.75L30.5 125L29 122.75L28.75 121.5V119.75L29.5 117.75L30.75 116.25L33 115.25Z" fill="white"/>
<path d="M123.5 0.5L125.75 0.75L127.75 1.75L129.25 3.75L129.75 5.25L129.5 7.5L128.75 9L127.5 10.25L126.5 11L125.5 11.25H122.75L121.25 10.5L120 9.25L119 7.5V4.5L120 2.5L121.5 1.25L123.5 0.5Z" fill="white"/>
<path d="M10.75 115.5H12.75L15.25 116.5L16.75 118.5L17 119.25V122.25L15.5 124.5L14.25 125.5L11.5 126L9.5 125.5L8 124.5L6.75 122.25L6.5 120L7.25 118L8.5 116.5L9.75 115.75L10.75 115.5Z" fill="white"/>
<path d="M143.5 5.5L146.25 5.75L148.25 7L149.5 9L149.75 11.25L149 13.5L147.75 14.75L146.75 15.5L145 16L142.5 15.75L141 14.75L139.75 13.25L139.25 11.75V9.5L140.25 7.25L142.5 5.75L143.5 5.5Z" fill="white"/>
<path d="M160.25 164.25H162L164.5 165.25L165.75 166.75L166.25 168V170.75L165.25 172.5L163.5 174L162.75 174.25H159.75L158.25 173.5L156.75 171.75L156.25 170.5V168L157.25 166L158.75 164.75L160.25 164.25Z" fill="white"/>
<path d="M4.25 75.75H6L8 76.5L9.5 78.25L10 80L9.75 82L8.5 84L7.5 84.75L6.5 85H3.5L1.75 84L0.5 82L0 80.25L1 77.75L2.75 76.25L4.25 75.75Z" fill="white"/>
<path d="M162.25 16L164.5 16.5L166.5 18.25L167 19.5V22.5L165.25 24.75L163.75 25.5L162 25.75L159.75 25L158 23L157.5 21.25L157.75 19.5L158.75 17.75L160 16.75L162.25 16Z" fill="white"/>
<path d="M132 22.75H133.75L135.75 23.5L137.25 25.5L137.75 27.75L137 30L135.75 31.25L134.5 32H131.25L129.25 30.75L128.25 28.75L128 27.25L128.75 25L129.75 23.75L131 23L132 22.75Z" fill="white"/>
<path d="M5.75 97.5L8 97.75L9.5 98.75L10.75 100.25L11 101.25V103.25L10.25 104.75L9 106L7.75 106.75H5.25L3.75 106L2.25 104.25L1.75 102L2.5 99.75L3.5 98.5L4.75 97.75L5.75 97.5Z" fill="white"/>
<path d="M26.25 97.75L28.5 98.25L29.75 99L30.75 100.5L31 101.5V103.25L30 105.25L28.5 106.5L27.75 106.75H25.25L23.5 105.75L22.25 104L22 101.5L23 99.5L24.5 98.25L26.25 97.75Z" fill="white"/>
<path d="M136.75 132.75H138.5L140.5 133.75L141.75 135.25L142 136V138.5L141 140L139.5 141.25L138.5 141.75H136.75L135 141L133.5 139.25L133 137.75L133.25 135.75L134.25 134L135.75 133L136.75 132.75Z" fill="white"/>
<path d="M125.5 41.25L127.5 41.5L129 42.25L130.25 43.75L130.75 45L130.5 47.25L129.5 49L127.75 50L127 50.25H125L123.5 49.5L122.25 48L121.75 46.5V44.75L122.75 42.75L124 41.75L125.5 41.25Z" fill="white"/>
<path d="M150.75 147.75L153 148L155 149.25L155.75 150.5L156 151.5V153.25L155 155L153.5 156.25L152.25 156.75L149.75 156.5L148 155.25L147.25 154L147 151.5L148 149.25L149.75 148L150.75 147.75Z" fill="white"/>
<path d="M143.5 178H145.75L147.75 179L148.75 180.25L149.25 182L149 184.25L147.25 186.25L146.5 186.75L144.75 187L142.75 186.5L141 185L140.25 183V181.25L141.5 179.25L143.5 178Z" fill="white"/>
<path d="M150.75 31.5L152.75 32L154.25 33L155.25 34.75L155.5 36.5L154.75 38.5L153.5 39.75L151.25 40.75L149 40.25L147 38.5L146.5 37V35L147.5 33L149.5 31.75L150.75 31.5Z" fill="white"/>
<path d="M124.25 185L126.75 185.25L128.25 186.25L129.25 188V190.5L128.25 192.25L127 193.25L125.5 193.75L123.5 193.5L121.75 192.25L121 191L120.75 188.5L121.5 186.75L123 185.5L124.25 185Z" fill="white"/>
<path d="M176.5 30.25H178.5L180.5 31.25L181.5 32.5L182 34L181.75 35.75L180.75 37.25L179.25 38.5L178.5 38.75H176.75L175 38L173.75 36.5L173.25 35.25V33.5L174.5 31.5L175.75 30.5L176.5 30.25Z" fill="white"/>
<path d="M144.75 48.5H146.75L148.5 49.25L149.75 50.75L150 51.25V54.25L148.5 56.25L146.5 57L144.25 56.75L142.5 55.5L141.5 53.5L141.75 51.25L142.75 49.75L144 48.75L144.75 48.5Z" fill="white"/>
<path d="M134.5 159.25H136.75L138.75 160.25L139.75 161.75L140 164.25L139 166L137.5 167.25L136.25 167.75L134.25 167.5L132.5 166.25L131.75 165L131.5 162.5L132.5 160.5L133.75 159.5L134.5 159.25Z" fill="white"/>
<path d="M44.75 95H46.5L48.25 95.75L49.5 97L50 98.25V100.25L49.25 101.75L47.75 103L47 103.25H44.25L42.5 102L41.75 100.75L41.5 98.75L42.25 96.75L44 95.25L44.75 95Z" fill="white"/>
<path d="M24 78.75H25.75L27.5 79.5L28.75 81L29 81.5V84L28 85.75L26.75 86.75L26 87H23.75L22.25 86.25L21 84.75L20.75 83.75V82L21.5 80.25L23 79L24 78.75Z" fill="white"/>
<path d="M8 57L10.25 57.25L11.75 58.25L12.5 59.25L12.75 61.5L11.75 63.5L10.25 64.5L8 64.75L6.25 63.75L5 61.75V60L5.75 58.5L7.25 57.25L8 57Z" fill="white"/>
<path d="M188.25 48L190.75 48.25L192.5 49.75L193 51V52.75L191.5 55L189.75 55.75L187.75 55.5L186.5 54.75L185.5 53.25L185.25 51L186.5 49L187.5 48.25L188.25 48Z" fill="white"/>
<path d="M164.25 46.25H166.25L168 47L169 48.5L169.25 50L168.75 51.75L167.5 53.25L166.5 53.75H164L162.5 52.75L161.75 51.75L161.5 50.75V49L162.25 47.5L163.5 46.5L164.25 46.25Z" fill="white"/>
<path d="M41.75 74.75L43.75 75L45.25 76L46 77.25V79.75L44.75 81.75L42.75 82.5L40.25 82L39 80.75L38.5 79.5V77.75L39.25 76.25L40.75 75L41.75 74.75Z" fill="white"/>
<path d="M28.75 59.75L30.75 60L32.25 61L33 61.75L33.25 64.25L32.25 66.25L31.5 67L29.25 67.5L27.5 67L26.25 65.75L25.5 64L26 61.75L27 60.5L28.75 59.75Z" fill="white"/>
<path d="M196 66.5L198.25 67L199.5 68L200 68.75V71.25L198.75 73L197.25 73.75L195.25 73.5L193.75 72.5L193 71V69.25L193.75 67.75L195 66.75L196 66.5Z" fill="white"/>
<path d="M103.5 188H105.5L107 188.75L108 190L108.25 192L107.5 193.75L106.75 194.5H106.25V195H103.25L101.5 193L101.25 192.25V190.5L102 189L103.5 188Z" fill="white"/>
<path d="M153 64.75H154.75L156.25 65.5L157.25 66.75L157.5 68.75L156.75 70.25L155.25 71.5L154.75 71.75H153L151.25 70.75L150.25 68.75L150.5 67L151.5 65.5L153 64.75Z" fill="white"/>
<path d="M173.75 63.25L175.5 63.5L176.75 64.25L177.75 65.5L178 67.5L177 69.25L175.75 70.25H173L171.25 68.75L170.75 66.5L171.75 64.5L173 63.5L173.75 63.25Z" fill="white"/>
<path d="M121.25 147.75L123.25 148L124.75 149L125.5 150.75L125.25 152.75L123.75 154.5L123.25 154.75H120.75L119.5 154L118.75 153L118.5 150.75L119.25 149L120.5 148L121.25 147.75Z" fill="white"/>
<path d="M116.25 167H118L120 168L120.75 170L120.5 172L119.5 173.25L118.75 173.75L116.75 174L115 173.25L114 172L113.75 169.75L114.5 168.25L115.75 167.25L116.25 167Z" fill="white"/>
<path d="M104.5 149.25H106.25L107.75 150.25L108.5 151L108.75 153L108 154.5L106.5 155.75H104.25L102.5 154.25L102 153.25V151.75L103 150L104.5 149.25Z" fill="white"/>
<path d="M17.75 38.25L19.25 38.5L20.5 39.25L21.5 40.5L21.75 41.75L21 43.5L19.75 44.75L17.75 45L16.25 44.25L15.25 43L15 42.5V40.75L16 39.25L17 38.5L17.75 38.25Z" fill="white"/>
<path d="M97.25 168.5L99.25 168.75L100.75 170L101.25 171.25L100.75 173.5L99.75 174.75L99.25 175H96.75L95 173.5L94.75 173V170.75L95.75 169.25L97.25 168.5Z" fill="white"/>
<path d="M50.75 60.5L53 61L54.25 62.5L54.5 63.75L53.75 65.75L52.25 66.75L49.75 66.5L48.25 64.75V62.75L49 61.5L49.75 60.75L50.75 60.5Z" fill="white"/>
<path d="M196.5 88.5L198.5 88.75L200 90L200.5 91.25L200.25 92.75L199 94.25L198 94.75L196 94.5L194.75 93.5L194.25 92.5V90.5L195 89.25L196.5 88.5Z" fill="white"/>
<path d="M31.25 23.75L33 24L34.5 25L35 26L34.75 28.25L33.75 29.5L32.5 30L30.5 29.75L29.25 28.5L28.75 27.5L29 25.75L29.5 24.75L31.25 23.75Z" fill="white"/>
<path d="M83.75 186.25L85.5 186.5L87 187.5L87.5 189L87.25 190.5L86 192L85.5 192.25H83.25L81.75 191L81.25 190L81.5 188L82.5 186.75L83.75 186.25Z" fill="white"/>
<path d="M38.5 44.25H40.25L41.75 45L42.5 46L42.75 47.5L42 49L40.5 50.25H38.75L37.5 49.5L36.75 48.75L36.5 46.5L37.25 45L38.5 44.25Z" fill="white"/>
<path d="M62 48H64L65.5 49L66 49.5V52L64.5 53.75H62.25L60.75 52.75L60.25 51.75L60.5 49.5L61.5 48.25L62 48Z" fill="white"/>
<path d="M53.5 31.5L55.25 31.75L56.75 33.25L57 34.75L56.25 36.25L55 37.25L53.5 37.5L51.75 36.75L51 35.5V33.5L52.5 31.75L53.5 31.5Z" fill="white"/>
<path d="M48 11L49.75 11.25L51.25 12.5L51.5 13V15L50 16.75L48.25 17L46.75 16.25L45.75 14.75V13.25L46.75 11.75L48 11Z" fill="white"/>
<path d="M158 83L159.5 83.25L161 84.25L161.5 85.5L161.25 87.25L160 88.5L158.5 89L156.75 88.25L156 87.5L155.75 85.25L156.5 83.75L158 83Z" fill="white"/>
<path d="M80.25 41.25L81.5 41.5L83 42.5L83.5 43.5V45L82.5 46.5L81.75 47H79.5L78.5 46.5L77.75 45L78 42.75L79.5 41.5L80.25 41.25Z" fill="white"/>
<path d="M177.5 84L179.5 84.25L180.75 85.25L181 85.75V88L179.5 89.75L178.25 90L176.5 89.25L175.5 88V86L176.25 84.75L177.5 84Z" fill="white"/>
<path d="M77.25 164.25L79.25 164.5L80.5 165.75L80.75 167.5L79.75 169L78.75 169.75H77.25L76 169L75.25 167.75V166.25L76.25 164.75L77.25 164.25Z" fill="white"/>
<path d="M64.25 179L66.25 179.25L67.5 180.5L67.75 182.25L66.75 183.75L66 184.25H64L62.5 183L62.25 181L63 179.75L64.25 179Z" fill="white"/>
<path d="M174.5 103.5L176.5 103.75L177.75 105L178 106.75L177.25 108H176.75V108.5L175.75 109L174.25 108.75L173 107.5L172.5 106.5L172.75 105L173.75 103.75L174.5 103.5Z" fill="white"/>
<path d="M154.25 101.5L156.5 101.75L157.5 102.75L157.75 104.75L156.75 106.25L156 106.75H154.25L152.75 105.5L152.5 105V103.25L153.5 101.75L154.25 101.5Z" fill="white"/>
<path d="M192.75 109H194.25L195.75 110L196 110.25V112.75L194.75 114H192.5L191.5 113.5L190.75 112L191 110.25L192.25 109.25L192.75 109Z" fill="white"/>
<path d="M87.75 1.25L89.25 1.5L90.5 2.75L90.75 4.5L89.25 6.25L87.75 6.5L86.5 5.75L85.75 5L85.5 3.25L86.25 2L87.75 1.25Z" fill="white"/>
<path d="M87 146.25L88.75 147L89.5 147.75L89.75 149.5L88.5 151L87.5 151.5L86 151.25L84.75 150L84.5 148.5L85.25 147L87 146.25Z" fill="white"/>
<path d="M70.75 23.5L72.75 23.75L73.75 24.75L74 26.5L73.25 27.75L71.5 28.5L70 28L69 27V25L69.5 24L70.75 23.5Z" fill="white"/>
<path d="M66 4.5H67.75L68.75 5L69.5 6.75L69.25 8.25L68 9.25L66.5 9.5L65.25 8.75L64.5 7.5V6L65.5 4.75L66 4.5Z" fill="white"/>
<path d="M47.5 167H49L50.5 168.25L50.75 169.75L50 171L48.75 171.75L47.25 171.5L46 170.25V168.25L47.5 167Z" fill="white"/>
<path d="M70.5 135.75H72.5L73.75 137L74 138.5L72.5 140.25H70.75L69.25 139L69 137.5L70 136L70.5 135.75Z" fill="white"/>
<path d="M61.25 154.25H62.75L64.25 155.5V157.75L63 158.75L61.75 159L60.25 158.25L59.75 157.5L60 155.25L61.25 154.25Z" fill="white"/>
<path d="M34.25 152.25L36 152.5L37 153.5V155.75L36 156.75L34.75 157L33.5 156.5L32.5 155.25V153.75L33.5 152.5L34.25 152.25Z" fill="white"/>
<path d="M90.5 22H92.25L93.5 23L93.75 24.5L93 25.75L92.5 26H90.5L89.25 24.75L89.5 23L90.5 22Z" fill="white"/>
<path d="M48.5 137.75L50.5 138L51.25 138.75V140.75L50.25 141.75L48.75 142L47.75 141.5L47 140.25V139L48.5 137.75Z" fill="white"/>
<path d="M166.5 121.75L167.75 122L168.75 123L168.5 124.25L167.25 125.25L166 124.75L165 123.75L165.5 122.75L166.5 121.75Z" fill="white"/>
</g>
<defs>
<clipPath id="clip0_166_7641">
<rect width="983" height="195" fill="white"/>
</clipPath>
</defs>
</svg>
