<svg width="43" height="42" viewBox="0 0 43 42" fill="none" xmlns="http://www.w3.org/2000/svg">
<path d="M27.9805 1.9156C26.0864 1.32071 24.0709 1 21.9805 1C10.9348 1 1.98047 9.9543 1.98047 21C1.98047 32.0457 10.9348 41 21.9805 41C33.0262 41 41.9805 32.0457 41.9805 21C41.9805 17.5693 41.1167 14.3404 39.5948 11.5189M31.9805 8.5H31.9905M18.9806 40.7765L18.9808 36.3699C18.9808 36.1312 19.0662 35.9003 19.2216 35.7191L24.1931 29.9188C24.6017 29.4421 24.4751 28.7113 23.93 28.3998L18.2176 25.1355C18.0624 25.0468 17.9338 24.9181 17.8452 24.7629L14.1214 18.2373C13.9276 17.8976 13.5536 17.7021 13.1642 17.7368L2.10884 18.7215M39.9805 9C39.9805 13.4183 35.9805 17 31.9805 21C27.9805 17 23.9805 13.4183 23.9805 9C23.9805 4.58172 27.5622 1 31.9805 1C36.3988 1 39.9805 4.58172 39.9805 9ZM32.4805 8.5C32.4805 8.7761 32.2566 9 31.9805 9C31.7044 9 31.4805 8.7761 31.4805 8.5C31.4805 8.2239 31.7044 8 31.9805 8C32.2566 8 32.4805 8.2239 32.4805 8.5Z" stroke="url(#paint0_linear_1_1102)" stroke-width="2" stroke-linecap="round" stroke-linejoin="round"/>
<defs>
<linearGradient id="paint0_linear_1_1102" x1="-1.0893" y1="12.1429" x2="46.7339" y2="16.7742" gradientUnits="userSpaceOnUse">
<stop stop-color="white"/>
<stop offset="0.460554" stop-color="#99AEFF"/>
<stop offset="1" stop-color="white"/>
</linearGradient>
</defs>
</svg>
