<svg width="149" height="147" viewBox="0 0 149 147" fill="none" xmlns="http://www.w3.org/2000/svg">
<path d="M51.5961 65.9593C44.9765 63.3115 41.6667 61.9875 41.6667 60.3424C41.6667 58.6972 44.9765 57.3733 51.5961 54.7254L60.9577 50.9808C67.5773 48.333 70.8871 47.009 75 47.009C79.1129 47.009 82.4227 48.333 89.0423 50.9808L98.4039 54.7254C105.024 57.3733 108.333 58.6972 108.333 60.3424C108.333 61.9875 105.024 63.3115 98.4039 65.9593L89.0423 69.7039C82.4227 72.3518 79.1129 73.6757 75 73.6757C70.8871 73.6757 67.5773 72.3518 60.9577 69.7039L51.5961 65.9593Z" stroke="url(#paint0_linear_1_125)" stroke-width="3"/>
<path d="M54.2204 67.009L51.5961 68.0588C44.9765 70.7066 41.6667 72.0305 41.6667 73.6757C41.6667 75.3209 44.9765 76.6448 51.5961 79.2926L60.9577 83.0373C67.5773 85.6851 70.8871 87.009 75 87.009C79.1129 87.009 82.4227 85.6851 89.0423 83.0373L98.4039 79.2926C105.024 76.6448 108.333 75.3209 108.333 73.6757C108.333 72.0305 105.024 70.7066 98.4039 68.0588L95.7796 67.009" stroke="url(#paint1_linear_1_125)" stroke-width="3"/>
<path d="M54.2204 80.3425L51.5961 81.3923C44.9765 84.0401 41.6667 85.364 41.6667 87.0092C41.6667 88.6544 44.9765 89.9783 51.5961 92.6261L60.9577 96.3708C67.5773 99.0186 70.8871 100.343 75 100.343C79.1129 100.343 82.4227 99.0186 89.0423 96.3708L98.4039 92.6261C105.024 89.9783 108.333 88.6544 108.333 87.0092C108.333 85.364 105.024 84.0401 98.4039 81.3923L95.7796 80.3425" stroke="url(#paint2_linear_1_125)" stroke-width="3"/>
<path d="M147.477 73.144C147.477 112.878 114.83 145.114 74.5242 145.114C34.2189 145.114 1.57114 112.878 1.57114 73.144C1.57114 33.4101 34.2189 1.17368 74.5242 1.17368C114.83 1.17368 147.477 33.4101 147.477 73.144Z" fill="url(#paint3_linear_1_125)" fill-opacity="0.32" stroke="#2753FD" stroke-width="1.14227"/>
<path d="M148.048 73.144C148.048 113.2 115.138 145.685 74.5242 145.685C33.9107 145.685 1 113.2 1 73.144C1 33.0875 33.9107 0.602539 74.5242 0.602539C115.138 0.602539 148.048 33.0875 148.048 73.144Z" stroke="#2753FD" stroke-width="1.13855"/>
<defs>
<linearGradient id="paint0_linear_1_125" x1="75" y1="47.009" x2="75" y2="73.6757" gradientUnits="userSpaceOnUse">
<stop stop-color="#2753FD"/>
<stop offset="1" stop-color="#173297"/>
</linearGradient>
<linearGradient id="paint1_linear_1_125" x1="75" y1="67.009" x2="75" y2="87.009" gradientUnits="userSpaceOnUse">
<stop stop-color="#2753FD"/>
<stop offset="1" stop-color="#173297"/>
</linearGradient>
<linearGradient id="paint2_linear_1_125" x1="75" y1="80.3425" x2="75" y2="100.343" gradientUnits="userSpaceOnUse">
<stop stop-color="#2753FD"/>
<stop offset="1" stop-color="#173297"/>
</linearGradient>
<linearGradient id="paint3_linear_1_125" x1="74.6037" y1="0.0336493" x2="74.6037" y2="146.254" gradientUnits="userSpaceOnUse">
<stop stop-color="#2753FD"/>
<stop offset="1" stop-color="#99AEFF" stop-opacity="0"/>
</linearGradient>
</defs>
</svg>
