<svg width="49" height="48" viewBox="0 0 49 48" fill="none" xmlns="http://www.w3.org/2000/svg">
<path d="M44.66 42V38C44.66 34.2723 42.1105 31.1401 38.66 30.252M31.66 6.58152C34.5918 7.76829 36.66 10.6426 36.66 14C36.66 17.3574 34.5918 20.2317 31.66 21.4185M34.66 42C34.66 38.2725 34.66 36.4087 34.051 34.9385C33.2391 32.9783 31.6817 31.4209 29.7215 30.609C28.2513 30 26.3875 30 22.66 30H16.66C12.9325 30 11.0687 30 9.59856 30.609C7.63834 31.4209 6.08095 32.9783 5.26899 34.9385C4.66003 36.4087 4.66003 38.2725 4.66003 42M27.66 14C27.66 18.4183 24.0783 22 19.66 22C15.2417 22 11.66 18.4183 11.66 14C11.66 9.58172 15.2417 6 19.66 6C24.0783 6 27.66 9.58172 27.66 14Z" stroke="url(#paint0_linear_1_1095)" stroke-width="2" stroke-linecap="round" stroke-linejoin="round"/>
<defs>
<linearGradient id="paint0_linear_1_1095" x1="1.59027" y1="16.0286" x2="49.3094" y2="21.1634" gradientUnits="userSpaceOnUse">
<stop stop-color="white"/>
<stop offset="0.460554" stop-color="#99AEFF"/>
<stop offset="1" stop-color="white"/>
</linearGradient>
</defs>
</svg>
